M48
METRIC,LZ,000.000
;FILE_FORMAT=3:3
;TYPE=PLATED
;Layer: PTH_Through
;EasyEDA v6.5.34, 2023-08-04 19:03:51
;bd8073a519a84a03b3240daa2bee514a,ed70181f279245e6aff80281ee7dc86a,10
;Gerber Generator version 0.2
;Holesize 1 = 0.889 mm
T01C0.889
;Holesize 2 = 0.901 mm
T02C0.901
;Holesize 3 = 0.915 mm
T03C0.915
;Holesize 4 = 1.000 mm
T04C1.000
;Holesize 5 = 1.301 mm
T05C1.301
;Holesize 6 = 1.600 mm
T06C1.600
;Holesize 7 = 3.000 mm
T07C3.000
%
G05
G90
T01
X099800Y041780
X099800Y039240
X099800Y036700
X099800Y034160
X099800Y031620
X105430Y039800
X107970Y039800
T02
X111887Y031877
X111887Y029337
X111887Y026797
X111887Y024257
X111887Y021717
X111887Y019177
X111887Y016637
X111887Y014097
X104267Y031877
X104267Y029337
X104267Y026797
X104267Y024257
X104267Y021717
X104267Y019177
X104267Y016637
X104267Y014097
T03
X080780Y004620
X080780Y007160
X080780Y009700
X080780Y012240
X080780Y014780
X080780Y017320
X080780Y019860
X080780Y022400
X080780Y024940
X080780Y027480
X080780Y030020
X080780Y032560
X080780Y035100
X080780Y037640
X080780Y040180
X096020Y004620
X096020Y007160
X096020Y009700
X096020Y012240
X096020Y014780
X096020Y017320
X096020Y019860
X096020Y022400
X096020Y024940
X096020Y027480
X096020Y030020
X096020Y032560
X096020Y035100
X096020Y037640
X096020Y040180
T04
X086060Y032700
X091140Y032700
X117160Y029500
X119700Y029500
X122240Y029500
X117160Y022900
X119700Y022900
X122240Y022900
X117160Y016300
X119700Y016300
X122240Y016300
T05
X119725Y040259
X114717Y040259
T06
X106229Y008890
X119830Y008890
T07
X074275Y041500G85X074125Y041500
X121175Y003800G85X121025Y003800
M30
