G04 Layer: BottomLayer*
G04 EasyEDA v6.5.34, 2023-08-04 19:03:51*
G04 bd8073a519a84a03b3240daa2bee514a,ed70181f279245e6aff80281ee7dc86a,10*
G04 Gerber Generator version 0.2*
G04 Scale: 100 percent, Rotated: No, Reflected: No *
G04 Dimensions in millimeters *
G04 leading zeros omitted , absolute positions ,4 integer and 5 decimal *
%FSLAX45Y45*%
%MOMM*%

%AMMACRO1*21,1,$1,$2,0,0,$3*%
%ADD10C,1.5748*%
%ADD11MACRO1,1.5748X1.5748X90.0000*%
%ADD12C,2.5000*%
%ADD13C,1.7780*%
%ADD14MACRO1,1.778X1.778X-90.0000*%
%ADD15C,2.4000*%
%ADD16O,1.9999959999999999X1.499997*%
%ADD17MACRO1,2X1.5X0.0000*%
%ADD18C,2.0000*%
%ADD19MACRO1,1.8X1.8X0.0000*%
%ADD20C,1.8000*%
%ADD21C,3.2000*%
%ADD22C,0.0127*%

%LPD*%
G36*
X7186168Y151384D02*
G01*
X7182256Y152146D01*
X7179005Y154381D01*
X7176770Y157632D01*
X7176008Y161544D01*
X7176008Y4383684D01*
X7176770Y4387545D01*
X7178954Y4390847D01*
X7182256Y4393082D01*
X7186168Y4393844D01*
X12338558Y4406239D01*
X12342418Y4405477D01*
X12345720Y4403293D01*
X12347956Y4399991D01*
X12348718Y4396079D01*
X12348718Y3048812D01*
X12347905Y3044901D01*
X12345619Y3041548D01*
X12342266Y3039364D01*
X12338253Y3038652D01*
X12334341Y3039567D01*
X12331090Y3041954D01*
X12322454Y3051302D01*
X12310262Y3061868D01*
X12296952Y3071012D01*
X12282678Y3078530D01*
X12267692Y3084372D01*
X12252045Y3088487D01*
X12236094Y3090773D01*
X12219990Y3091230D01*
X12203887Y3089859D01*
X12188088Y3086658D01*
X12172746Y3081680D01*
X12158065Y3074974D01*
X12144248Y3066643D01*
X12131497Y3056788D01*
X12119914Y3045561D01*
X12109704Y3033064D01*
X12105690Y3026816D01*
X12102947Y3023971D01*
X12099391Y3022396D01*
X12095480Y3022295D01*
X12091771Y3023666D01*
X12088926Y3026308D01*
X12079376Y3039465D01*
X12068454Y3051302D01*
X12056262Y3061868D01*
X12042952Y3071012D01*
X12028678Y3078530D01*
X12013692Y3084372D01*
X11998045Y3088487D01*
X11982094Y3090773D01*
X11965990Y3091230D01*
X11949887Y3089859D01*
X11934088Y3086658D01*
X11918746Y3081680D01*
X11904065Y3074974D01*
X11890248Y3066643D01*
X11877497Y3056788D01*
X11871553Y3051048D01*
X11868048Y3048812D01*
X11863882Y3048203D01*
X11859818Y3049320D01*
X11856567Y3051962D01*
X11854688Y3055721D01*
X11854180Y3057550D01*
X11850420Y3065627D01*
X11845290Y3072942D01*
X11838940Y3079292D01*
X11831624Y3084423D01*
X11823547Y3088182D01*
X11814911Y3090468D01*
X11805564Y3091332D01*
X11626443Y3091332D01*
X11617096Y3090468D01*
X11608460Y3088182D01*
X11600383Y3084423D01*
X11593068Y3079292D01*
X11586718Y3072942D01*
X11581587Y3065627D01*
X11577828Y3057550D01*
X11575491Y3048914D01*
X11574678Y3039567D01*
X11574678Y2860446D01*
X11575491Y2851099D01*
X11577828Y2842463D01*
X11581587Y2834386D01*
X11586718Y2827070D01*
X11593068Y2820720D01*
X11600383Y2815590D01*
X11608460Y2811830D01*
X11617096Y2809494D01*
X11626443Y2808681D01*
X11805564Y2808681D01*
X11814911Y2809494D01*
X11823547Y2811830D01*
X11831624Y2815590D01*
X11838940Y2820720D01*
X11845290Y2827070D01*
X11850420Y2834386D01*
X11854180Y2842463D01*
X11854688Y2844292D01*
X11856567Y2848051D01*
X11859818Y2850692D01*
X11863882Y2851810D01*
X11868048Y2851200D01*
X11871553Y2848965D01*
X11877497Y2843225D01*
X11890248Y2833370D01*
X11904065Y2825038D01*
X11918746Y2818333D01*
X11934088Y2813354D01*
X11949887Y2810154D01*
X11965990Y2808782D01*
X11982094Y2809240D01*
X11998045Y2811526D01*
X12013692Y2815640D01*
X12028678Y2821482D01*
X12042952Y2829001D01*
X12056262Y2838094D01*
X12068454Y2848660D01*
X12079376Y2860548D01*
X12088926Y2873705D01*
X12091771Y2876346D01*
X12095480Y2877718D01*
X12099391Y2877616D01*
X12102947Y2876042D01*
X12105690Y2873197D01*
X12109704Y2866948D01*
X12119914Y2854452D01*
X12131497Y2843225D01*
X12144248Y2833370D01*
X12158065Y2825038D01*
X12172746Y2818333D01*
X12188088Y2813354D01*
X12203887Y2810154D01*
X12219990Y2808782D01*
X12236094Y2809240D01*
X12252045Y2811526D01*
X12267692Y2815640D01*
X12282678Y2821482D01*
X12296952Y2829001D01*
X12310262Y2838094D01*
X12322454Y2848660D01*
X12331090Y2858058D01*
X12334341Y2860395D01*
X12338253Y2861310D01*
X12342266Y2860649D01*
X12345619Y2858465D01*
X12347905Y2855112D01*
X12348718Y2851150D01*
X12348718Y2388819D01*
X12347905Y2384856D01*
X12345619Y2381554D01*
X12342266Y2379370D01*
X12338253Y2378659D01*
X12334341Y2379573D01*
X12331090Y2381961D01*
X12322454Y2391308D01*
X12310262Y2401874D01*
X12296952Y2411018D01*
X12282678Y2418537D01*
X12267692Y2424379D01*
X12252045Y2428494D01*
X12236094Y2430780D01*
X12219990Y2431237D01*
X12203887Y2429865D01*
X12188088Y2426665D01*
X12172746Y2421686D01*
X12158065Y2414981D01*
X12144248Y2406650D01*
X12131497Y2396794D01*
X12119914Y2385517D01*
X12109704Y2373071D01*
X12105690Y2366822D01*
X12102947Y2363978D01*
X12099391Y2362403D01*
X12095480Y2362250D01*
X12091771Y2363673D01*
X12088926Y2366314D01*
X12079376Y2379421D01*
X12068454Y2391308D01*
X12056262Y2401874D01*
X12042952Y2411018D01*
X12028678Y2418537D01*
X12013692Y2424379D01*
X11998045Y2428494D01*
X11982094Y2430780D01*
X11965990Y2431237D01*
X11949887Y2429865D01*
X11934088Y2426665D01*
X11918746Y2421686D01*
X11904065Y2414981D01*
X11890248Y2406650D01*
X11877497Y2396794D01*
X11871553Y2391054D01*
X11868048Y2388819D01*
X11863882Y2388158D01*
X11859818Y2389276D01*
X11856567Y2391968D01*
X11854688Y2395677D01*
X11854180Y2397556D01*
X11850420Y2405634D01*
X11845290Y2412949D01*
X11838940Y2419299D01*
X11831624Y2424379D01*
X11823547Y2428189D01*
X11814911Y2430475D01*
X11805564Y2431288D01*
X11626443Y2431288D01*
X11617096Y2430475D01*
X11608460Y2428189D01*
X11600383Y2424379D01*
X11593068Y2419299D01*
X11586718Y2412949D01*
X11581587Y2405634D01*
X11577828Y2397556D01*
X11575491Y2388920D01*
X11574678Y2379573D01*
X11574678Y2200452D01*
X11575491Y2191105D01*
X11577828Y2182469D01*
X11581587Y2174341D01*
X11586718Y2167026D01*
X11593068Y2160727D01*
X11600383Y2155596D01*
X11608460Y2151837D01*
X11617096Y2149500D01*
X11626443Y2148687D01*
X11805564Y2148687D01*
X11814911Y2149500D01*
X11823547Y2151837D01*
X11831624Y2155596D01*
X11838940Y2160727D01*
X11845290Y2167026D01*
X11850420Y2174341D01*
X11854180Y2182469D01*
X11854688Y2184298D01*
X11856567Y2188057D01*
X11859818Y2190699D01*
X11863882Y2191816D01*
X11868048Y2191207D01*
X11871553Y2188972D01*
X11877497Y2183231D01*
X11890248Y2173376D01*
X11904065Y2165045D01*
X11918746Y2158339D01*
X11934088Y2153361D01*
X11949887Y2150160D01*
X11965990Y2148789D01*
X11982094Y2149246D01*
X11998045Y2151532D01*
X12013692Y2155647D01*
X12028678Y2161489D01*
X12042952Y2169007D01*
X12056262Y2178100D01*
X12068454Y2188667D01*
X12079376Y2200554D01*
X12088926Y2213660D01*
X12091771Y2216353D01*
X12095480Y2217724D01*
X12099391Y2217623D01*
X12102947Y2216048D01*
X12105690Y2213203D01*
X12109704Y2206955D01*
X12119914Y2194458D01*
X12131497Y2183231D01*
X12144248Y2173376D01*
X12158065Y2165045D01*
X12172746Y2158339D01*
X12188088Y2153361D01*
X12203887Y2150160D01*
X12219990Y2148789D01*
X12236094Y2149246D01*
X12252045Y2151532D01*
X12267692Y2155647D01*
X12282678Y2161489D01*
X12296952Y2169007D01*
X12310262Y2178100D01*
X12322454Y2188667D01*
X12331090Y2198065D01*
X12334341Y2200402D01*
X12338253Y2201316D01*
X12342266Y2200656D01*
X12345619Y2198471D01*
X12347905Y2195118D01*
X12348718Y2191156D01*
X12348718Y1728825D01*
X12347905Y1724863D01*
X12345619Y1721561D01*
X12342266Y1719376D01*
X12338253Y1718665D01*
X12334341Y1719580D01*
X12331090Y1721967D01*
X12322454Y1731314D01*
X12310262Y1741881D01*
X12296952Y1750974D01*
X12282678Y1758543D01*
X12267692Y1764385D01*
X12252045Y1768500D01*
X12236094Y1770786D01*
X12219990Y1771243D01*
X12203887Y1769872D01*
X12188088Y1766671D01*
X12172746Y1761642D01*
X12158065Y1754987D01*
X12144248Y1746656D01*
X12131497Y1736801D01*
X12119914Y1725523D01*
X12109704Y1713026D01*
X12105690Y1706778D01*
X12102947Y1703984D01*
X12099391Y1702409D01*
X12095480Y1702257D01*
X12091771Y1703679D01*
X12088926Y1706321D01*
X12079376Y1719427D01*
X12068454Y1731314D01*
X12056262Y1741881D01*
X12042952Y1750974D01*
X12028678Y1758543D01*
X12013692Y1764385D01*
X11998045Y1768500D01*
X11982094Y1770786D01*
X11965990Y1771243D01*
X11949887Y1769872D01*
X11934088Y1766671D01*
X11918746Y1761642D01*
X11904065Y1754987D01*
X11890248Y1746656D01*
X11877497Y1736801D01*
X11871553Y1731060D01*
X11868048Y1728774D01*
X11863882Y1728165D01*
X11859818Y1729282D01*
X11856567Y1731975D01*
X11854688Y1735683D01*
X11854180Y1737512D01*
X11850420Y1745640D01*
X11845290Y1752955D01*
X11838940Y1759254D01*
X11831624Y1764385D01*
X11823547Y1768195D01*
X11814911Y1770481D01*
X11805564Y1771294D01*
X11626443Y1771294D01*
X11617096Y1770481D01*
X11608460Y1768195D01*
X11600383Y1764385D01*
X11593068Y1759254D01*
X11586718Y1752955D01*
X11581587Y1745640D01*
X11577828Y1737512D01*
X11575491Y1728927D01*
X11574678Y1719580D01*
X11574678Y1540459D01*
X11575491Y1531112D01*
X11577828Y1522476D01*
X11581587Y1514348D01*
X11586718Y1507032D01*
X11593068Y1500733D01*
X11600383Y1495602D01*
X11608460Y1491843D01*
X11617096Y1489506D01*
X11626443Y1488694D01*
X11805564Y1488694D01*
X11814911Y1489506D01*
X11823547Y1491843D01*
X11831624Y1495602D01*
X11838940Y1500733D01*
X11845290Y1507032D01*
X11850420Y1514348D01*
X11854180Y1522476D01*
X11854688Y1524304D01*
X11856567Y1528064D01*
X11859818Y1530705D01*
X11863882Y1531823D01*
X11868048Y1531213D01*
X11871553Y1528978D01*
X11877497Y1523238D01*
X11890248Y1513382D01*
X11904065Y1505051D01*
X11918746Y1498346D01*
X11934088Y1493367D01*
X11949887Y1490167D01*
X11965990Y1488744D01*
X11982094Y1489252D01*
X11998045Y1491538D01*
X12013692Y1495602D01*
X12028678Y1501495D01*
X12042952Y1509014D01*
X12056262Y1518107D01*
X12068454Y1528673D01*
X12079376Y1540560D01*
X12088926Y1553667D01*
X12091771Y1556359D01*
X12095480Y1557731D01*
X12099391Y1557629D01*
X12102947Y1556054D01*
X12105690Y1553210D01*
X12109704Y1546961D01*
X12119914Y1534464D01*
X12131497Y1523238D01*
X12144248Y1513382D01*
X12158065Y1505051D01*
X12172746Y1498346D01*
X12188088Y1493367D01*
X12203887Y1490167D01*
X12219990Y1488744D01*
X12236094Y1489252D01*
X12252045Y1491538D01*
X12267692Y1495602D01*
X12282678Y1501495D01*
X12296952Y1509014D01*
X12310262Y1518107D01*
X12322454Y1528673D01*
X12331090Y1538020D01*
X12334341Y1540408D01*
X12338253Y1541322D01*
X12342266Y1540662D01*
X12345619Y1538478D01*
X12347905Y1535125D01*
X12348718Y1531162D01*
X12348718Y161544D01*
X12347956Y157632D01*
X12345720Y154381D01*
X12342469Y152146D01*
X12338558Y151384D01*
X12145467Y151384D01*
X12141301Y152298D01*
X12137847Y154787D01*
X12135764Y158496D01*
X12135358Y162712D01*
X12136729Y166725D01*
X12139625Y169875D01*
X12143536Y171500D01*
X12159843Y174650D01*
X12179096Y180340D01*
X12197791Y187807D01*
X12215672Y197002D01*
X12232589Y207873D01*
X12248388Y220319D01*
X12262916Y234188D01*
X12276074Y249377D01*
X12287758Y265785D01*
X12297816Y283159D01*
X12306147Y301447D01*
X12312751Y320446D01*
X12317476Y340004D01*
X12320320Y359918D01*
X12321286Y379984D01*
X12320320Y400100D01*
X12317476Y419963D01*
X12312751Y439521D01*
X12306147Y458520D01*
X12297816Y476808D01*
X12287758Y494233D01*
X12276074Y510590D01*
X12262916Y525830D01*
X12248388Y539699D01*
X12232589Y552094D01*
X12215672Y562965D01*
X12197791Y572211D01*
X12179096Y579678D01*
X12159843Y585317D01*
X12140082Y589127D01*
X12120067Y591058D01*
X12099950Y591058D01*
X12079935Y589127D01*
X12060174Y585317D01*
X12040920Y579678D01*
X12022226Y572211D01*
X12004344Y562965D01*
X11987428Y552094D01*
X11971629Y539699D01*
X11957100Y525830D01*
X11943892Y510590D01*
X11932259Y494233D01*
X11922201Y476808D01*
X11913870Y458520D01*
X11907266Y439521D01*
X11902541Y419963D01*
X11899646Y400100D01*
X11898731Y379984D01*
X11899646Y359918D01*
X11902541Y340004D01*
X11907266Y320446D01*
X11913870Y301447D01*
X11922201Y283159D01*
X11932259Y265785D01*
X11943892Y249377D01*
X11957100Y234188D01*
X11971629Y220319D01*
X11987428Y207873D01*
X12004344Y197002D01*
X12022226Y187807D01*
X12040920Y180340D01*
X12060174Y174650D01*
X12076480Y171500D01*
X12080392Y169875D01*
X12083288Y166725D01*
X12084659Y162712D01*
X12084253Y158496D01*
X12082119Y154787D01*
X12078716Y152298D01*
X12074550Y151384D01*
G37*

%LPC*%
G36*
X9593986Y322021D02*
G01*
X9609988Y322021D01*
X9625888Y323850D01*
X9641484Y327507D01*
X9656572Y332841D01*
X9670948Y339953D01*
X9684410Y348589D01*
X9696805Y358698D01*
X9707930Y370179D01*
X9717735Y382879D01*
X9726015Y396595D01*
X9732619Y411124D01*
X9737598Y426364D01*
X9740747Y442061D01*
X9742119Y458012D01*
X9741662Y474014D01*
X9739426Y489864D01*
X9735312Y505307D01*
X9729520Y520242D01*
X9722053Y534416D01*
X9713010Y547624D01*
X9702546Y559714D01*
X9690760Y570534D01*
X9677247Y580237D01*
X9674098Y582980D01*
X9672320Y586740D01*
X9672218Y590905D01*
X9673793Y594766D01*
X9676739Y597662D01*
X9684410Y602589D01*
X9696805Y612698D01*
X9707930Y624179D01*
X9717735Y636879D01*
X9726015Y650595D01*
X9732619Y665124D01*
X9737598Y680364D01*
X9740747Y696061D01*
X9742119Y712012D01*
X9741662Y728014D01*
X9739426Y743864D01*
X9735312Y759307D01*
X9729520Y774242D01*
X9722053Y788416D01*
X9713010Y801624D01*
X9702546Y813714D01*
X9690760Y824534D01*
X9677247Y834237D01*
X9674098Y836980D01*
X9672320Y840740D01*
X9672218Y844905D01*
X9673793Y848766D01*
X9676739Y851662D01*
X9684410Y856589D01*
X9696805Y866698D01*
X9707930Y878179D01*
X9717735Y890879D01*
X9726015Y904595D01*
X9732619Y919124D01*
X9737598Y934364D01*
X9740747Y950061D01*
X9742119Y966012D01*
X9741662Y982014D01*
X9739426Y997864D01*
X9735312Y1013307D01*
X9729520Y1028242D01*
X9722053Y1042416D01*
X9713010Y1055624D01*
X9702546Y1067714D01*
X9690760Y1078534D01*
X9677247Y1088237D01*
X9674098Y1090980D01*
X9672320Y1094740D01*
X9672218Y1098905D01*
X9673793Y1102766D01*
X9676739Y1105662D01*
X9684410Y1110589D01*
X9696805Y1120698D01*
X9707930Y1132179D01*
X9717735Y1144879D01*
X9726015Y1158595D01*
X9732619Y1173124D01*
X9737598Y1188364D01*
X9740747Y1204061D01*
X9742119Y1220012D01*
X9741662Y1236014D01*
X9739426Y1251864D01*
X9735312Y1267307D01*
X9729520Y1282242D01*
X9722053Y1296416D01*
X9713010Y1309624D01*
X9702546Y1321714D01*
X9690760Y1332534D01*
X9677247Y1342237D01*
X9674098Y1344980D01*
X9672320Y1348740D01*
X9672218Y1352905D01*
X9673793Y1356766D01*
X9676739Y1359662D01*
X9684410Y1364589D01*
X9696805Y1374698D01*
X9707930Y1386179D01*
X9717735Y1398879D01*
X9726015Y1412595D01*
X9732619Y1427124D01*
X9737598Y1442364D01*
X9740747Y1458061D01*
X9742119Y1474012D01*
X9741662Y1490014D01*
X9739426Y1505864D01*
X9735312Y1521307D01*
X9729520Y1536242D01*
X9722053Y1550416D01*
X9713010Y1563624D01*
X9702546Y1575714D01*
X9690760Y1586534D01*
X9677247Y1596237D01*
X9674098Y1598980D01*
X9672320Y1602740D01*
X9672218Y1606905D01*
X9673793Y1610766D01*
X9676739Y1613662D01*
X9684410Y1618589D01*
X9696805Y1628698D01*
X9707930Y1640179D01*
X9717735Y1652879D01*
X9726015Y1666595D01*
X9732619Y1681124D01*
X9737598Y1696364D01*
X9740747Y1712061D01*
X9742119Y1728012D01*
X9741662Y1744014D01*
X9739426Y1759864D01*
X9735312Y1775307D01*
X9729520Y1790242D01*
X9722053Y1804416D01*
X9713010Y1817624D01*
X9702546Y1829714D01*
X9690760Y1840534D01*
X9677247Y1850237D01*
X9674098Y1852980D01*
X9672320Y1856739D01*
X9672218Y1860905D01*
X9673793Y1864766D01*
X9676739Y1867662D01*
X9684410Y1872589D01*
X9696805Y1882698D01*
X9707930Y1894179D01*
X9717735Y1906879D01*
X9726015Y1920595D01*
X9732619Y1935124D01*
X9737598Y1950364D01*
X9740747Y1966061D01*
X9742119Y1982012D01*
X9741662Y1998014D01*
X9739426Y2013864D01*
X9735312Y2029307D01*
X9729520Y2044242D01*
X9722053Y2058416D01*
X9713010Y2071624D01*
X9702546Y2083714D01*
X9690760Y2094534D01*
X9677247Y2104237D01*
X9674098Y2106980D01*
X9672320Y2110740D01*
X9672218Y2114905D01*
X9673793Y2118766D01*
X9676739Y2121662D01*
X9684410Y2126589D01*
X9696805Y2136698D01*
X9707930Y2148179D01*
X9717735Y2160879D01*
X9726015Y2174595D01*
X9732619Y2189124D01*
X9737598Y2204364D01*
X9740747Y2220061D01*
X9742119Y2236012D01*
X9741662Y2252014D01*
X9739426Y2267864D01*
X9735312Y2283307D01*
X9729520Y2298242D01*
X9722053Y2312416D01*
X9713010Y2325624D01*
X9702546Y2337714D01*
X9690760Y2348534D01*
X9677247Y2358237D01*
X9674098Y2360980D01*
X9672320Y2364740D01*
X9672218Y2368905D01*
X9673793Y2372766D01*
X9676739Y2375662D01*
X9684410Y2380589D01*
X9696805Y2390698D01*
X9707930Y2402179D01*
X9717735Y2414879D01*
X9726015Y2428595D01*
X9732619Y2443124D01*
X9737598Y2458364D01*
X9740747Y2474061D01*
X9742119Y2490012D01*
X9741662Y2506014D01*
X9739426Y2521864D01*
X9735312Y2537307D01*
X9729520Y2552242D01*
X9722053Y2566416D01*
X9713010Y2579624D01*
X9702546Y2591714D01*
X9690760Y2602534D01*
X9677247Y2612237D01*
X9674098Y2614980D01*
X9672320Y2618740D01*
X9672218Y2622905D01*
X9673793Y2626766D01*
X9676739Y2629662D01*
X9684410Y2634589D01*
X9696805Y2644698D01*
X9707930Y2656179D01*
X9717735Y2668879D01*
X9726015Y2682595D01*
X9732619Y2697124D01*
X9737598Y2712364D01*
X9740747Y2728061D01*
X9742119Y2744012D01*
X9741662Y2760014D01*
X9739426Y2775864D01*
X9735312Y2791307D01*
X9729520Y2806242D01*
X9722053Y2820416D01*
X9713010Y2833624D01*
X9702546Y2845714D01*
X9690760Y2856534D01*
X9677247Y2866237D01*
X9674098Y2868980D01*
X9672320Y2872740D01*
X9672218Y2876905D01*
X9673793Y2880766D01*
X9676739Y2883662D01*
X9684410Y2888589D01*
X9696805Y2898698D01*
X9707930Y2910179D01*
X9717735Y2922879D01*
X9726015Y2936595D01*
X9732619Y2951124D01*
X9737598Y2966364D01*
X9740747Y2982061D01*
X9742119Y2998012D01*
X9741662Y3014014D01*
X9739426Y3029864D01*
X9735312Y3045307D01*
X9729520Y3060242D01*
X9722053Y3074416D01*
X9713010Y3087624D01*
X9702546Y3099714D01*
X9690760Y3110534D01*
X9677247Y3120237D01*
X9674098Y3122980D01*
X9672320Y3126740D01*
X9672218Y3130905D01*
X9673793Y3134766D01*
X9676739Y3137662D01*
X9684410Y3142589D01*
X9696805Y3152698D01*
X9707930Y3164179D01*
X9717735Y3176879D01*
X9726015Y3190595D01*
X9732670Y3205175D01*
X9652812Y3205175D01*
X9652812Y3146552D01*
X9652101Y3142843D01*
X9650120Y3139643D01*
X9647123Y3137408D01*
X9643516Y3136392D01*
X9639808Y3136798D01*
X9633762Y3138525D01*
X9617964Y3141268D01*
X9602012Y3142183D01*
X9586010Y3141268D01*
X9570262Y3138525D01*
X9564217Y3136798D01*
X9560509Y3136392D01*
X9556902Y3137408D01*
X9553905Y3139643D01*
X9551873Y3142843D01*
X9551212Y3146552D01*
X9551212Y3205175D01*
X9471355Y3205175D01*
X9478010Y3190595D01*
X9486290Y3176879D01*
X9496044Y3164179D01*
X9507220Y3152698D01*
X9519615Y3142589D01*
X9527286Y3137662D01*
X9530232Y3134766D01*
X9531807Y3130905D01*
X9531654Y3126740D01*
X9529876Y3122980D01*
X9526219Y3119932D01*
X9513265Y3110534D01*
X9501479Y3099714D01*
X9490964Y3087624D01*
X9481972Y3074416D01*
X9474504Y3060242D01*
X9468662Y3045307D01*
X9464598Y3029864D01*
X9462312Y3014014D01*
X9461855Y2998012D01*
X9463227Y2982061D01*
X9466427Y2966364D01*
X9471355Y2951124D01*
X9478010Y2936595D01*
X9486290Y2922879D01*
X9496044Y2910179D01*
X9507220Y2898698D01*
X9519615Y2888589D01*
X9527286Y2883662D01*
X9530232Y2880766D01*
X9531807Y2876905D01*
X9531654Y2872740D01*
X9529876Y2868980D01*
X9526219Y2865932D01*
X9513265Y2856534D01*
X9501479Y2845714D01*
X9490964Y2833624D01*
X9481972Y2820416D01*
X9474504Y2806242D01*
X9468662Y2791307D01*
X9464598Y2775864D01*
X9462312Y2760014D01*
X9461855Y2744012D01*
X9463227Y2728061D01*
X9466427Y2712364D01*
X9471355Y2697124D01*
X9478010Y2682595D01*
X9486290Y2668879D01*
X9496044Y2656179D01*
X9507220Y2644698D01*
X9519615Y2634589D01*
X9527286Y2629662D01*
X9530232Y2626766D01*
X9531807Y2622905D01*
X9531654Y2618740D01*
X9529876Y2614980D01*
X9526219Y2611932D01*
X9513265Y2602534D01*
X9501479Y2591714D01*
X9490964Y2579624D01*
X9481972Y2566416D01*
X9474504Y2552242D01*
X9468662Y2537307D01*
X9464598Y2521864D01*
X9462312Y2506014D01*
X9461855Y2490012D01*
X9463227Y2474061D01*
X9466427Y2458364D01*
X9471355Y2443124D01*
X9478010Y2428595D01*
X9486290Y2414879D01*
X9496044Y2402179D01*
X9507220Y2390698D01*
X9519615Y2380589D01*
X9527286Y2375662D01*
X9530232Y2372766D01*
X9531807Y2368905D01*
X9531654Y2364740D01*
X9529876Y2360980D01*
X9526219Y2357932D01*
X9513265Y2348534D01*
X9501479Y2337714D01*
X9490964Y2325624D01*
X9481972Y2312416D01*
X9474504Y2298242D01*
X9468662Y2283307D01*
X9464598Y2267864D01*
X9462312Y2252014D01*
X9461855Y2236012D01*
X9463227Y2220061D01*
X9466427Y2204364D01*
X9471355Y2189124D01*
X9478010Y2174595D01*
X9486290Y2160879D01*
X9496044Y2148179D01*
X9507220Y2136698D01*
X9519615Y2126589D01*
X9527286Y2121662D01*
X9530232Y2118766D01*
X9531807Y2114905D01*
X9531654Y2110740D01*
X9529876Y2106980D01*
X9526219Y2103932D01*
X9513265Y2094534D01*
X9501479Y2083714D01*
X9490964Y2071624D01*
X9481972Y2058416D01*
X9474504Y2044242D01*
X9468662Y2029307D01*
X9464598Y2013864D01*
X9462312Y1998014D01*
X9461855Y1982012D01*
X9463227Y1966061D01*
X9466427Y1950364D01*
X9471355Y1935124D01*
X9478010Y1920595D01*
X9486290Y1906879D01*
X9496044Y1894179D01*
X9507220Y1882698D01*
X9519615Y1872589D01*
X9527286Y1867662D01*
X9530232Y1864766D01*
X9531807Y1860905D01*
X9531654Y1856739D01*
X9529876Y1852980D01*
X9526219Y1849932D01*
X9513265Y1840534D01*
X9501479Y1829714D01*
X9490964Y1817624D01*
X9481972Y1804416D01*
X9474504Y1790242D01*
X9468662Y1775307D01*
X9464598Y1759864D01*
X9462312Y1744014D01*
X9461855Y1728012D01*
X9463227Y1712061D01*
X9466427Y1696364D01*
X9471355Y1681124D01*
X9478010Y1666595D01*
X9486290Y1652879D01*
X9496044Y1640179D01*
X9507220Y1628698D01*
X9519615Y1618589D01*
X9527286Y1613662D01*
X9530232Y1610766D01*
X9531807Y1606905D01*
X9531654Y1602740D01*
X9529876Y1598980D01*
X9526219Y1595932D01*
X9513265Y1586534D01*
X9501479Y1575714D01*
X9490964Y1563624D01*
X9481972Y1550416D01*
X9474504Y1536242D01*
X9468662Y1521307D01*
X9464598Y1505864D01*
X9462312Y1490014D01*
X9461855Y1474012D01*
X9463227Y1458061D01*
X9466427Y1442364D01*
X9471355Y1427124D01*
X9478010Y1412595D01*
X9486290Y1398879D01*
X9496044Y1386179D01*
X9507220Y1374698D01*
X9519615Y1364589D01*
X9527286Y1359662D01*
X9530232Y1356766D01*
X9531807Y1352905D01*
X9531654Y1348740D01*
X9529876Y1344980D01*
X9526219Y1341932D01*
X9513265Y1332534D01*
X9501479Y1321714D01*
X9490964Y1309624D01*
X9481972Y1296416D01*
X9474504Y1282242D01*
X9468662Y1267307D01*
X9464598Y1251864D01*
X9462312Y1236014D01*
X9461855Y1220012D01*
X9463227Y1204061D01*
X9466427Y1188364D01*
X9471355Y1173124D01*
X9478010Y1158595D01*
X9486290Y1144879D01*
X9496044Y1132179D01*
X9507220Y1120698D01*
X9519615Y1110589D01*
X9527286Y1105662D01*
X9530232Y1102766D01*
X9531807Y1098905D01*
X9531654Y1094740D01*
X9529876Y1090980D01*
X9526219Y1087932D01*
X9513265Y1078534D01*
X9501479Y1067714D01*
X9490964Y1055624D01*
X9481972Y1042416D01*
X9474504Y1028242D01*
X9468662Y1013307D01*
X9464598Y997864D01*
X9462312Y982014D01*
X9461855Y966012D01*
X9463227Y950061D01*
X9466427Y934364D01*
X9471355Y919124D01*
X9478010Y904595D01*
X9486290Y890879D01*
X9496044Y878179D01*
X9507220Y866698D01*
X9519615Y856589D01*
X9527286Y851662D01*
X9530232Y848766D01*
X9531807Y844905D01*
X9531654Y840740D01*
X9529876Y836980D01*
X9526219Y833932D01*
X9513265Y824534D01*
X9501479Y813714D01*
X9490964Y801624D01*
X9481972Y788416D01*
X9474504Y774242D01*
X9468662Y759307D01*
X9464598Y743864D01*
X9462312Y728014D01*
X9461855Y712012D01*
X9463227Y696061D01*
X9466427Y680364D01*
X9471355Y665124D01*
X9478010Y650595D01*
X9486290Y636879D01*
X9496044Y624179D01*
X9507220Y612698D01*
X9519615Y602589D01*
X9527286Y597662D01*
X9530232Y594766D01*
X9531807Y590905D01*
X9531654Y586740D01*
X9529876Y582980D01*
X9526219Y579932D01*
X9513265Y570534D01*
X9501479Y559714D01*
X9490964Y547624D01*
X9481972Y534416D01*
X9474504Y520242D01*
X9468662Y505307D01*
X9464598Y489864D01*
X9462312Y474014D01*
X9461855Y458012D01*
X9463227Y442061D01*
X9466427Y426364D01*
X9471355Y411124D01*
X9478010Y396595D01*
X9486290Y382879D01*
X9496044Y370179D01*
X9507220Y358698D01*
X9519615Y348589D01*
X9533077Y339953D01*
X9547453Y332841D01*
X9562490Y327507D01*
X9578086Y323850D01*
G37*
G36*
X8069986Y322021D02*
G01*
X8085988Y322021D01*
X8101888Y323850D01*
X8117484Y327507D01*
X8132572Y332841D01*
X8146948Y339953D01*
X8160410Y348589D01*
X8172805Y358698D01*
X8183930Y370179D01*
X8193735Y382879D01*
X8202015Y396595D01*
X8208619Y411124D01*
X8213598Y426364D01*
X8216747Y442061D01*
X8218119Y458012D01*
X8217662Y474014D01*
X8215426Y489864D01*
X8211312Y505307D01*
X8205520Y520242D01*
X8198053Y534416D01*
X8189010Y547624D01*
X8178546Y559714D01*
X8166760Y570534D01*
X8153247Y580237D01*
X8150098Y582980D01*
X8148320Y586740D01*
X8148218Y590905D01*
X8149793Y594766D01*
X8152739Y597662D01*
X8160410Y602589D01*
X8172805Y612698D01*
X8183930Y624179D01*
X8193735Y636879D01*
X8202015Y650595D01*
X8208619Y665124D01*
X8213598Y680364D01*
X8216747Y696061D01*
X8218119Y712012D01*
X8217662Y728014D01*
X8215426Y743864D01*
X8211312Y759307D01*
X8205520Y774242D01*
X8198053Y788416D01*
X8189010Y801624D01*
X8178546Y813714D01*
X8166760Y824534D01*
X8153247Y834237D01*
X8150098Y836980D01*
X8148320Y840740D01*
X8148218Y844905D01*
X8149793Y848766D01*
X8152739Y851662D01*
X8160410Y856589D01*
X8172805Y866698D01*
X8183930Y878179D01*
X8193735Y890879D01*
X8202015Y904595D01*
X8208619Y919124D01*
X8213598Y934364D01*
X8216747Y950061D01*
X8218119Y966012D01*
X8217662Y982014D01*
X8215426Y997864D01*
X8211312Y1013307D01*
X8205520Y1028242D01*
X8198053Y1042416D01*
X8189010Y1055624D01*
X8178546Y1067714D01*
X8166760Y1078534D01*
X8153247Y1088237D01*
X8150098Y1090980D01*
X8148320Y1094740D01*
X8148218Y1098905D01*
X8149793Y1102766D01*
X8152739Y1105662D01*
X8160410Y1110589D01*
X8172805Y1120698D01*
X8183930Y1132179D01*
X8193735Y1144879D01*
X8202015Y1158595D01*
X8208619Y1173124D01*
X8213598Y1188364D01*
X8216747Y1204061D01*
X8218119Y1220012D01*
X8217662Y1236014D01*
X8215426Y1251864D01*
X8211312Y1267307D01*
X8205520Y1282242D01*
X8198053Y1296416D01*
X8189010Y1309624D01*
X8178546Y1321714D01*
X8166760Y1332534D01*
X8153247Y1342237D01*
X8150098Y1344980D01*
X8148320Y1348740D01*
X8148218Y1352905D01*
X8149793Y1356766D01*
X8152739Y1359662D01*
X8160410Y1364589D01*
X8172805Y1374698D01*
X8183930Y1386179D01*
X8193735Y1398879D01*
X8202015Y1412595D01*
X8208619Y1427124D01*
X8213598Y1442364D01*
X8216747Y1458061D01*
X8218119Y1474012D01*
X8217662Y1490014D01*
X8215426Y1505864D01*
X8211312Y1521307D01*
X8205520Y1536242D01*
X8198053Y1550416D01*
X8189010Y1563624D01*
X8178546Y1575714D01*
X8166760Y1586534D01*
X8153247Y1596237D01*
X8150098Y1598980D01*
X8148320Y1602740D01*
X8148218Y1606905D01*
X8149793Y1610766D01*
X8152739Y1613662D01*
X8160410Y1618589D01*
X8172805Y1628698D01*
X8183930Y1640179D01*
X8193735Y1652879D01*
X8202015Y1666595D01*
X8208619Y1681124D01*
X8213598Y1696364D01*
X8216747Y1712061D01*
X8218119Y1728012D01*
X8217662Y1744014D01*
X8215426Y1759864D01*
X8211312Y1775307D01*
X8205520Y1790242D01*
X8198053Y1804416D01*
X8189010Y1817624D01*
X8178546Y1829714D01*
X8166760Y1840534D01*
X8153247Y1850237D01*
X8150098Y1852980D01*
X8148320Y1856739D01*
X8148218Y1860905D01*
X8149793Y1864766D01*
X8152739Y1867662D01*
X8160410Y1872589D01*
X8172805Y1882698D01*
X8183930Y1894179D01*
X8193735Y1906879D01*
X8202015Y1920595D01*
X8208619Y1935124D01*
X8213598Y1950364D01*
X8216747Y1966061D01*
X8218119Y1982012D01*
X8217662Y1998014D01*
X8215426Y2013864D01*
X8211312Y2029307D01*
X8205520Y2044242D01*
X8198053Y2058416D01*
X8189010Y2071624D01*
X8178546Y2083714D01*
X8166760Y2094534D01*
X8153247Y2104237D01*
X8150098Y2106980D01*
X8148320Y2110740D01*
X8148218Y2114905D01*
X8149793Y2118766D01*
X8152739Y2121662D01*
X8160410Y2126589D01*
X8172805Y2136698D01*
X8183930Y2148179D01*
X8193735Y2160879D01*
X8202015Y2174595D01*
X8208619Y2189124D01*
X8213598Y2204364D01*
X8216747Y2220061D01*
X8218119Y2236012D01*
X8217662Y2252014D01*
X8215426Y2267864D01*
X8211312Y2283307D01*
X8205520Y2298242D01*
X8198053Y2312416D01*
X8189010Y2325624D01*
X8178546Y2337714D01*
X8166760Y2348534D01*
X8153247Y2358237D01*
X8150098Y2360980D01*
X8148320Y2364740D01*
X8148218Y2368905D01*
X8149793Y2372766D01*
X8152739Y2375662D01*
X8160410Y2380589D01*
X8172805Y2390698D01*
X8183930Y2402179D01*
X8193735Y2414879D01*
X8202015Y2428595D01*
X8208619Y2443124D01*
X8213598Y2458364D01*
X8216747Y2474061D01*
X8218119Y2490012D01*
X8217662Y2506014D01*
X8215426Y2521864D01*
X8211312Y2537307D01*
X8205520Y2552242D01*
X8198053Y2566416D01*
X8189010Y2579624D01*
X8178546Y2591714D01*
X8166760Y2602534D01*
X8153247Y2612237D01*
X8150098Y2614980D01*
X8148320Y2618740D01*
X8148218Y2622905D01*
X8149793Y2626766D01*
X8152739Y2629662D01*
X8160410Y2634589D01*
X8172805Y2644698D01*
X8183930Y2656179D01*
X8193735Y2668879D01*
X8202015Y2682595D01*
X8208619Y2697124D01*
X8213598Y2712364D01*
X8216747Y2728061D01*
X8218119Y2744012D01*
X8217662Y2760014D01*
X8215426Y2775864D01*
X8211312Y2791307D01*
X8205520Y2806242D01*
X8198053Y2820416D01*
X8189010Y2833624D01*
X8178546Y2845714D01*
X8166760Y2856534D01*
X8153247Y2866237D01*
X8150098Y2868980D01*
X8148320Y2872740D01*
X8148218Y2876905D01*
X8149793Y2880766D01*
X8152739Y2883662D01*
X8160410Y2888589D01*
X8172805Y2898698D01*
X8183930Y2910179D01*
X8193735Y2922879D01*
X8202015Y2936595D01*
X8208619Y2951124D01*
X8213598Y2966364D01*
X8216747Y2982061D01*
X8218119Y2998012D01*
X8217662Y3014014D01*
X8215426Y3029864D01*
X8211312Y3045307D01*
X8205520Y3060242D01*
X8198053Y3074416D01*
X8189010Y3087624D01*
X8178546Y3099714D01*
X8166760Y3110534D01*
X8153247Y3120237D01*
X8150098Y3122980D01*
X8148320Y3126740D01*
X8148218Y3130905D01*
X8149793Y3134766D01*
X8152739Y3137662D01*
X8160410Y3142589D01*
X8172805Y3152698D01*
X8183930Y3164179D01*
X8193735Y3176879D01*
X8202015Y3190595D01*
X8208619Y3205124D01*
X8213598Y3220364D01*
X8216747Y3236061D01*
X8218119Y3252012D01*
X8217662Y3268014D01*
X8215426Y3283864D01*
X8211312Y3299307D01*
X8205520Y3314242D01*
X8198053Y3328415D01*
X8189010Y3341624D01*
X8178546Y3353714D01*
X8166760Y3364534D01*
X8153247Y3374237D01*
X8150098Y3376980D01*
X8148320Y3380740D01*
X8148218Y3384905D01*
X8149793Y3388766D01*
X8152739Y3391662D01*
X8160410Y3396589D01*
X8172805Y3406698D01*
X8183930Y3418179D01*
X8193735Y3430879D01*
X8202015Y3444595D01*
X8208619Y3459124D01*
X8213598Y3474364D01*
X8216747Y3490061D01*
X8218119Y3506012D01*
X8217662Y3522014D01*
X8215426Y3537864D01*
X8211312Y3553307D01*
X8205520Y3568242D01*
X8198053Y3582415D01*
X8189010Y3595624D01*
X8178546Y3607714D01*
X8166760Y3618534D01*
X8153247Y3628237D01*
X8150098Y3630980D01*
X8148320Y3634740D01*
X8148218Y3638905D01*
X8149793Y3642766D01*
X8152739Y3645662D01*
X8160410Y3650589D01*
X8172805Y3660698D01*
X8183930Y3672179D01*
X8193735Y3684879D01*
X8202015Y3698595D01*
X8208670Y3713175D01*
X8128812Y3713175D01*
X8128812Y3654551D01*
X8128101Y3650843D01*
X8126120Y3647643D01*
X8123123Y3645408D01*
X8119516Y3644392D01*
X8115808Y3644798D01*
X8109762Y3646525D01*
X8093964Y3649268D01*
X8078012Y3650183D01*
X8062010Y3649268D01*
X8046262Y3646525D01*
X8040217Y3644798D01*
X8036509Y3644392D01*
X8032902Y3645408D01*
X8029905Y3647643D01*
X8027873Y3650843D01*
X8027212Y3654551D01*
X8027212Y3713175D01*
X7947355Y3713175D01*
X7954009Y3698595D01*
X7962290Y3684879D01*
X7972044Y3672179D01*
X7983220Y3660698D01*
X7995615Y3650589D01*
X8003286Y3645662D01*
X8006232Y3642766D01*
X8007807Y3638905D01*
X8007654Y3634740D01*
X8005876Y3630980D01*
X8002219Y3627932D01*
X7989265Y3618534D01*
X7977479Y3607714D01*
X7966964Y3595624D01*
X7957972Y3582415D01*
X7950504Y3568242D01*
X7944662Y3553307D01*
X7940598Y3537864D01*
X7938312Y3522014D01*
X7937855Y3506012D01*
X7939227Y3490061D01*
X7942427Y3474364D01*
X7947355Y3459124D01*
X7954009Y3444595D01*
X7962290Y3430879D01*
X7972044Y3418179D01*
X7983220Y3406698D01*
X7995615Y3396589D01*
X8003286Y3391662D01*
X8006232Y3388766D01*
X8007807Y3384905D01*
X8007654Y3380740D01*
X8005876Y3376980D01*
X8002219Y3373932D01*
X7989265Y3364534D01*
X7977479Y3353714D01*
X7966964Y3341624D01*
X7957972Y3328415D01*
X7950504Y3314242D01*
X7944662Y3299307D01*
X7940598Y3283864D01*
X7938312Y3268014D01*
X7937855Y3252012D01*
X7939227Y3236061D01*
X7942427Y3220364D01*
X7947355Y3205124D01*
X7954009Y3190595D01*
X7962290Y3176879D01*
X7972044Y3164179D01*
X7983220Y3152698D01*
X7995615Y3142589D01*
X8003286Y3137662D01*
X8006232Y3134766D01*
X8007807Y3130905D01*
X8007654Y3126740D01*
X8005876Y3122980D01*
X8002219Y3119932D01*
X7989265Y3110534D01*
X7977479Y3099714D01*
X7966964Y3087624D01*
X7957972Y3074416D01*
X7950504Y3060242D01*
X7944662Y3045307D01*
X7940598Y3029864D01*
X7938312Y3014014D01*
X7937855Y2998012D01*
X7939227Y2982061D01*
X7942427Y2966364D01*
X7947355Y2951124D01*
X7954009Y2936595D01*
X7962290Y2922879D01*
X7972044Y2910179D01*
X7983220Y2898698D01*
X7995615Y2888589D01*
X8003286Y2883662D01*
X8006232Y2880766D01*
X8007807Y2876905D01*
X8007654Y2872740D01*
X8005876Y2868980D01*
X8002219Y2865932D01*
X7989265Y2856534D01*
X7977479Y2845714D01*
X7966964Y2833624D01*
X7957972Y2820416D01*
X7950504Y2806242D01*
X7944662Y2791307D01*
X7940598Y2775864D01*
X7938312Y2760014D01*
X7937855Y2744012D01*
X7939227Y2728061D01*
X7942427Y2712364D01*
X7947355Y2697124D01*
X7954009Y2682595D01*
X7962290Y2668879D01*
X7972044Y2656179D01*
X7983220Y2644698D01*
X7995615Y2634589D01*
X8003286Y2629662D01*
X8006232Y2626766D01*
X8007807Y2622905D01*
X8007654Y2618740D01*
X8005876Y2614980D01*
X8002219Y2611932D01*
X7989265Y2602534D01*
X7977479Y2591714D01*
X7966964Y2579624D01*
X7957972Y2566416D01*
X7950504Y2552242D01*
X7944662Y2537307D01*
X7940598Y2521864D01*
X7938312Y2506014D01*
X7937855Y2490012D01*
X7939227Y2474061D01*
X7942427Y2458364D01*
X7947355Y2443124D01*
X7954009Y2428595D01*
X7962290Y2414879D01*
X7972044Y2402179D01*
X7983220Y2390698D01*
X7995615Y2380589D01*
X8003286Y2375662D01*
X8006232Y2372766D01*
X8007807Y2368905D01*
X8007654Y2364740D01*
X8005876Y2360980D01*
X8002219Y2357932D01*
X7989265Y2348534D01*
X7977479Y2337714D01*
X7966964Y2325624D01*
X7957972Y2312416D01*
X7950504Y2298242D01*
X7944662Y2283307D01*
X7940598Y2267864D01*
X7938312Y2252014D01*
X7937855Y2236012D01*
X7939227Y2220061D01*
X7942427Y2204364D01*
X7947355Y2189124D01*
X7954009Y2174595D01*
X7962290Y2160879D01*
X7972044Y2148179D01*
X7983220Y2136698D01*
X7995615Y2126589D01*
X8003286Y2121662D01*
X8006232Y2118766D01*
X8007807Y2114905D01*
X8007654Y2110740D01*
X8005876Y2106980D01*
X8002219Y2103932D01*
X7989265Y2094534D01*
X7977479Y2083714D01*
X7966964Y2071624D01*
X7957972Y2058416D01*
X7950504Y2044242D01*
X7944662Y2029307D01*
X7940598Y2013864D01*
X7938312Y1998014D01*
X7937855Y1982012D01*
X7939227Y1966061D01*
X7942427Y1950364D01*
X7947355Y1935124D01*
X7954009Y1920595D01*
X7962290Y1906879D01*
X7972044Y1894179D01*
X7983220Y1882698D01*
X7995615Y1872589D01*
X8003286Y1867662D01*
X8006232Y1864766D01*
X8007807Y1860905D01*
X8007654Y1856739D01*
X8005876Y1852980D01*
X8002219Y1849932D01*
X7989265Y1840534D01*
X7977479Y1829714D01*
X7966964Y1817624D01*
X7957972Y1804416D01*
X7950504Y1790242D01*
X7944662Y1775307D01*
X7940598Y1759864D01*
X7938312Y1744014D01*
X7937855Y1728012D01*
X7939227Y1712061D01*
X7942427Y1696364D01*
X7947355Y1681124D01*
X7954009Y1666595D01*
X7962290Y1652879D01*
X7972044Y1640179D01*
X7983220Y1628698D01*
X7995615Y1618589D01*
X8003286Y1613662D01*
X8006232Y1610766D01*
X8007807Y1606905D01*
X8007654Y1602740D01*
X8005876Y1598980D01*
X8002219Y1595932D01*
X7989265Y1586534D01*
X7977479Y1575714D01*
X7966964Y1563624D01*
X7957972Y1550416D01*
X7950504Y1536242D01*
X7944662Y1521307D01*
X7940598Y1505864D01*
X7938312Y1490014D01*
X7937855Y1474012D01*
X7939227Y1458061D01*
X7942427Y1442364D01*
X7947355Y1427124D01*
X7954009Y1412595D01*
X7962290Y1398879D01*
X7972044Y1386179D01*
X7983220Y1374698D01*
X7995615Y1364589D01*
X8003286Y1359662D01*
X8006232Y1356766D01*
X8007807Y1352905D01*
X8007654Y1348740D01*
X8005876Y1344980D01*
X8002219Y1341932D01*
X7989265Y1332534D01*
X7977479Y1321714D01*
X7966964Y1309624D01*
X7957972Y1296416D01*
X7950504Y1282242D01*
X7944662Y1267307D01*
X7940598Y1251864D01*
X7938312Y1236014D01*
X7937855Y1220012D01*
X7939227Y1204061D01*
X7942427Y1188364D01*
X7947355Y1173124D01*
X7954009Y1158595D01*
X7962290Y1144879D01*
X7972044Y1132179D01*
X7983220Y1120698D01*
X7995615Y1110589D01*
X8003286Y1105662D01*
X8006232Y1102766D01*
X8007807Y1098905D01*
X8007654Y1094740D01*
X8005876Y1090980D01*
X8002219Y1087932D01*
X7989265Y1078534D01*
X7977479Y1067714D01*
X7966964Y1055624D01*
X7957972Y1042416D01*
X7950504Y1028242D01*
X7944662Y1013307D01*
X7940598Y997864D01*
X7938312Y982014D01*
X7937855Y966012D01*
X7939227Y950061D01*
X7942427Y934364D01*
X7947355Y919124D01*
X7954009Y904595D01*
X7962290Y890879D01*
X7972044Y878179D01*
X7983220Y866698D01*
X7995615Y856589D01*
X8003286Y851662D01*
X8006232Y848766D01*
X8007807Y844905D01*
X8007654Y840740D01*
X8005876Y836980D01*
X8002219Y833932D01*
X7989265Y824534D01*
X7977479Y813714D01*
X7966964Y801624D01*
X7957972Y788416D01*
X7950504Y774242D01*
X7944662Y759307D01*
X7940598Y743864D01*
X7938312Y728014D01*
X7937855Y712012D01*
X7939227Y696061D01*
X7942427Y680364D01*
X7947355Y665124D01*
X7954009Y650595D01*
X7962290Y636879D01*
X7972044Y624179D01*
X7983220Y612698D01*
X7995615Y602589D01*
X8003286Y597662D01*
X8006232Y594766D01*
X8007807Y590905D01*
X8007654Y586740D01*
X8005876Y582980D01*
X8002219Y579932D01*
X7989265Y570534D01*
X7977479Y559714D01*
X7966964Y547624D01*
X7957972Y534416D01*
X7950504Y520242D01*
X7944662Y505307D01*
X7940598Y489864D01*
X7938312Y474014D01*
X7937855Y458012D01*
X7939227Y442061D01*
X7942427Y426364D01*
X7947355Y411124D01*
X7954009Y396595D01*
X7962290Y382879D01*
X7972044Y370179D01*
X7983220Y358698D01*
X7995615Y348589D01*
X8009077Y339953D01*
X8023453Y332841D01*
X8038490Y327507D01*
X8054086Y323850D01*
G37*
G36*
X11982958Y717702D02*
G01*
X12000839Y718667D01*
X12018568Y721461D01*
X12035891Y726084D01*
X12052604Y732536D01*
X12068606Y740664D01*
X12083643Y750417D01*
X12097562Y761695D01*
X12110262Y774395D01*
X12121540Y788314D01*
X12131294Y803351D01*
X12139422Y819353D01*
X12145873Y836066D01*
X12150496Y853389D01*
X12153290Y871118D01*
X12154255Y889000D01*
X12153290Y906881D01*
X12150496Y924610D01*
X12145873Y941933D01*
X12139422Y958646D01*
X12131294Y974648D01*
X12121540Y989685D01*
X12110262Y1003604D01*
X12097562Y1016304D01*
X12083643Y1027582D01*
X12068606Y1037336D01*
X12052604Y1045464D01*
X12035891Y1051915D01*
X12018568Y1056538D01*
X12000839Y1059332D01*
X11982958Y1060297D01*
X11965025Y1059332D01*
X11947347Y1056538D01*
X11930024Y1051915D01*
X11913260Y1045464D01*
X11897309Y1037336D01*
X11882272Y1027582D01*
X11868353Y1016304D01*
X11855653Y1003604D01*
X11844375Y989685D01*
X11834622Y974648D01*
X11826443Y958646D01*
X11820042Y941933D01*
X11815419Y924610D01*
X11812574Y906881D01*
X11811660Y889000D01*
X11812574Y871118D01*
X11815419Y853389D01*
X11820042Y836066D01*
X11826443Y819353D01*
X11834622Y803351D01*
X11844375Y788314D01*
X11855653Y774395D01*
X11868353Y761695D01*
X11882272Y750417D01*
X11897309Y740664D01*
X11913260Y732536D01*
X11930024Y726084D01*
X11947347Y721461D01*
X11965025Y718667D01*
G37*
G36*
X10556595Y731215D02*
G01*
X10556595Y822655D01*
X10465206Y822655D01*
X10466476Y819353D01*
X10474604Y803351D01*
X10484358Y788314D01*
X10495635Y774395D01*
X10508335Y761695D01*
X10522254Y750417D01*
X10537291Y740664D01*
X10553293Y732536D01*
G37*
G36*
X10689285Y731215D02*
G01*
X10692638Y732536D01*
X10708589Y740664D01*
X10723626Y750417D01*
X10737545Y761695D01*
X10750245Y774395D01*
X10761522Y788314D01*
X10771276Y803351D01*
X10779455Y819353D01*
X10780725Y822655D01*
X10689285Y822655D01*
G37*
G36*
X10465206Y955344D02*
G01*
X10556595Y955344D01*
X10556595Y1046784D01*
X10553293Y1045464D01*
X10537291Y1037336D01*
X10522254Y1027582D01*
X10508335Y1016304D01*
X10495635Y1003604D01*
X10484358Y989685D01*
X10474604Y974648D01*
X10466476Y958646D01*
G37*
G36*
X10689285Y955344D02*
G01*
X10780725Y955344D01*
X10779455Y958646D01*
X10771276Y974648D01*
X10761522Y989685D01*
X10750245Y1003604D01*
X10737545Y1016304D01*
X10723626Y1027582D01*
X10708589Y1037336D01*
X10692638Y1045464D01*
X10689285Y1046784D01*
G37*
G36*
X10327132Y1283411D02*
G01*
X10526268Y1283411D01*
X10535615Y1284224D01*
X10544251Y1286510D01*
X10552328Y1290320D01*
X10559643Y1295450D01*
X10565993Y1301750D01*
X10571124Y1309065D01*
X10574883Y1317142D01*
X10577169Y1325778D01*
X10578033Y1335125D01*
X10578033Y1484274D01*
X10577169Y1493621D01*
X10574883Y1502257D01*
X10571124Y1510334D01*
X10565993Y1517650D01*
X10559643Y1523949D01*
X10552328Y1529080D01*
X10544251Y1532890D01*
X10535615Y1535176D01*
X10526268Y1535988D01*
X10520578Y1535988D01*
X10516311Y1536954D01*
X10512856Y1539595D01*
X10510774Y1543456D01*
X10510570Y1547774D01*
X10512145Y1551838D01*
X10515346Y1554886D01*
X10523423Y1559763D01*
X10535462Y1569161D01*
X10546232Y1579930D01*
X10555630Y1591970D01*
X10563504Y1605026D01*
X10569803Y1618894D01*
X10574324Y1633474D01*
X10577068Y1648460D01*
X10577982Y1663700D01*
X10577068Y1678939D01*
X10574324Y1693925D01*
X10569803Y1708505D01*
X10563504Y1722374D01*
X10555630Y1735429D01*
X10546232Y1747469D01*
X10535462Y1758238D01*
X10523423Y1767636D01*
X10510367Y1775510D01*
X10497261Y1781454D01*
X10494111Y1783638D01*
X10491978Y1786889D01*
X10491266Y1790700D01*
X10491978Y1794510D01*
X10494111Y1797761D01*
X10497261Y1799945D01*
X10510367Y1805889D01*
X10523423Y1813763D01*
X10535462Y1823161D01*
X10546232Y1833930D01*
X10555630Y1845970D01*
X10563504Y1859025D01*
X10569803Y1872894D01*
X10574324Y1887474D01*
X10577068Y1902460D01*
X10577982Y1917700D01*
X10577068Y1932939D01*
X10574324Y1947925D01*
X10569803Y1962505D01*
X10563504Y1976374D01*
X10555630Y1989429D01*
X10546232Y2001469D01*
X10535462Y2012238D01*
X10523423Y2021636D01*
X10510367Y2029510D01*
X10497261Y2035454D01*
X10494111Y2037638D01*
X10491978Y2040889D01*
X10491266Y2044700D01*
X10491978Y2048510D01*
X10494111Y2051761D01*
X10497261Y2053945D01*
X10510367Y2059889D01*
X10523423Y2067763D01*
X10535462Y2077161D01*
X10546232Y2087930D01*
X10555630Y2099970D01*
X10563504Y2113026D01*
X10569803Y2126894D01*
X10574324Y2141474D01*
X10577068Y2156460D01*
X10577982Y2171700D01*
X10577068Y2186940D01*
X10574324Y2201926D01*
X10569803Y2216505D01*
X10563504Y2230374D01*
X10555630Y2243429D01*
X10546232Y2255469D01*
X10535462Y2266238D01*
X10523423Y2275636D01*
X10510367Y2283510D01*
X10497261Y2289454D01*
X10494111Y2291638D01*
X10491978Y2294890D01*
X10491266Y2298700D01*
X10491978Y2302510D01*
X10494111Y2305761D01*
X10497261Y2307945D01*
X10510367Y2313889D01*
X10523423Y2321763D01*
X10535462Y2331161D01*
X10546232Y2341930D01*
X10555630Y2353970D01*
X10563504Y2367026D01*
X10569803Y2380894D01*
X10574324Y2395474D01*
X10577068Y2410460D01*
X10577982Y2425700D01*
X10577068Y2440940D01*
X10574324Y2455926D01*
X10569803Y2470505D01*
X10563504Y2484374D01*
X10555630Y2497429D01*
X10546232Y2509469D01*
X10535462Y2520238D01*
X10523423Y2529636D01*
X10510367Y2537510D01*
X10497261Y2543454D01*
X10494111Y2545638D01*
X10491978Y2548890D01*
X10491266Y2552700D01*
X10491978Y2556510D01*
X10494111Y2559761D01*
X10497261Y2561945D01*
X10510367Y2567889D01*
X10523423Y2575763D01*
X10535462Y2585161D01*
X10546232Y2595930D01*
X10555630Y2607970D01*
X10563504Y2621026D01*
X10569803Y2634894D01*
X10574324Y2649474D01*
X10577068Y2664460D01*
X10577982Y2679700D01*
X10577068Y2694940D01*
X10574324Y2709926D01*
X10569803Y2724505D01*
X10563504Y2738374D01*
X10555630Y2751429D01*
X10546232Y2763469D01*
X10535462Y2774238D01*
X10523423Y2783636D01*
X10510367Y2791510D01*
X10497261Y2797454D01*
X10494111Y2799638D01*
X10491978Y2802890D01*
X10491266Y2806700D01*
X10491978Y2810510D01*
X10494111Y2813761D01*
X10497261Y2815945D01*
X10510367Y2821889D01*
X10523423Y2829763D01*
X10535462Y2839161D01*
X10546232Y2849930D01*
X10555630Y2861970D01*
X10563504Y2875026D01*
X10569803Y2888894D01*
X10574324Y2903474D01*
X10577068Y2918460D01*
X10577982Y2933700D01*
X10577068Y2948940D01*
X10574324Y2963926D01*
X10569803Y2978505D01*
X10563504Y2992374D01*
X10555630Y3005429D01*
X10546232Y3017469D01*
X10535462Y3028238D01*
X10523423Y3037636D01*
X10510367Y3045510D01*
X10497261Y3051454D01*
X10494111Y3053638D01*
X10491978Y3056890D01*
X10491266Y3060700D01*
X10491978Y3064510D01*
X10494111Y3067761D01*
X10497261Y3069945D01*
X10510367Y3075889D01*
X10523423Y3083763D01*
X10535462Y3093161D01*
X10546232Y3103930D01*
X10555630Y3115970D01*
X10563504Y3129026D01*
X10569803Y3142894D01*
X10570057Y3143859D01*
X10483037Y3143859D01*
X10483037Y3068320D01*
X10482072Y3064002D01*
X10479379Y3060496D01*
X10475468Y3058464D01*
X10471048Y3058312D01*
X10466933Y3059074D01*
X10451388Y3059988D01*
X10402011Y3059988D01*
X10386466Y3059074D01*
X10382351Y3058312D01*
X10377932Y3058464D01*
X10374020Y3060496D01*
X10371328Y3064002D01*
X10370362Y3068320D01*
X10370362Y3143859D01*
X10283342Y3143859D01*
X10283596Y3142894D01*
X10289895Y3129026D01*
X10297769Y3115970D01*
X10307167Y3103930D01*
X10317937Y3093161D01*
X10329976Y3083763D01*
X10343032Y3075889D01*
X10356138Y3069945D01*
X10359288Y3067761D01*
X10361422Y3064510D01*
X10362133Y3060700D01*
X10361422Y3056890D01*
X10359288Y3053638D01*
X10356138Y3051454D01*
X10343032Y3045510D01*
X10329976Y3037636D01*
X10317937Y3028238D01*
X10307167Y3017469D01*
X10297769Y3005429D01*
X10289895Y2992374D01*
X10283596Y2978505D01*
X10279075Y2963926D01*
X10276332Y2948940D01*
X10275417Y2933700D01*
X10276332Y2918460D01*
X10279075Y2903474D01*
X10283596Y2888894D01*
X10289895Y2875026D01*
X10297769Y2861970D01*
X10307167Y2849930D01*
X10317937Y2839161D01*
X10329976Y2829763D01*
X10343032Y2821889D01*
X10356138Y2815945D01*
X10359288Y2813761D01*
X10361422Y2810510D01*
X10362133Y2806700D01*
X10361422Y2802890D01*
X10359288Y2799638D01*
X10356138Y2797454D01*
X10343032Y2791510D01*
X10329976Y2783636D01*
X10317937Y2774238D01*
X10307167Y2763469D01*
X10297769Y2751429D01*
X10289895Y2738374D01*
X10283596Y2724505D01*
X10279075Y2709926D01*
X10276332Y2694940D01*
X10275417Y2679700D01*
X10276332Y2664460D01*
X10279075Y2649474D01*
X10283596Y2634894D01*
X10289895Y2621026D01*
X10297769Y2607970D01*
X10307167Y2595930D01*
X10317937Y2585161D01*
X10329976Y2575763D01*
X10343032Y2567889D01*
X10356138Y2561945D01*
X10359288Y2559761D01*
X10361422Y2556510D01*
X10362133Y2552700D01*
X10361422Y2548890D01*
X10359288Y2545638D01*
X10356138Y2543454D01*
X10343032Y2537510D01*
X10329976Y2529636D01*
X10317937Y2520238D01*
X10307167Y2509469D01*
X10297769Y2497429D01*
X10289895Y2484374D01*
X10283596Y2470505D01*
X10279075Y2455926D01*
X10276332Y2440940D01*
X10275417Y2425700D01*
X10276332Y2410460D01*
X10279075Y2395474D01*
X10283596Y2380894D01*
X10289895Y2367026D01*
X10297769Y2353970D01*
X10307167Y2341930D01*
X10317937Y2331161D01*
X10329976Y2321763D01*
X10343032Y2313889D01*
X10356138Y2307945D01*
X10359288Y2305761D01*
X10361422Y2302510D01*
X10362133Y2298700D01*
X10361422Y2294890D01*
X10359288Y2291638D01*
X10356138Y2289454D01*
X10343032Y2283510D01*
X10329976Y2275636D01*
X10317937Y2266238D01*
X10307167Y2255469D01*
X10297769Y2243429D01*
X10289895Y2230374D01*
X10283596Y2216505D01*
X10279075Y2201926D01*
X10276332Y2186940D01*
X10275417Y2171700D01*
X10276332Y2156460D01*
X10279075Y2141474D01*
X10283596Y2126894D01*
X10289895Y2113026D01*
X10297769Y2099970D01*
X10307167Y2087930D01*
X10317937Y2077161D01*
X10329976Y2067763D01*
X10343032Y2059889D01*
X10356138Y2053945D01*
X10359288Y2051761D01*
X10361422Y2048510D01*
X10362133Y2044700D01*
X10361422Y2040889D01*
X10359288Y2037638D01*
X10356138Y2035454D01*
X10343032Y2029510D01*
X10329976Y2021636D01*
X10317937Y2012238D01*
X10307167Y2001469D01*
X10297769Y1989429D01*
X10289895Y1976374D01*
X10283596Y1962505D01*
X10279075Y1947925D01*
X10276332Y1932939D01*
X10275417Y1917700D01*
X10276332Y1902460D01*
X10279075Y1887474D01*
X10283596Y1872894D01*
X10289895Y1859025D01*
X10297769Y1845970D01*
X10307167Y1833930D01*
X10317937Y1823161D01*
X10329976Y1813763D01*
X10343032Y1805889D01*
X10356138Y1799945D01*
X10359288Y1797761D01*
X10361422Y1794510D01*
X10362133Y1790700D01*
X10361422Y1786889D01*
X10359288Y1783638D01*
X10356138Y1781454D01*
X10343032Y1775510D01*
X10329976Y1767636D01*
X10317937Y1758238D01*
X10307167Y1747469D01*
X10297769Y1735429D01*
X10289895Y1722374D01*
X10283596Y1708505D01*
X10279075Y1693925D01*
X10276332Y1678939D01*
X10275417Y1663700D01*
X10276332Y1648460D01*
X10279075Y1633474D01*
X10283596Y1618894D01*
X10289895Y1605026D01*
X10297769Y1591970D01*
X10307167Y1579930D01*
X10317937Y1569161D01*
X10329976Y1559763D01*
X10338054Y1554886D01*
X10341254Y1551838D01*
X10342829Y1547774D01*
X10342626Y1543456D01*
X10340543Y1539595D01*
X10337088Y1536954D01*
X10332821Y1535988D01*
X10327132Y1535988D01*
X10317784Y1535176D01*
X10309148Y1532890D01*
X10301071Y1529080D01*
X10293756Y1523949D01*
X10287406Y1517650D01*
X10282275Y1510334D01*
X10278516Y1502257D01*
X10276230Y1493621D01*
X10275417Y1484274D01*
X10275417Y1335125D01*
X10276230Y1325778D01*
X10278516Y1317142D01*
X10282275Y1309065D01*
X10287406Y1301750D01*
X10293756Y1295450D01*
X10301071Y1290320D01*
X10309148Y1286510D01*
X10317784Y1284224D01*
G37*
G36*
X11164011Y1283411D02*
G01*
X11213388Y1283411D01*
X11228933Y1284325D01*
X11243919Y1287068D01*
X11258499Y1291640D01*
X11272367Y1297889D01*
X11285423Y1305763D01*
X11297462Y1315161D01*
X11308232Y1325930D01*
X11317630Y1337970D01*
X11325504Y1351026D01*
X11331803Y1364894D01*
X11336324Y1379474D01*
X11339068Y1394460D01*
X11339982Y1409700D01*
X11339068Y1424940D01*
X11336324Y1439926D01*
X11331803Y1454505D01*
X11325504Y1468374D01*
X11317630Y1481429D01*
X11308232Y1493469D01*
X11297462Y1504238D01*
X11285423Y1513636D01*
X11272367Y1521510D01*
X11259261Y1527454D01*
X11256111Y1529638D01*
X11253978Y1532890D01*
X11253266Y1536700D01*
X11253978Y1540510D01*
X11256111Y1543761D01*
X11259261Y1545945D01*
X11272367Y1551889D01*
X11285423Y1559763D01*
X11297462Y1569161D01*
X11308232Y1579930D01*
X11317630Y1591970D01*
X11325504Y1605026D01*
X11331803Y1618894D01*
X11336324Y1633474D01*
X11339068Y1648460D01*
X11339982Y1663700D01*
X11339068Y1678939D01*
X11336324Y1693925D01*
X11331803Y1708505D01*
X11325504Y1722374D01*
X11317630Y1735429D01*
X11308232Y1747469D01*
X11297462Y1758238D01*
X11285423Y1767636D01*
X11272367Y1775510D01*
X11259261Y1781454D01*
X11256111Y1783638D01*
X11253978Y1786889D01*
X11253266Y1790700D01*
X11253978Y1794510D01*
X11256111Y1797761D01*
X11259261Y1799945D01*
X11272367Y1805889D01*
X11285423Y1813763D01*
X11297462Y1823161D01*
X11308232Y1833930D01*
X11317630Y1845970D01*
X11325504Y1859025D01*
X11331803Y1872894D01*
X11336324Y1887474D01*
X11339068Y1902460D01*
X11339982Y1917700D01*
X11339068Y1932939D01*
X11336324Y1947925D01*
X11331803Y1962505D01*
X11325504Y1976374D01*
X11317630Y1989429D01*
X11308232Y2001469D01*
X11297462Y2012238D01*
X11285423Y2021636D01*
X11272367Y2029510D01*
X11259261Y2035454D01*
X11256111Y2037638D01*
X11253978Y2040889D01*
X11253266Y2044700D01*
X11253978Y2048510D01*
X11256111Y2051761D01*
X11259261Y2053945D01*
X11272367Y2059889D01*
X11285423Y2067763D01*
X11297462Y2077161D01*
X11308232Y2087930D01*
X11317630Y2099970D01*
X11325504Y2113026D01*
X11331803Y2126894D01*
X11336324Y2141474D01*
X11339068Y2156460D01*
X11339982Y2171700D01*
X11339068Y2186940D01*
X11336324Y2201926D01*
X11331803Y2216505D01*
X11325504Y2230374D01*
X11317630Y2243429D01*
X11308232Y2255469D01*
X11297462Y2266238D01*
X11285423Y2275636D01*
X11272367Y2283510D01*
X11259261Y2289454D01*
X11256111Y2291638D01*
X11253978Y2294890D01*
X11253266Y2298700D01*
X11253978Y2302510D01*
X11256111Y2305761D01*
X11259261Y2307945D01*
X11272367Y2313889D01*
X11285423Y2321763D01*
X11297462Y2331161D01*
X11308232Y2341930D01*
X11317630Y2353970D01*
X11325504Y2367026D01*
X11331803Y2380894D01*
X11336324Y2395474D01*
X11339068Y2410460D01*
X11339982Y2425700D01*
X11339068Y2440940D01*
X11336324Y2455926D01*
X11331803Y2470505D01*
X11325504Y2484374D01*
X11317630Y2497429D01*
X11308232Y2509469D01*
X11297462Y2520238D01*
X11285423Y2529636D01*
X11272367Y2537510D01*
X11259261Y2543454D01*
X11256111Y2545638D01*
X11253978Y2548890D01*
X11253266Y2552700D01*
X11253978Y2556510D01*
X11256111Y2559761D01*
X11259261Y2561945D01*
X11272367Y2567889D01*
X11285423Y2575763D01*
X11297462Y2585161D01*
X11308232Y2595930D01*
X11317630Y2607970D01*
X11325504Y2621026D01*
X11331803Y2634894D01*
X11336324Y2649474D01*
X11339068Y2664460D01*
X11339982Y2679700D01*
X11339068Y2694940D01*
X11336324Y2709926D01*
X11331803Y2724505D01*
X11325504Y2738374D01*
X11317630Y2751429D01*
X11308232Y2763469D01*
X11297462Y2774238D01*
X11285423Y2783636D01*
X11272367Y2791510D01*
X11259261Y2797454D01*
X11256111Y2799638D01*
X11253978Y2802890D01*
X11253266Y2806700D01*
X11253978Y2810510D01*
X11256111Y2813761D01*
X11259261Y2815945D01*
X11272367Y2821889D01*
X11285423Y2829763D01*
X11297462Y2839161D01*
X11308232Y2849930D01*
X11317630Y2861970D01*
X11325504Y2875026D01*
X11331803Y2888894D01*
X11336324Y2903474D01*
X11339068Y2918460D01*
X11339982Y2933700D01*
X11339068Y2948940D01*
X11336324Y2963926D01*
X11331803Y2978505D01*
X11325504Y2992374D01*
X11317630Y3005429D01*
X11308232Y3017469D01*
X11297462Y3028238D01*
X11285423Y3037636D01*
X11272367Y3045510D01*
X11259261Y3051454D01*
X11256111Y3053638D01*
X11253978Y3056890D01*
X11253266Y3060700D01*
X11253978Y3064510D01*
X11256111Y3067761D01*
X11259261Y3069945D01*
X11272367Y3075889D01*
X11285423Y3083763D01*
X11297462Y3093161D01*
X11308232Y3103930D01*
X11317630Y3115970D01*
X11325504Y3129026D01*
X11331803Y3142894D01*
X11336324Y3157474D01*
X11339068Y3172460D01*
X11339982Y3187700D01*
X11339068Y3202940D01*
X11336324Y3217926D01*
X11331803Y3232505D01*
X11325504Y3246374D01*
X11317630Y3259429D01*
X11308232Y3271469D01*
X11297462Y3282238D01*
X11285423Y3291636D01*
X11272367Y3299510D01*
X11258499Y3305759D01*
X11243919Y3310331D01*
X11228933Y3313074D01*
X11213388Y3313988D01*
X11164011Y3313988D01*
X11148466Y3313074D01*
X11133480Y3310331D01*
X11118900Y3305759D01*
X11105032Y3299510D01*
X11091976Y3291636D01*
X11079937Y3282238D01*
X11069167Y3271469D01*
X11059769Y3259429D01*
X11051895Y3246374D01*
X11045596Y3232505D01*
X11041075Y3217926D01*
X11038332Y3202940D01*
X11037417Y3187700D01*
X11038332Y3172460D01*
X11041075Y3157474D01*
X11045596Y3142894D01*
X11051895Y3129026D01*
X11059769Y3115970D01*
X11069167Y3103930D01*
X11079937Y3093161D01*
X11091976Y3083763D01*
X11105032Y3075889D01*
X11118138Y3069945D01*
X11121288Y3067761D01*
X11123422Y3064510D01*
X11124133Y3060700D01*
X11123422Y3056890D01*
X11121288Y3053638D01*
X11118138Y3051454D01*
X11105032Y3045510D01*
X11091976Y3037636D01*
X11079937Y3028238D01*
X11069167Y3017469D01*
X11059769Y3005429D01*
X11051895Y2992374D01*
X11045596Y2978505D01*
X11041075Y2963926D01*
X11038332Y2948940D01*
X11037417Y2933700D01*
X11038332Y2918460D01*
X11041075Y2903474D01*
X11045596Y2888894D01*
X11051895Y2875026D01*
X11059769Y2861970D01*
X11069167Y2849930D01*
X11079937Y2839161D01*
X11091976Y2829763D01*
X11105032Y2821889D01*
X11118138Y2815945D01*
X11121288Y2813761D01*
X11123422Y2810510D01*
X11124133Y2806700D01*
X11123422Y2802890D01*
X11121288Y2799638D01*
X11118138Y2797454D01*
X11105032Y2791510D01*
X11091976Y2783636D01*
X11079937Y2774238D01*
X11069167Y2763469D01*
X11059769Y2751429D01*
X11051895Y2738374D01*
X11045596Y2724505D01*
X11041075Y2709926D01*
X11038332Y2694940D01*
X11037417Y2679700D01*
X11038332Y2664460D01*
X11041075Y2649474D01*
X11045596Y2634894D01*
X11051895Y2621026D01*
X11059769Y2607970D01*
X11069167Y2595930D01*
X11079937Y2585161D01*
X11091976Y2575763D01*
X11105032Y2567889D01*
X11118138Y2561945D01*
X11121288Y2559761D01*
X11123422Y2556510D01*
X11124133Y2552700D01*
X11123422Y2548890D01*
X11121288Y2545638D01*
X11118138Y2543454D01*
X11105032Y2537510D01*
X11091976Y2529636D01*
X11079937Y2520238D01*
X11069167Y2509469D01*
X11059769Y2497429D01*
X11051895Y2484374D01*
X11045596Y2470505D01*
X11041075Y2455926D01*
X11038332Y2440940D01*
X11037417Y2425700D01*
X11038332Y2410460D01*
X11041075Y2395474D01*
X11045596Y2380894D01*
X11051895Y2367026D01*
X11059769Y2353970D01*
X11069167Y2341930D01*
X11079937Y2331161D01*
X11091976Y2321763D01*
X11105032Y2313889D01*
X11118138Y2307945D01*
X11121288Y2305761D01*
X11123422Y2302510D01*
X11124133Y2298700D01*
X11123422Y2294890D01*
X11121288Y2291638D01*
X11118138Y2289454D01*
X11105032Y2283510D01*
X11091976Y2275636D01*
X11079937Y2266238D01*
X11069167Y2255469D01*
X11059769Y2243429D01*
X11051895Y2230374D01*
X11045596Y2216505D01*
X11041075Y2201926D01*
X11038332Y2186940D01*
X11037417Y2171700D01*
X11038332Y2156460D01*
X11041075Y2141474D01*
X11045596Y2126894D01*
X11051895Y2113026D01*
X11059769Y2099970D01*
X11069167Y2087930D01*
X11079937Y2077161D01*
X11091976Y2067763D01*
X11105032Y2059889D01*
X11118138Y2053945D01*
X11121288Y2051761D01*
X11123422Y2048510D01*
X11124133Y2044700D01*
X11123422Y2040889D01*
X11121288Y2037638D01*
X11118138Y2035454D01*
X11105032Y2029510D01*
X11091976Y2021636D01*
X11079937Y2012238D01*
X11069167Y2001469D01*
X11059769Y1989429D01*
X11051895Y1976374D01*
X11045596Y1962505D01*
X11041075Y1947925D01*
X11038332Y1932939D01*
X11037417Y1917700D01*
X11038332Y1902460D01*
X11041075Y1887474D01*
X11045596Y1872894D01*
X11051895Y1859025D01*
X11059769Y1845970D01*
X11069167Y1833930D01*
X11079937Y1823161D01*
X11091976Y1813763D01*
X11105032Y1805889D01*
X11118138Y1799945D01*
X11121288Y1797761D01*
X11123422Y1794510D01*
X11124133Y1790700D01*
X11123422Y1786889D01*
X11121288Y1783638D01*
X11118138Y1781454D01*
X11105032Y1775510D01*
X11091976Y1767636D01*
X11079937Y1758238D01*
X11069167Y1747469D01*
X11059769Y1735429D01*
X11051895Y1722374D01*
X11045596Y1708505D01*
X11041075Y1693925D01*
X11038332Y1678939D01*
X11037417Y1663700D01*
X11038332Y1648460D01*
X11041075Y1633474D01*
X11045596Y1618894D01*
X11051895Y1605026D01*
X11059769Y1591970D01*
X11069167Y1579930D01*
X11079937Y1569161D01*
X11091976Y1559763D01*
X11105032Y1551889D01*
X11118138Y1545945D01*
X11121288Y1543761D01*
X11123422Y1540510D01*
X11124133Y1536700D01*
X11123422Y1532890D01*
X11121288Y1529638D01*
X11118138Y1527454D01*
X11105032Y1521510D01*
X11091976Y1513636D01*
X11079937Y1504238D01*
X11069167Y1493469D01*
X11059769Y1481429D01*
X11051895Y1468374D01*
X11045596Y1454505D01*
X11041075Y1439926D01*
X11038332Y1424940D01*
X11037417Y1409700D01*
X11038332Y1394460D01*
X11041075Y1379474D01*
X11045596Y1364894D01*
X11051895Y1351026D01*
X11059769Y1337970D01*
X11069167Y1325930D01*
X11079937Y1315161D01*
X11091976Y1305763D01*
X11105032Y1297889D01*
X11118900Y1291640D01*
X11133480Y1287068D01*
X11148466Y1284325D01*
G37*
G36*
X10025735Y3031947D02*
G01*
X10058298Y3031947D01*
X10067645Y3032760D01*
X10076281Y3035096D01*
X10084358Y3038856D01*
X10091724Y3043986D01*
X10098024Y3050286D01*
X10103154Y3057652D01*
X10106914Y3065729D01*
X10109250Y3074365D01*
X10110063Y3083712D01*
X10110063Y3116275D01*
X10025735Y3116275D01*
G37*
G36*
X9901732Y3031947D02*
G01*
X9934295Y3031947D01*
X9934295Y3116275D01*
X9849967Y3116275D01*
X9849967Y3083712D01*
X9850780Y3074365D01*
X9853066Y3065729D01*
X9856876Y3057652D01*
X9862007Y3050286D01*
X9868306Y3043986D01*
X9875621Y3038856D01*
X9883749Y3035096D01*
X9892385Y3032760D01*
G37*
G36*
X8601456Y3093770D02*
G01*
X8619591Y3094228D01*
X8637625Y3096564D01*
X8655253Y3100730D01*
X8672423Y3106674D01*
X8688882Y3114395D01*
X8704427Y3123742D01*
X8718956Y3134614D01*
X8732266Y3146958D01*
X8744254Y3160572D01*
X8754770Y3175406D01*
X8763711Y3191205D01*
X8770975Y3207816D01*
X8776462Y3225088D01*
X8780221Y3242868D01*
X8782050Y3260902D01*
X8782050Y3279089D01*
X8780221Y3297123D01*
X8776462Y3314903D01*
X8770975Y3332175D01*
X8763711Y3348837D01*
X8754770Y3364636D01*
X8744254Y3379419D01*
X8732266Y3393033D01*
X8718956Y3405378D01*
X8704427Y3416249D01*
X8688882Y3425596D01*
X8672423Y3433318D01*
X8655253Y3439261D01*
X8637625Y3443427D01*
X8619591Y3445764D01*
X8601456Y3446221D01*
X8583371Y3444849D01*
X8565489Y3441598D01*
X8548065Y3436518D01*
X8531250Y3429660D01*
X8515248Y3421126D01*
X8500211Y3411016D01*
X8486241Y3399383D01*
X8473592Y3386378D01*
X8462314Y3372154D01*
X8452561Y3356813D01*
X8444484Y3340608D01*
X8438083Y3323590D01*
X8433460Y3306064D01*
X8430666Y3288131D01*
X8429701Y3269996D01*
X8430666Y3251860D01*
X8433460Y3233928D01*
X8438083Y3216402D01*
X8444484Y3199384D01*
X8452561Y3183178D01*
X8462314Y3167837D01*
X8473592Y3153613D01*
X8486241Y3140608D01*
X8500211Y3128975D01*
X8515248Y3118866D01*
X8531250Y3110331D01*
X8548065Y3103473D01*
X8565489Y3098444D01*
X8583371Y3095142D01*
G37*
G36*
X9182862Y3107842D02*
G01*
X9196882Y3114395D01*
X9212427Y3123742D01*
X9226956Y3134614D01*
X9240266Y3146958D01*
X9252254Y3160572D01*
X9262770Y3175406D01*
X9271711Y3191205D01*
X9276080Y3201162D01*
X9182862Y3201162D01*
G37*
G36*
X9045143Y3107944D02*
G01*
X9045143Y3201162D01*
X8951823Y3201162D01*
X8952484Y3199384D01*
X8960561Y3183178D01*
X8970314Y3167837D01*
X8981592Y3153613D01*
X8994241Y3140608D01*
X9008211Y3128975D01*
X9023248Y3118866D01*
X9039250Y3110331D01*
G37*
G36*
X9849967Y3207715D02*
G01*
X9934295Y3207715D01*
X9934295Y3280511D01*
X9935006Y3284220D01*
X9936988Y3287420D01*
X9940036Y3289655D01*
X9943642Y3290671D01*
X9947402Y3290214D01*
X9949484Y3289604D01*
X9964623Y3286861D01*
X9980015Y3285947D01*
X9995408Y3286861D01*
X10010546Y3289604D01*
X10012578Y3290214D01*
X10016337Y3290671D01*
X10019995Y3289655D01*
X10023043Y3287420D01*
X10025024Y3284220D01*
X10025735Y3280511D01*
X10025735Y3207715D01*
X10110063Y3207715D01*
X10110063Y3240278D01*
X10109250Y3249625D01*
X10106914Y3258261D01*
X10103154Y3266389D01*
X10098024Y3273704D01*
X10091724Y3280003D01*
X10084358Y3285134D01*
X10076281Y3288944D01*
X10067645Y3291230D01*
X10060432Y3291840D01*
X10056571Y3293008D01*
X10053421Y3295599D01*
X10051542Y3299155D01*
X10051237Y3303168D01*
X10052507Y3307029D01*
X10055148Y3310077D01*
X10064902Y3317494D01*
X10075926Y3328212D01*
X10085628Y3340201D01*
X10093858Y3353206D01*
X10100513Y3367125D01*
X10105440Y3381705D01*
X10108590Y3396792D01*
X10109962Y3412134D01*
X10109504Y3427526D01*
X10107269Y3442766D01*
X10103205Y3457651D01*
X10097414Y3471926D01*
X10089946Y3485438D01*
X10080955Y3497935D01*
X10070592Y3509314D01*
X10058908Y3519373D01*
X10046106Y3527958D01*
X10034371Y3534003D01*
X10031374Y3536340D01*
X10029444Y3539591D01*
X10028834Y3543350D01*
X10029647Y3547059D01*
X10031780Y3550208D01*
X10034879Y3552342D01*
X10039400Y3554323D01*
X10052659Y3562146D01*
X10064902Y3571494D01*
X10075926Y3582212D01*
X10085628Y3594201D01*
X10093858Y3607206D01*
X10100513Y3621125D01*
X10105440Y3635705D01*
X10108590Y3650792D01*
X10109962Y3666134D01*
X10109504Y3681526D01*
X10107269Y3696766D01*
X10103205Y3711651D01*
X10097414Y3725926D01*
X10089946Y3739438D01*
X10080955Y3751935D01*
X10070592Y3763314D01*
X10058908Y3773373D01*
X10046106Y3781958D01*
X10034371Y3788003D01*
X10031374Y3790340D01*
X10029444Y3793591D01*
X10028834Y3797350D01*
X10029647Y3801059D01*
X10031780Y3804208D01*
X10034879Y3806342D01*
X10039400Y3808323D01*
X10052659Y3816146D01*
X10064902Y3825494D01*
X10075926Y3836212D01*
X10085628Y3848201D01*
X10093858Y3861206D01*
X10100513Y3875125D01*
X10105440Y3889705D01*
X10108590Y3904792D01*
X10109962Y3920134D01*
X10109504Y3935526D01*
X10107269Y3950766D01*
X10103205Y3965651D01*
X10097414Y3979926D01*
X10089946Y3993438D01*
X10080955Y4005935D01*
X10070592Y4017314D01*
X10058908Y4027373D01*
X10046106Y4035958D01*
X10034371Y4042003D01*
X10031374Y4044340D01*
X10029444Y4047591D01*
X10028834Y4051350D01*
X10029647Y4055059D01*
X10031780Y4058208D01*
X10034879Y4060342D01*
X10039400Y4062323D01*
X10052659Y4070146D01*
X10064902Y4079494D01*
X10075926Y4090212D01*
X10085628Y4102201D01*
X10093858Y4115206D01*
X10100513Y4129125D01*
X10105440Y4143705D01*
X10108590Y4158792D01*
X10109962Y4174134D01*
X10109504Y4189526D01*
X10107269Y4204766D01*
X10103205Y4219651D01*
X10097414Y4233926D01*
X10089946Y4247438D01*
X10080955Y4259935D01*
X10070592Y4271314D01*
X10058908Y4281373D01*
X10046106Y4289958D01*
X10032441Y4297019D01*
X10017963Y4302353D01*
X10003028Y4305960D01*
X9987686Y4307789D01*
X9972294Y4307789D01*
X9957003Y4305960D01*
X9942017Y4302353D01*
X9927590Y4297019D01*
X9913874Y4289958D01*
X9901123Y4281373D01*
X9889439Y4271314D01*
X9879025Y4259935D01*
X9870033Y4247438D01*
X9862616Y4233926D01*
X9856825Y4219651D01*
X9852761Y4204766D01*
X9850475Y4189526D01*
X9850018Y4174134D01*
X9851390Y4158792D01*
X9854590Y4143705D01*
X9859518Y4129125D01*
X9866122Y4115206D01*
X9874351Y4102201D01*
X9884054Y4090212D01*
X9895128Y4079494D01*
X9907371Y4070146D01*
X9920630Y4062323D01*
X9925100Y4060342D01*
X9928250Y4058208D01*
X9930333Y4055059D01*
X9931196Y4051350D01*
X9930587Y4047591D01*
X9928656Y4044340D01*
X9925659Y4042003D01*
X9913874Y4035958D01*
X9901123Y4027373D01*
X9889439Y4017314D01*
X9879025Y4005935D01*
X9870033Y3993438D01*
X9862616Y3979926D01*
X9856825Y3965651D01*
X9852761Y3950766D01*
X9850475Y3935526D01*
X9850018Y3920134D01*
X9851390Y3904792D01*
X9854590Y3889705D01*
X9859518Y3875125D01*
X9866122Y3861206D01*
X9874351Y3848201D01*
X9884054Y3836212D01*
X9895128Y3825494D01*
X9907371Y3816146D01*
X9920630Y3808323D01*
X9925100Y3806342D01*
X9928250Y3804208D01*
X9930333Y3801059D01*
X9931196Y3797350D01*
X9930587Y3793591D01*
X9928656Y3790340D01*
X9925659Y3788003D01*
X9913874Y3781958D01*
X9901123Y3773373D01*
X9889439Y3763314D01*
X9879025Y3751935D01*
X9870033Y3739438D01*
X9862616Y3725926D01*
X9856825Y3711651D01*
X9852761Y3696766D01*
X9850475Y3681526D01*
X9850018Y3666134D01*
X9851390Y3650792D01*
X9854590Y3635705D01*
X9859518Y3621125D01*
X9866122Y3607206D01*
X9874351Y3594201D01*
X9884054Y3582212D01*
X9895128Y3571494D01*
X9907371Y3562146D01*
X9920630Y3554323D01*
X9925100Y3552342D01*
X9928250Y3550208D01*
X9930333Y3547059D01*
X9931196Y3543350D01*
X9930587Y3539591D01*
X9928656Y3536340D01*
X9925659Y3534003D01*
X9913874Y3527958D01*
X9901123Y3519373D01*
X9889439Y3509314D01*
X9879025Y3497935D01*
X9870033Y3485438D01*
X9862616Y3471926D01*
X9856825Y3457651D01*
X9852761Y3442766D01*
X9850475Y3427526D01*
X9850018Y3412134D01*
X9851390Y3396792D01*
X9854590Y3381705D01*
X9859518Y3367125D01*
X9866122Y3353206D01*
X9874351Y3340201D01*
X9884054Y3328212D01*
X9895128Y3317494D01*
X9904882Y3310077D01*
X9907524Y3307029D01*
X9908794Y3303168D01*
X9908438Y3299155D01*
X9906558Y3295599D01*
X9903460Y3293008D01*
X9899599Y3291840D01*
X9892385Y3291230D01*
X9883749Y3288944D01*
X9875621Y3285134D01*
X9868306Y3280003D01*
X9862007Y3273704D01*
X9856876Y3266389D01*
X9853066Y3258261D01*
X9850780Y3249625D01*
X9849967Y3240278D01*
G37*
G36*
X10283342Y3231540D02*
G01*
X10370362Y3231540D01*
X10370362Y3309975D01*
X10356900Y3305759D01*
X10343032Y3299510D01*
X10329976Y3291636D01*
X10317937Y3282238D01*
X10307167Y3271469D01*
X10297769Y3259429D01*
X10289895Y3246374D01*
X10283596Y3232505D01*
G37*
G36*
X10483037Y3231540D02*
G01*
X10570057Y3231540D01*
X10569803Y3232505D01*
X10563504Y3246374D01*
X10555630Y3259429D01*
X10546232Y3271469D01*
X10535462Y3282238D01*
X10523423Y3291636D01*
X10510367Y3299510D01*
X10496499Y3305759D01*
X10483037Y3309975D01*
G37*
G36*
X9471609Y3306775D02*
G01*
X9551212Y3306775D01*
X9551212Y3365347D01*
X9551873Y3368903D01*
X9553702Y3372002D01*
X9556597Y3374288D01*
X9560052Y3375406D01*
X9563658Y3375202D01*
X9578086Y3371850D01*
X9593986Y3370021D01*
X9609988Y3370021D01*
X9625888Y3371850D01*
X9640366Y3375202D01*
X9643973Y3375406D01*
X9647428Y3374288D01*
X9650272Y3372002D01*
X9652152Y3368903D01*
X9652812Y3365347D01*
X9652812Y3306775D01*
X9732416Y3306775D01*
X9729520Y3314242D01*
X9722053Y3328415D01*
X9713010Y3341624D01*
X9702546Y3353714D01*
X9690760Y3364534D01*
X9677247Y3374237D01*
X9674098Y3376980D01*
X9672320Y3380740D01*
X9672218Y3384905D01*
X9673793Y3388766D01*
X9676739Y3391662D01*
X9684410Y3396589D01*
X9696805Y3406698D01*
X9707930Y3418179D01*
X9717735Y3430879D01*
X9726015Y3444595D01*
X9732619Y3459124D01*
X9737598Y3474364D01*
X9740747Y3490061D01*
X9742119Y3506012D01*
X9741662Y3522014D01*
X9739426Y3537864D01*
X9735312Y3553307D01*
X9729520Y3568242D01*
X9722053Y3582415D01*
X9713010Y3595624D01*
X9702546Y3607714D01*
X9690760Y3618534D01*
X9677247Y3628237D01*
X9674098Y3630980D01*
X9672320Y3634740D01*
X9672218Y3638905D01*
X9673793Y3642766D01*
X9676739Y3645662D01*
X9684410Y3650589D01*
X9696805Y3660698D01*
X9707930Y3672179D01*
X9717735Y3684879D01*
X9726015Y3698595D01*
X9732619Y3713124D01*
X9737598Y3728364D01*
X9740747Y3744061D01*
X9742119Y3760012D01*
X9741662Y3776014D01*
X9739426Y3791864D01*
X9735312Y3807307D01*
X9729520Y3822242D01*
X9722053Y3836415D01*
X9713010Y3849624D01*
X9702546Y3861714D01*
X9701276Y3862832D01*
X9698837Y3866387D01*
X9698024Y3870604D01*
X9699040Y3874770D01*
X9701682Y3878173D01*
X9705543Y3880154D01*
X9708438Y3880916D01*
X9716516Y3884676D01*
X9723882Y3889806D01*
X9730181Y3896156D01*
X9735312Y3903472D01*
X9739071Y3911549D01*
X9741408Y3920185D01*
X9742220Y3929532D01*
X9742220Y4106468D01*
X9741408Y4115815D01*
X9739071Y4124451D01*
X9735312Y4132529D01*
X9730181Y4139844D01*
X9723882Y4146194D01*
X9716516Y4151325D01*
X9708438Y4155084D01*
X9699802Y4157370D01*
X9690455Y4158183D01*
X9513570Y4158183D01*
X9504222Y4157370D01*
X9495586Y4155084D01*
X9487458Y4151325D01*
X9480143Y4146194D01*
X9473844Y4139844D01*
X9468713Y4132529D01*
X9464903Y4124451D01*
X9462617Y4115815D01*
X9461804Y4106468D01*
X9461804Y3929532D01*
X9462617Y3920185D01*
X9464903Y3911549D01*
X9468713Y3903472D01*
X9473844Y3896156D01*
X9480143Y3889806D01*
X9487458Y3884676D01*
X9495586Y3880916D01*
X9498482Y3880154D01*
X9502292Y3878173D01*
X9504984Y3874770D01*
X9506000Y3870604D01*
X9505188Y3866387D01*
X9502698Y3862832D01*
X9501479Y3861714D01*
X9490964Y3849624D01*
X9481972Y3836415D01*
X9474504Y3822242D01*
X9468662Y3807307D01*
X9464598Y3791864D01*
X9462312Y3776014D01*
X9461855Y3760012D01*
X9463227Y3744061D01*
X9466427Y3728364D01*
X9471355Y3713124D01*
X9478010Y3698595D01*
X9486290Y3684879D01*
X9496044Y3672179D01*
X9507220Y3660698D01*
X9519615Y3650589D01*
X9527286Y3645662D01*
X9530232Y3642766D01*
X9531807Y3638905D01*
X9531654Y3634740D01*
X9529876Y3630980D01*
X9526219Y3627932D01*
X9513265Y3618534D01*
X9501479Y3607714D01*
X9490964Y3595624D01*
X9481972Y3582415D01*
X9474504Y3568242D01*
X9468662Y3553307D01*
X9464598Y3537864D01*
X9462312Y3522014D01*
X9461855Y3506012D01*
X9463227Y3490061D01*
X9466427Y3474364D01*
X9471355Y3459124D01*
X9478010Y3444595D01*
X9486290Y3430879D01*
X9496044Y3418179D01*
X9507220Y3406698D01*
X9519615Y3396589D01*
X9527286Y3391662D01*
X9530232Y3388766D01*
X9531807Y3384905D01*
X9531654Y3380740D01*
X9529876Y3376980D01*
X9526219Y3373932D01*
X9513265Y3364534D01*
X9501479Y3353714D01*
X9490964Y3341624D01*
X9481972Y3328415D01*
X9474504Y3314242D01*
G37*
G36*
X9182862Y3338829D02*
G01*
X9276080Y3338829D01*
X9271711Y3348837D01*
X9262770Y3364636D01*
X9252254Y3379419D01*
X9240266Y3393033D01*
X9226956Y3405378D01*
X9212427Y3416249D01*
X9196882Y3425596D01*
X9182862Y3432149D01*
G37*
G36*
X8951823Y3338829D02*
G01*
X9045143Y3338829D01*
X9045143Y3432048D01*
X9039250Y3429660D01*
X9023248Y3421126D01*
X9008211Y3411016D01*
X8994241Y3399383D01*
X8981592Y3386378D01*
X8970314Y3372154D01*
X8960561Y3356813D01*
X8952484Y3340608D01*
G37*
G36*
X7947609Y3814775D02*
G01*
X8027212Y3814775D01*
X8027212Y3873347D01*
X8027873Y3876903D01*
X8029702Y3880002D01*
X8032597Y3882288D01*
X8036052Y3883406D01*
X8039658Y3883202D01*
X8054086Y3879850D01*
X8069986Y3878021D01*
X8085988Y3878021D01*
X8101888Y3879850D01*
X8116366Y3883202D01*
X8119973Y3883406D01*
X8123428Y3882288D01*
X8126272Y3880002D01*
X8128152Y3876903D01*
X8128812Y3873347D01*
X8128812Y3814775D01*
X8208416Y3814775D01*
X8205520Y3822242D01*
X8198053Y3836415D01*
X8189010Y3849624D01*
X8178546Y3861714D01*
X8166760Y3872534D01*
X8153247Y3882237D01*
X8150098Y3884980D01*
X8148320Y3888740D01*
X8148218Y3892905D01*
X8149793Y3896766D01*
X8152739Y3899662D01*
X8160410Y3904589D01*
X8172805Y3914698D01*
X8183930Y3926179D01*
X8193735Y3938879D01*
X8202015Y3952595D01*
X8208619Y3967124D01*
X8213598Y3982364D01*
X8216747Y3998061D01*
X8218119Y4014012D01*
X8217662Y4030014D01*
X8215426Y4045864D01*
X8211312Y4061307D01*
X8205520Y4076242D01*
X8198053Y4090415D01*
X8189010Y4103624D01*
X8178546Y4115714D01*
X8166760Y4126534D01*
X8153806Y4135932D01*
X8139836Y4143806D01*
X8125104Y4150055D01*
X8109762Y4154525D01*
X8093964Y4157268D01*
X8078012Y4158183D01*
X8062010Y4157268D01*
X8046262Y4154525D01*
X8030870Y4150055D01*
X8016138Y4143806D01*
X8002219Y4135932D01*
X7989265Y4126534D01*
X7977479Y4115714D01*
X7966964Y4103624D01*
X7957972Y4090415D01*
X7950504Y4076242D01*
X7944662Y4061307D01*
X7940598Y4045864D01*
X7938312Y4030014D01*
X7937855Y4014012D01*
X7939227Y3998061D01*
X7942427Y3982364D01*
X7947355Y3967124D01*
X7954009Y3952595D01*
X7962290Y3938879D01*
X7972044Y3926179D01*
X7983220Y3914698D01*
X7995615Y3904589D01*
X8003286Y3899662D01*
X8006232Y3896766D01*
X8007807Y3892905D01*
X8007654Y3888740D01*
X8005876Y3884980D01*
X8002219Y3881932D01*
X7989265Y3872534D01*
X7977479Y3861714D01*
X7966964Y3849624D01*
X7957972Y3836415D01*
X7950504Y3822242D01*
G37*
G36*
X10464698Y3849928D02*
G01*
X10621314Y3849928D01*
X10630662Y3850792D01*
X10639298Y3853078D01*
X10647375Y3856837D01*
X10654690Y3861968D01*
X10661040Y3868318D01*
X10666171Y3875633D01*
X10669930Y3883710D01*
X10672267Y3892448D01*
X10672978Y3899306D01*
X10674146Y3903116D01*
X10676686Y3906164D01*
X10680192Y3907993D01*
X10684154Y3908348D01*
X10687913Y3907180D01*
X10690961Y3904640D01*
X10701070Y3892245D01*
X10712145Y3881526D01*
X10724388Y3872179D01*
X10737646Y3864305D01*
X10751718Y3858107D01*
X10766450Y3853586D01*
X10781639Y3850894D01*
X10797032Y3849979D01*
X10812373Y3850894D01*
X10827562Y3853586D01*
X10842294Y3858107D01*
X10856366Y3864305D01*
X10869625Y3872179D01*
X10881868Y3881526D01*
X10892942Y3892245D01*
X10902645Y3904183D01*
X10910874Y3917238D01*
X10917529Y3931158D01*
X10922457Y3945737D01*
X10925606Y3960825D01*
X10926978Y3976166D01*
X10926521Y3991559D01*
X10924235Y4006799D01*
X10920171Y4021632D01*
X10914380Y4035907D01*
X10906963Y4049420D01*
X10897971Y4061917D01*
X10887557Y4073296D01*
X10875924Y4083354D01*
X10863122Y4091940D01*
X10849406Y4099001D01*
X10834979Y4104386D01*
X10819993Y4107992D01*
X10804702Y4109821D01*
X10789310Y4109821D01*
X10774019Y4107992D01*
X10759033Y4104386D01*
X10744606Y4099001D01*
X10730890Y4091940D01*
X10718088Y4083354D01*
X10706455Y4073296D01*
X10696041Y4061917D01*
X10691266Y4055262D01*
X10688269Y4052519D01*
X10684408Y4051147D01*
X10680293Y4051401D01*
X10676686Y4053230D01*
X10674045Y4056379D01*
X10672876Y4060291D01*
X10672216Y4067657D01*
X10669930Y4076293D01*
X10666171Y4084370D01*
X10661040Y4091686D01*
X10654690Y4098036D01*
X10647375Y4103166D01*
X10639298Y4106926D01*
X10630662Y4109212D01*
X10621314Y4110024D01*
X10464698Y4110024D01*
X10455351Y4109212D01*
X10446715Y4106926D01*
X10438638Y4103166D01*
X10431322Y4098036D01*
X10424972Y4091686D01*
X10419842Y4084370D01*
X10416082Y4076293D01*
X10413796Y4067657D01*
X10412984Y4058310D01*
X10412984Y3901694D01*
X10413796Y3892346D01*
X10416082Y3883710D01*
X10419842Y3875633D01*
X10424972Y3868318D01*
X10431322Y3861968D01*
X10438638Y3856837D01*
X10446715Y3853078D01*
X10455351Y3850792D01*
G37*
G36*
X11976709Y3874668D02*
G01*
X11993321Y3876040D01*
X12009678Y3879240D01*
X12025579Y3884218D01*
X12040870Y3890924D01*
X12055297Y3899255D01*
X12068708Y3909110D01*
X12081002Y3920388D01*
X12091924Y3932986D01*
X12101423Y3946651D01*
X12109348Y3961333D01*
X12115647Y3976776D01*
X12120168Y3992829D01*
X12122912Y4009237D01*
X12123826Y4025900D01*
X12122912Y4042562D01*
X12120168Y4058970D01*
X12115647Y4075023D01*
X12109348Y4090466D01*
X12101423Y4105148D01*
X12091924Y4118813D01*
X12081002Y4131411D01*
X12068708Y4142689D01*
X12055297Y4152544D01*
X12040870Y4160875D01*
X12025579Y4167581D01*
X12009678Y4172559D01*
X11993321Y4175760D01*
X11976709Y4177131D01*
X11960047Y4176674D01*
X11943537Y4174388D01*
X11927382Y4170273D01*
X11911787Y4164431D01*
X11896902Y4156913D01*
X11882932Y4147820D01*
X11870080Y4137202D01*
X11858447Y4125264D01*
X11848236Y4112107D01*
X11839498Y4097883D01*
X11832386Y4082846D01*
X11826951Y4067048D01*
X11823293Y4050792D01*
X11821464Y4034231D01*
X11821464Y4017568D01*
X11823293Y4001008D01*
X11826951Y3984751D01*
X11832386Y3968953D01*
X11839498Y3953916D01*
X11848236Y3939692D01*
X11858447Y3926535D01*
X11870080Y3914597D01*
X11882932Y3903979D01*
X11896902Y3894886D01*
X11911787Y3887368D01*
X11927382Y3881526D01*
X11943537Y3877411D01*
X11960047Y3875125D01*
G37*
G36*
X11527993Y3885641D02*
G01*
X11539982Y3890924D01*
X11554409Y3899255D01*
X11567820Y3909110D01*
X11580114Y3920388D01*
X11591036Y3932986D01*
X11600535Y3946651D01*
X11608460Y3961333D01*
X11611813Y3969562D01*
X11527993Y3969562D01*
G37*
G36*
X11415318Y3885692D02*
G01*
X11415318Y3969562D01*
X11331295Y3969562D01*
X11338610Y3953916D01*
X11347348Y3939692D01*
X11357559Y3926535D01*
X11369192Y3914597D01*
X11382044Y3903979D01*
X11396014Y3894886D01*
X11410899Y3887368D01*
G37*
G36*
X7409942Y3938930D02*
G01*
X7430058Y3938930D01*
X7450074Y3940860D01*
X7469835Y3944670D01*
X7489088Y3950309D01*
X7507782Y3957777D01*
X7525664Y3967022D01*
X7542580Y3977894D01*
X7558379Y3990340D01*
X7572908Y4004208D01*
X7586116Y4019397D01*
X7597749Y4035755D01*
X7607808Y4053179D01*
X7616139Y4071467D01*
X7622743Y4090466D01*
X7627467Y4110024D01*
X7630363Y4129938D01*
X7631277Y4150004D01*
X7630363Y4170070D01*
X7627467Y4189984D01*
X7622743Y4209542D01*
X7616139Y4228541D01*
X7607808Y4246829D01*
X7597749Y4264253D01*
X7586116Y4280611D01*
X7572908Y4295800D01*
X7558379Y4309668D01*
X7542580Y4322114D01*
X7525664Y4332986D01*
X7507782Y4342180D01*
X7489088Y4349699D01*
X7469835Y4355338D01*
X7450074Y4359148D01*
X7430058Y4361078D01*
X7409942Y4361078D01*
X7389926Y4359148D01*
X7370165Y4355338D01*
X7350912Y4349699D01*
X7332218Y4342180D01*
X7314336Y4332986D01*
X7297420Y4322114D01*
X7281621Y4309668D01*
X7267092Y4295800D01*
X7253935Y4280611D01*
X7242251Y4264253D01*
X7232192Y4246829D01*
X7223861Y4228541D01*
X7217257Y4209542D01*
X7212533Y4189984D01*
X7209688Y4170070D01*
X7208723Y4150004D01*
X7209688Y4129938D01*
X7212533Y4110024D01*
X7217257Y4090466D01*
X7223861Y4071467D01*
X7232192Y4053179D01*
X7242251Y4035755D01*
X7253935Y4019397D01*
X7267092Y4004208D01*
X7281621Y3990340D01*
X7297420Y3977894D01*
X7314336Y3967022D01*
X7332218Y3957777D01*
X7350912Y3950309D01*
X7370165Y3944670D01*
X7389926Y3940860D01*
G37*
G36*
X11527993Y4082237D02*
G01*
X11611813Y4082237D01*
X11608460Y4090466D01*
X11600535Y4105148D01*
X11591036Y4118813D01*
X11580114Y4131411D01*
X11567820Y4142689D01*
X11554409Y4152544D01*
X11539982Y4160875D01*
X11527993Y4166158D01*
G37*
G36*
X11331295Y4082237D02*
G01*
X11415318Y4082237D01*
X11415318Y4166108D01*
X11410899Y4164431D01*
X11396014Y4156913D01*
X11382044Y4147820D01*
X11369192Y4137202D01*
X11357559Y4125264D01*
X11347348Y4112107D01*
X11338610Y4097883D01*
G37*

%LPD*%
D10*
G01*
X9980015Y4177995D03*
G01*
X9980015Y3923995D03*
G01*
X9980015Y3669995D03*
G01*
X9980015Y3415995D03*
D11*
G01*
X9980005Y3162002D03*
D12*
G01*
X8606002Y3269995D03*
G01*
X9114002Y3269995D03*
D13*
G01*
X8078012Y462000D03*
G01*
X8078012Y716000D03*
G01*
X8078012Y970000D03*
G01*
X8078012Y1224000D03*
G01*
X8078012Y1478000D03*
G01*
X8078012Y1732000D03*
G01*
X8078012Y1986000D03*
G01*
X8078012Y2240000D03*
G01*
X8078012Y2494000D03*
G01*
X8078012Y2748000D03*
G01*
X8078012Y3002000D03*
G01*
X8078012Y3256000D03*
G01*
X8078012Y3510000D03*
G01*
X8078012Y3764000D03*
G01*
X8078012Y4018000D03*
G01*
X9602012Y462000D03*
G01*
X9602012Y716000D03*
G01*
X9602012Y970000D03*
G01*
X9602012Y1224000D03*
G01*
X9602012Y1478000D03*
G01*
X9602012Y1732000D03*
G01*
X9602012Y1986000D03*
G01*
X9602012Y2240000D03*
G01*
X9602012Y2494000D03*
G01*
X9602012Y2748000D03*
G01*
X9602012Y3002000D03*
G01*
X9602012Y3256000D03*
G01*
X9602012Y3510000D03*
G01*
X9602012Y3764000D03*
D14*
G01*
X9602005Y4018000D03*
D15*
G01*
X10622940Y889000D03*
G01*
X11982958Y889000D03*
D11*
G01*
X10543006Y3980002D03*
D10*
G01*
X10797006Y3980002D03*
D16*
G01*
X11188700Y3187700D03*
G01*
X11188700Y2933700D03*
G01*
X11188700Y2679700D03*
G01*
X11188700Y2425700D03*
G01*
X11188700Y2171700D03*
G01*
X11188700Y1917700D03*
G01*
X11188700Y1663700D03*
G01*
X11188700Y1409700D03*
G01*
X10426700Y3187700D03*
G01*
X10426700Y2933700D03*
G01*
X10426700Y2679700D03*
G01*
X10426700Y2425700D03*
G01*
X10426700Y2171700D03*
G01*
X10426700Y1917700D03*
G01*
X10426700Y1663700D03*
D17*
G01*
X10426700Y1409700D03*
D18*
G01*
X11972543Y4025900D03*
G01*
X11471656Y4025900D03*
D19*
G01*
X11716006Y2950001D03*
D20*
G01*
X11970004Y2950006D03*
G01*
X12224004Y2950006D03*
D19*
G01*
X11716006Y2290000D03*
D20*
G01*
X11970004Y2289987D03*
G01*
X12224004Y2289987D03*
D19*
G01*
X11716006Y1630001D03*
D20*
G01*
X11970004Y1629994D03*
G01*
X12224004Y1629994D03*
D21*
G01*
X7420000Y4150004D03*
G01*
X12110008Y380009D03*
M02*
