G04 Layer: BottomSilkscreenLayer*
G04 EasyEDA v6.5.34, 2023-08-04 19:03:51*
G04 bd8073a519a84a03b3240daa2bee514a,ed70181f279245e6aff80281ee7dc86a,10*
G04 Gerber Generator version 0.2*
G04 Scale: 100 percent, Rotated: No, Reflected: No *
G04 Dimensions in millimeters *
G04 leading zeros omitted , absolute positions ,4 integer and 5 decimal *
%FSLAX45Y45*%
%MOMM*%

%ADD10C,0.2032*%
%ADD11C,0.1524*%
%ADD12C,0.1000*%
%ADD13C,0.1750*%
%ADD14C,0.2030*%
%ADD15C,0.3000*%
%ADD16C,0.7000*%
%ADD17C,0.2540*%
%ADD18C,0.2500*%
%ADD19C,0.0180*%

%LPD*%
G36*
X7489850Y3236315D02*
G01*
X7469022Y3236163D01*
X7454849Y3235756D01*
X7446009Y3235045D01*
X7443165Y3234486D01*
X7441133Y3233775D01*
X7439812Y3232962D01*
X7438948Y3231997D01*
X7437983Y3228695D01*
X7432954Y3203600D01*
X7425436Y3163620D01*
X7421676Y3144824D01*
X7418425Y3130245D01*
X7416088Y3121507D01*
X7415326Y3119932D01*
X7411008Y3117596D01*
X7401102Y3113074D01*
X7387132Y3107080D01*
X7370521Y3100273D01*
X7349490Y3091992D01*
X7341768Y3089249D01*
X7335621Y3087319D01*
X7330795Y3086100D01*
X7327138Y3085592D01*
X7324394Y3085744D01*
X7322312Y3086404D01*
X7306309Y3096971D01*
X7260183Y3128619D01*
X7246264Y3137509D01*
X7235850Y3143554D01*
X7232446Y3145180D01*
X7230516Y3145790D01*
X7229043Y3145180D01*
X7223150Y3140862D01*
X7214209Y3133090D01*
X7203135Y3122828D01*
X7190790Y3110941D01*
X7178192Y3098444D01*
X7166254Y3086201D01*
X7155891Y3075178D01*
X7148068Y3066288D01*
X7143699Y3060496D01*
X7143140Y3059023D01*
X7143750Y3057296D01*
X7148474Y3048863D01*
X7156958Y3035300D01*
X7168134Y3018129D01*
X7205675Y2962402D01*
X7194499Y2942183D01*
X7190130Y2933903D01*
X7186574Y2926486D01*
X7184186Y2920593D01*
X7183272Y2917139D01*
X7184390Y2914802D01*
X7187438Y2911957D01*
X7192111Y2908960D01*
X7200493Y2905048D01*
X7365898Y2835960D01*
X7373416Y2833065D01*
X7379208Y2831134D01*
X7382357Y2830423D01*
X7384745Y2831795D01*
X7388453Y2835452D01*
X7392974Y2840888D01*
X7405674Y2858363D01*
X7413802Y2867914D01*
X7418019Y2872282D01*
X7426604Y2880055D01*
X7431074Y2883560D01*
X7440320Y2889656D01*
X7445146Y2892298D01*
X7450074Y2894685D01*
X7455153Y2896819D01*
X7460386Y2898698D01*
X7471308Y2901645D01*
X7482941Y2903677D01*
X7488986Y2904337D01*
X7503414Y2904998D01*
X7511135Y2904896D01*
X7518450Y2904439D01*
X7525461Y2903626D01*
X7532166Y2902407D01*
X7538618Y2900832D01*
X7544866Y2898800D01*
X7550962Y2896362D01*
X7557008Y2893517D01*
X7562951Y2890215D01*
X7568895Y2886456D01*
X7574889Y2882188D01*
X7579664Y2878429D01*
X7584236Y2874467D01*
X7588605Y2870250D01*
X7596631Y2861157D01*
X7600289Y2856382D01*
X7606893Y2846273D01*
X7609840Y2840990D01*
X7612532Y2835605D01*
X7617104Y2824480D01*
X7618984Y2818739D01*
X7620609Y2812948D01*
X7621930Y2807106D01*
X7623809Y2795320D01*
X7624470Y2783382D01*
X7624368Y2777439D01*
X7623962Y2771495D01*
X7622184Y2759710D01*
X7620812Y2753918D01*
X7617053Y2741980D01*
X7614767Y2736189D01*
X7612278Y2730652D01*
X7606588Y2720035D01*
X7600035Y2710129D01*
X7596479Y2705455D01*
X7588758Y2696768D01*
X7580375Y2688844D01*
X7571384Y2681833D01*
X7566659Y2678633D01*
X7556855Y2672943D01*
X7551775Y2670454D01*
X7541361Y2666187D01*
X7530592Y2662936D01*
X7519517Y2660700D01*
X7508290Y2659583D01*
X7496911Y2659532D01*
X7485481Y2660650D01*
X7479741Y2661666D01*
X7468362Y2664561D01*
X7462672Y2666492D01*
X7451191Y2671318D01*
X7440371Y2676956D01*
X7435392Y2680004D01*
X7430617Y2683256D01*
X7426096Y2686710D01*
X7421727Y2690418D01*
X7417460Y2694381D01*
X7413345Y2698648D01*
X7405268Y2708198D01*
X7395413Y2721406D01*
X7386167Y2733040D01*
X7383932Y2735275D01*
X7381341Y2734767D01*
X7374991Y2732633D01*
X7353198Y2724353D01*
X7322769Y2712161D01*
X7287920Y2697886D01*
X7252716Y2683154D01*
X7221474Y2669743D01*
X7198258Y2659380D01*
X7190994Y2655925D01*
X7187285Y2653842D01*
X7184491Y2650947D01*
X7184288Y2646832D01*
X7187184Y2639415D01*
X7205573Y2603347D01*
X7168083Y2548128D01*
X7156907Y2531160D01*
X7148474Y2517698D01*
X7143750Y2509418D01*
X7143140Y2507691D01*
X7144664Y2505151D01*
X7149033Y2499868D01*
X7155789Y2492298D01*
X7174788Y2472283D01*
X7229297Y2417572D01*
X7243825Y2426563D01*
X7259675Y2437130D01*
X7297267Y2463292D01*
X7327900Y2484221D01*
X7375448Y2464155D01*
X7406538Y2451557D01*
X7411618Y2448814D01*
X7415377Y2446274D01*
X7417206Y2444140D01*
X7418628Y2438247D01*
X7433208Y2364181D01*
X7437221Y2346909D01*
X7438948Y2340406D01*
X7440574Y2335479D01*
X7441895Y2332177D01*
X7443063Y2330602D01*
X7444638Y2330094D01*
X7451801Y2329230D01*
X7463332Y2328621D01*
X7477963Y2328164D01*
X7511491Y2327910D01*
X7527950Y2328113D01*
X7542530Y2328570D01*
X7554061Y2329180D01*
X7561224Y2330043D01*
X7562850Y2330551D01*
X7563916Y2332024D01*
X7565186Y2335174D01*
X7566710Y2339848D01*
X7570114Y2353360D01*
X7573975Y2371699D01*
X7581341Y2411425D01*
X7587234Y2440736D01*
X7588199Y2443581D01*
X7589723Y2446172D01*
X7592212Y2448712D01*
X7596022Y2451354D01*
X7601407Y2454452D01*
X7608874Y2458110D01*
X7651038Y2477058D01*
X7658353Y2480106D01*
X7664602Y2482088D01*
X7667447Y2482646D01*
X7670190Y2482900D01*
X7672882Y2482850D01*
X7675625Y2482443D01*
X7678420Y2481732D01*
X7681366Y2480665D01*
X7687868Y2477414D01*
X7695590Y2472588D01*
X7731048Y2447950D01*
X7751927Y2433828D01*
X7759649Y2428849D01*
X7765897Y2425192D01*
X7770723Y2422652D01*
X7774431Y2421229D01*
X7777073Y2420823D01*
X7778902Y2421229D01*
X7784084Y2425547D01*
X7808163Y2448814D01*
X7864094Y2505506D01*
X7857286Y2518562D01*
X7851648Y2527655D01*
X7833817Y2554478D01*
X7814462Y2582265D01*
X7805013Y2596591D01*
X7801203Y2603957D01*
X7799984Y2607259D01*
X7799171Y2610408D01*
X7798816Y2613507D01*
X7798866Y2616657D01*
X7799324Y2619959D01*
X7800136Y2623464D01*
X7802778Y2631490D01*
X7820863Y2675839D01*
X7824165Y2683052D01*
X7826959Y2688386D01*
X7829397Y2692044D01*
X7831785Y2694432D01*
X7834223Y2695905D01*
X7839811Y2697480D01*
X7866837Y2702966D01*
X7906969Y2710738D01*
X7939938Y2717495D01*
X7948472Y2719476D01*
X7949996Y2719984D01*
X7950504Y2721559D01*
X7951368Y2731160D01*
X7952028Y2747924D01*
X7952384Y2769666D01*
X7952435Y2793085D01*
X7952231Y2811576D01*
X7951825Y2825343D01*
X7951216Y2834995D01*
X7950250Y2841294D01*
X7949641Y2843326D01*
X7948930Y2844800D01*
X7948117Y2845765D01*
X7946440Y2846628D01*
X7938668Y2849067D01*
X7926324Y2852115D01*
X7910931Y2855315D01*
X7864144Y2864002D01*
X7838135Y2869336D01*
X7832547Y2870962D01*
X7830921Y2871622D01*
X7829143Y2872994D01*
X7826959Y2876956D01*
X7823149Y2885186D01*
X7812633Y2910078D01*
X7801356Y2938526D01*
X7795310Y2954528D01*
X7819288Y2990697D01*
X7848295Y3033572D01*
X7855864Y3045510D01*
X7860995Y3054248D01*
X7862366Y3057042D01*
X7862874Y3058515D01*
X7862265Y3060039D01*
X7860588Y3062528D01*
X7854391Y3070047D01*
X7845196Y3080207D01*
X7833969Y3091992D01*
X7809026Y3116884D01*
X7797190Y3128111D01*
X7787081Y3137306D01*
X7779512Y3143504D01*
X7777022Y3145180D01*
X7775498Y3145790D01*
X7774330Y3145485D01*
X7769504Y3143148D01*
X7761986Y3138830D01*
X7752334Y3132886D01*
X7728458Y3117138D01*
X7674051Y3079546D01*
X7624013Y3101238D01*
X7608874Y3108045D01*
X7597190Y3113633D01*
X7590332Y3117291D01*
X7589164Y3118154D01*
X7587843Y3123184D01*
X7582153Y3151581D01*
X7567777Y3229305D01*
X7566812Y3232251D01*
X7565847Y3233318D01*
X7564272Y3234232D01*
X7561884Y3234893D01*
X7558430Y3235452D01*
X7547508Y3236061D01*
G37*
G36*
X7884109Y2457399D02*
G01*
X7711643Y2402535D01*
X7711643Y2391867D01*
X7884109Y2446731D01*
G37*
G36*
X7753045Y2384755D02*
G01*
X7747914Y2378100D01*
X7744104Y2370632D01*
X7741666Y2362606D01*
X7740853Y2354021D01*
X7741208Y2347823D01*
X7742377Y2341930D01*
X7744256Y2336342D01*
X7746847Y2331161D01*
X7750098Y2326436D01*
X7754061Y2322169D01*
X7758734Y2318461D01*
X7763967Y2315260D01*
X7769859Y2312771D01*
X7776362Y2310892D01*
X7783474Y2309723D01*
X7791145Y2309317D01*
X7798866Y2309774D01*
X7805978Y2311044D01*
X7812531Y2313076D01*
X7818475Y2315768D01*
X7823758Y2319121D01*
X7828432Y2323033D01*
X7832394Y2327503D01*
X7835696Y2332380D01*
X7838287Y2337612D01*
X7840167Y2343200D01*
X7841284Y2349042D01*
X7841691Y2355037D01*
X7840776Y2363724D01*
X7838236Y2371242D01*
X7834630Y2377592D01*
X7830261Y2382977D01*
X7820863Y2375357D01*
X7824368Y2371039D01*
X7827060Y2366314D01*
X7828838Y2361184D01*
X7829499Y2355545D01*
X7828788Y2349042D01*
X7826705Y2343099D01*
X7823403Y2337765D01*
X7818881Y2333193D01*
X7813294Y2329434D01*
X7806791Y2326690D01*
X7799324Y2324912D01*
X7791145Y2324303D01*
X7782915Y2324912D01*
X7775549Y2326538D01*
X7769047Y2329230D01*
X7763509Y2332837D01*
X7759039Y2337308D01*
X7755788Y2342540D01*
X7753756Y2348484D01*
X7753045Y2355037D01*
X7753807Y2361692D01*
X7755839Y2367889D01*
X7758938Y2373477D01*
X7762697Y2378405D01*
G37*
G36*
X7743139Y2285187D02*
G01*
X7743139Y2273249D01*
X7755077Y2271979D01*
X7755077Y2271471D01*
X7749540Y2264156D01*
X7745018Y2256282D01*
X7741970Y2247900D01*
X7741361Y2243023D01*
X7752537Y2243023D01*
X7753400Y2250033D01*
X7756042Y2256790D01*
X7760258Y2263597D01*
X7765999Y2270709D01*
X7793939Y2270709D01*
X7792313Y2259025D01*
X7790230Y2249271D01*
X7787792Y2241397D01*
X7784896Y2235250D01*
X7781544Y2230678D01*
X7777734Y2227580D01*
X7773517Y2225802D01*
X7768793Y2225243D01*
X7761427Y2226665D01*
X7756347Y2230424D01*
X7753451Y2236063D01*
X7752537Y2243023D01*
X7741361Y2243023D01*
X7740853Y2238959D01*
X7741310Y2233269D01*
X7742631Y2227986D01*
X7744815Y2223211D01*
X7747863Y2219096D01*
X7751724Y2215743D01*
X7756398Y2213203D01*
X7761833Y2211578D01*
X7768031Y2211019D01*
X7773009Y2211425D01*
X7777581Y2212594D01*
X7781747Y2214575D01*
X7785557Y2217369D01*
X7788960Y2220976D01*
X7792008Y2225446D01*
X7794752Y2230780D01*
X7797139Y2236978D01*
X7799222Y2244039D01*
X7801051Y2252014D01*
X7802575Y2260904D01*
X7803845Y2270709D01*
X7808671Y2270607D01*
X7813344Y2269998D01*
X7817713Y2268778D01*
X7821625Y2266848D01*
X7824978Y2264105D01*
X7827518Y2260498D01*
X7829143Y2255875D01*
X7829753Y2250135D01*
X7828788Y2241804D01*
X7826298Y2234082D01*
X7822793Y2227122D01*
X7818831Y2221179D01*
X7828991Y2215337D01*
X7833309Y2222449D01*
X7835442Y2226665D01*
X7837424Y2231288D01*
X7839151Y2236216D01*
X7840472Y2241448D01*
X7841386Y2246985D01*
X7841691Y2252675D01*
X7841335Y2258212D01*
X7840421Y2263140D01*
X7838846Y2267508D01*
X7836763Y2271420D01*
X7834071Y2274773D01*
X7830921Y2277618D01*
X7827264Y2280005D01*
X7823149Y2281936D01*
X7818628Y2283358D01*
X7813700Y2284425D01*
X7808417Y2285034D01*
X7802829Y2285187D01*
G37*
G36*
X7743139Y2188667D02*
G01*
X7743139Y2118563D01*
X7755331Y2118563D01*
X7755331Y2147773D01*
X7855153Y2147773D01*
X7855153Y2124913D01*
X7864551Y2124913D01*
X7866125Y2132838D01*
X7868107Y2139746D01*
X7870596Y2145893D01*
X7873441Y2151329D01*
X7873441Y2162251D01*
X7755331Y2162251D01*
X7755331Y2188667D01*
G37*
G36*
X7743139Y2087575D02*
G01*
X7743139Y2073097D01*
X7802321Y2073097D01*
X7808772Y2072843D01*
X7814309Y2071979D01*
X7818881Y2070557D01*
X7822590Y2068525D01*
X7825435Y2065883D01*
X7827416Y2062632D01*
X7828584Y2058670D01*
X7828991Y2054047D01*
X7827975Y2046884D01*
X7825028Y2040280D01*
X7820202Y2033676D01*
X7813497Y2026615D01*
X7743139Y2026615D01*
X7743139Y2012137D01*
X7839151Y2012137D01*
X7839151Y2023821D01*
X7825181Y2025345D01*
X7825181Y2025853D01*
X7831632Y2032965D01*
X7834426Y2036673D01*
X7836865Y2040585D01*
X7838846Y2044649D01*
X7840370Y2048916D01*
X7841335Y2053386D01*
X7841691Y2058111D01*
X7841081Y2065223D01*
X7839252Y2071319D01*
X7836306Y2076399D01*
X7832140Y2080463D01*
X7826806Y2083612D01*
X7820355Y2085848D01*
X7812786Y2087168D01*
X7804099Y2087575D01*
G37*
G36*
X7743139Y1980641D02*
G01*
X7743139Y1968703D01*
X7755077Y1967433D01*
X7755077Y1966925D01*
X7749540Y1959610D01*
X7745018Y1951736D01*
X7741970Y1943354D01*
X7741361Y1938477D01*
X7752537Y1938477D01*
X7753400Y1945487D01*
X7756042Y1952243D01*
X7760258Y1959051D01*
X7765999Y1966163D01*
X7793939Y1966163D01*
X7792313Y1954479D01*
X7790230Y1944725D01*
X7787792Y1936851D01*
X7784896Y1930704D01*
X7781544Y1926132D01*
X7777734Y1923034D01*
X7773517Y1921256D01*
X7768793Y1920697D01*
X7761427Y1922119D01*
X7756347Y1925878D01*
X7753451Y1931517D01*
X7752537Y1938477D01*
X7741361Y1938477D01*
X7740853Y1934413D01*
X7741310Y1928723D01*
X7742631Y1923440D01*
X7744815Y1918665D01*
X7747863Y1914550D01*
X7751724Y1911197D01*
X7756398Y1908657D01*
X7761833Y1907032D01*
X7768031Y1906473D01*
X7773009Y1906879D01*
X7777581Y1908048D01*
X7781747Y1909978D01*
X7785557Y1912772D01*
X7788960Y1916379D01*
X7792008Y1920798D01*
X7794752Y1926132D01*
X7797139Y1932330D01*
X7799222Y1939391D01*
X7801051Y1947367D01*
X7802575Y1956307D01*
X7803845Y1966163D01*
X7808671Y1966061D01*
X7813344Y1965401D01*
X7817713Y1964131D01*
X7821625Y1962200D01*
X7824978Y1959457D01*
X7827518Y1955850D01*
X7829143Y1951228D01*
X7829753Y1945589D01*
X7828788Y1937257D01*
X7826298Y1929536D01*
X7822793Y1922576D01*
X7818831Y1916633D01*
X7828991Y1910537D01*
X7833309Y1917801D01*
X7835442Y1922018D01*
X7837424Y1926640D01*
X7839151Y1931619D01*
X7840472Y1936800D01*
X7841386Y1942287D01*
X7841691Y1947875D01*
X7841335Y1953463D01*
X7840421Y1958441D01*
X7838846Y1962861D01*
X7836763Y1966772D01*
X7834071Y1970176D01*
X7830921Y1973021D01*
X7827264Y1975459D01*
X7823149Y1977339D01*
X7818628Y1978812D01*
X7813700Y1979879D01*
X7808417Y1980488D01*
X7802829Y1980641D01*
G37*
G36*
X7743139Y1880565D02*
G01*
X7743139Y1866087D01*
X7802321Y1866087D01*
X7808772Y1865833D01*
X7814309Y1864969D01*
X7818881Y1863598D01*
X7822590Y1861566D01*
X7825435Y1858975D01*
X7827416Y1855724D01*
X7828584Y1851863D01*
X7828991Y1847291D01*
X7828025Y1841347D01*
X7825130Y1835200D01*
X7820304Y1828850D01*
X7813497Y1822145D01*
X7743139Y1822145D01*
X7743139Y1807667D01*
X7802321Y1807667D01*
X7808772Y1807413D01*
X7814309Y1806549D01*
X7818881Y1805178D01*
X7822590Y1803146D01*
X7825435Y1800555D01*
X7827416Y1797304D01*
X7828584Y1793443D01*
X7828991Y1788871D01*
X7828025Y1783130D01*
X7825130Y1776984D01*
X7820304Y1770481D01*
X7813497Y1763725D01*
X7743139Y1763725D01*
X7743139Y1749501D01*
X7839151Y1749501D01*
X7839151Y1761185D01*
X7824927Y1762455D01*
X7824927Y1762963D01*
X7831480Y1769618D01*
X7836814Y1776933D01*
X7840370Y1784756D01*
X7841691Y1792935D01*
X7840370Y1802892D01*
X7836611Y1810461D01*
X7830769Y1815846D01*
X7823149Y1819351D01*
X7830667Y1827174D01*
X7833817Y1831086D01*
X7836509Y1834997D01*
X7838694Y1838960D01*
X7840319Y1843024D01*
X7841335Y1847138D01*
X7841691Y1851355D01*
X7841081Y1858264D01*
X7839252Y1864207D01*
X7836306Y1869236D01*
X7832140Y1873300D01*
X7826806Y1876501D01*
X7820355Y1878787D01*
X7812786Y1880158D01*
X7804099Y1880565D01*
G37*
G36*
X7808925Y1723339D02*
G01*
X7800594Y1723186D01*
X7792872Y1722678D01*
X7785658Y1721815D01*
X7779003Y1720596D01*
X7772857Y1719072D01*
X7767269Y1717243D01*
X7762240Y1715109D01*
X7757718Y1712671D01*
X7753756Y1709978D01*
X7750302Y1706981D01*
X7747406Y1703730D01*
X7745069Y1700225D01*
X7743190Y1696466D01*
X7741869Y1692452D01*
X7741107Y1688185D01*
X7740853Y1683715D01*
X7752537Y1683715D01*
X7752892Y1687423D01*
X7754010Y1690928D01*
X7755890Y1694180D01*
X7758531Y1697177D01*
X7761935Y1699869D01*
X7766151Y1702257D01*
X7771180Y1704390D01*
X7777022Y1706118D01*
X7783728Y1707540D01*
X7791246Y1708556D01*
X7799628Y1709166D01*
X7808925Y1709369D01*
X7817967Y1709166D01*
X7826146Y1708556D01*
X7833512Y1707540D01*
X7840014Y1706118D01*
X7845755Y1704390D01*
X7850682Y1702257D01*
X7854797Y1699869D01*
X7858150Y1697177D01*
X7860741Y1694180D01*
X7862570Y1690928D01*
X7863687Y1687423D01*
X7864043Y1683715D01*
X7863687Y1679956D01*
X7862570Y1676450D01*
X7860741Y1673148D01*
X7858150Y1670151D01*
X7854797Y1667408D01*
X7850682Y1664970D01*
X7845755Y1662887D01*
X7840014Y1661109D01*
X7833512Y1659686D01*
X7826146Y1658670D01*
X7817967Y1658061D01*
X7808925Y1657807D01*
X7799628Y1658061D01*
X7791246Y1658670D01*
X7783728Y1659686D01*
X7777022Y1661109D01*
X7771180Y1662887D01*
X7766151Y1664970D01*
X7761935Y1667408D01*
X7758531Y1670151D01*
X7755890Y1673148D01*
X7754010Y1676450D01*
X7752892Y1679956D01*
X7752537Y1683715D01*
X7740853Y1683715D01*
X7741107Y1679295D01*
X7741869Y1675028D01*
X7743190Y1671015D01*
X7745069Y1667205D01*
X7747406Y1663700D01*
X7750302Y1660398D01*
X7753756Y1657400D01*
X7757718Y1654657D01*
X7762240Y1652219D01*
X7767269Y1650034D01*
X7772857Y1648206D01*
X7779003Y1646682D01*
X7785658Y1645462D01*
X7792872Y1644548D01*
X7800594Y1644040D01*
X7808925Y1643837D01*
X7817053Y1644040D01*
X7824673Y1644548D01*
X7831785Y1645462D01*
X7838338Y1646682D01*
X7844332Y1648206D01*
X7849819Y1650034D01*
X7854746Y1652219D01*
X7859166Y1654657D01*
X7863078Y1657400D01*
X7866430Y1660398D01*
X7869275Y1663700D01*
X7871612Y1667205D01*
X7873390Y1671015D01*
X7874711Y1675028D01*
X7875473Y1679295D01*
X7875727Y1683715D01*
X7875473Y1688185D01*
X7874711Y1692452D01*
X7873390Y1696466D01*
X7871612Y1700225D01*
X7869275Y1703730D01*
X7866430Y1706981D01*
X7863078Y1709978D01*
X7859166Y1712671D01*
X7854746Y1715109D01*
X7849819Y1717243D01*
X7844332Y1719072D01*
X7838338Y1720596D01*
X7831785Y1721815D01*
X7824673Y1722678D01*
X7817053Y1723186D01*
G37*
G36*
X7743139Y1619707D02*
G01*
X7743139Y1604975D01*
X7802321Y1604975D01*
X7808772Y1604721D01*
X7814309Y1603908D01*
X7818881Y1602536D01*
X7822590Y1600504D01*
X7825435Y1597914D01*
X7827416Y1594612D01*
X7828584Y1590649D01*
X7828991Y1585925D01*
X7827975Y1578813D01*
X7825028Y1572209D01*
X7820202Y1565656D01*
X7813497Y1558493D01*
X7743139Y1558493D01*
X7743139Y1544269D01*
X7839151Y1544269D01*
X7839151Y1555953D01*
X7825181Y1557477D01*
X7825181Y1557985D01*
X7831632Y1565046D01*
X7834426Y1568754D01*
X7836865Y1572615D01*
X7838846Y1576679D01*
X7840370Y1580946D01*
X7841335Y1585468D01*
X7841691Y1590243D01*
X7841081Y1597304D01*
X7839252Y1603349D01*
X7836306Y1608429D01*
X7832140Y1612544D01*
X7826806Y1615694D01*
X7820355Y1617929D01*
X7812786Y1619300D01*
X7804099Y1619707D01*
G37*
G36*
X7743139Y1512519D02*
G01*
X7743139Y1498041D01*
X7802321Y1498041D01*
X7808772Y1497787D01*
X7814309Y1496923D01*
X7818881Y1495501D01*
X7822590Y1493469D01*
X7825435Y1490827D01*
X7827416Y1487576D01*
X7828584Y1483614D01*
X7828991Y1478991D01*
X7827975Y1471828D01*
X7825028Y1465224D01*
X7820202Y1458620D01*
X7813497Y1451559D01*
X7743139Y1451559D01*
X7743139Y1437081D01*
X7884871Y1437081D01*
X7884871Y1451559D01*
X7845501Y1451559D01*
X7825435Y1451051D01*
X7831734Y1458112D01*
X7834477Y1461820D01*
X7836865Y1465681D01*
X7838897Y1469745D01*
X7840370Y1474012D01*
X7841335Y1478534D01*
X7841691Y1483309D01*
X7841081Y1490370D01*
X7839252Y1496364D01*
X7836306Y1501394D01*
X7832140Y1505458D01*
X7826806Y1508607D01*
X7820355Y1510792D01*
X7812786Y1512112D01*
X7804099Y1512519D01*
G37*
G36*
X7753045Y1415237D02*
G01*
X7747914Y1408582D01*
X7744104Y1401114D01*
X7741666Y1392986D01*
X7740853Y1384249D01*
X7741208Y1378102D01*
X7742377Y1372260D01*
X7744256Y1366723D01*
X7746847Y1361592D01*
X7750098Y1356868D01*
X7754061Y1352600D01*
X7758734Y1348892D01*
X7763967Y1345742D01*
X7769859Y1343253D01*
X7776362Y1341374D01*
X7783474Y1340205D01*
X7791145Y1339799D01*
X7798866Y1340256D01*
X7805978Y1341526D01*
X7812531Y1343558D01*
X7818475Y1346250D01*
X7823758Y1349603D01*
X7828432Y1353515D01*
X7832394Y1357985D01*
X7835696Y1362862D01*
X7838287Y1368094D01*
X7840167Y1373682D01*
X7841284Y1379524D01*
X7841691Y1385519D01*
X7840776Y1394206D01*
X7838236Y1401724D01*
X7834630Y1408074D01*
X7830261Y1413459D01*
X7820863Y1405839D01*
X7824368Y1401521D01*
X7827060Y1396796D01*
X7828838Y1391666D01*
X7829499Y1386027D01*
X7828788Y1379524D01*
X7826705Y1373581D01*
X7823403Y1368247D01*
X7818881Y1363675D01*
X7813294Y1359916D01*
X7806791Y1357172D01*
X7799324Y1355394D01*
X7791145Y1354785D01*
X7782915Y1355394D01*
X7775549Y1357020D01*
X7769047Y1359712D01*
X7763509Y1363319D01*
X7759039Y1367790D01*
X7755788Y1373022D01*
X7753756Y1378966D01*
X7753045Y1385519D01*
X7753807Y1392174D01*
X7755839Y1398371D01*
X7758938Y1403959D01*
X7762697Y1408887D01*
G37*
G36*
X7794294Y1322781D02*
G01*
X7789925Y1322476D01*
X7788097Y1322019D01*
X7788097Y1310081D01*
X7798765Y1310081D01*
X7805928Y1309674D01*
X7812227Y1308404D01*
X7817561Y1306322D01*
X7821980Y1303477D01*
X7825486Y1299921D01*
X7827975Y1295654D01*
X7829499Y1290726D01*
X7830007Y1285189D01*
X7829448Y1279956D01*
X7827873Y1274978D01*
X7825282Y1270355D01*
X7821726Y1266139D01*
X7817256Y1262583D01*
X7811871Y1259636D01*
X7805724Y1257503D01*
X7798765Y1256233D01*
X7798765Y1310081D01*
X7788097Y1310081D01*
X7788097Y1256487D01*
X7780426Y1257452D01*
X7773517Y1259382D01*
X7767472Y1262329D01*
X7762290Y1266139D01*
X7758175Y1270863D01*
X7755077Y1276350D01*
X7753197Y1282598D01*
X7752537Y1289507D01*
X7753096Y1296314D01*
X7754620Y1302562D01*
X7757007Y1308404D01*
X7760157Y1313891D01*
X7750759Y1319225D01*
X7746949Y1312672D01*
X7743799Y1305306D01*
X7741666Y1297076D01*
X7740853Y1287729D01*
X7741208Y1281531D01*
X7742377Y1275537D01*
X7744256Y1269898D01*
X7746898Y1264615D01*
X7750200Y1259738D01*
X7754162Y1255369D01*
X7758836Y1251508D01*
X7764119Y1248257D01*
X7770012Y1245616D01*
X7776464Y1243634D01*
X7783525Y1242466D01*
X7791145Y1242009D01*
X7798714Y1242466D01*
X7805724Y1243685D01*
X7812227Y1245616D01*
X7818120Y1248257D01*
X7823453Y1251458D01*
X7828127Y1255217D01*
X7832140Y1259433D01*
X7835544Y1264005D01*
X7838186Y1268933D01*
X7840116Y1274114D01*
X7841284Y1279448D01*
X7841691Y1284935D01*
X7841335Y1290777D01*
X7840268Y1296162D01*
X7838541Y1301038D01*
X7836153Y1305509D01*
X7833156Y1309471D01*
X7829600Y1312926D01*
X7825435Y1315923D01*
X7820659Y1318361D01*
X7815427Y1320292D01*
X7809687Y1321663D01*
X7803438Y1322527D01*
G37*
G36*
X7744409Y1232865D02*
G01*
X7743088Y1228750D01*
X7741970Y1224381D01*
X7741158Y1220012D01*
X7740853Y1215847D01*
X7741412Y1208989D01*
X7743139Y1203299D01*
X7745831Y1198676D01*
X7749489Y1195120D01*
X7754061Y1192530D01*
X7759395Y1190752D01*
X7765440Y1189786D01*
X7772095Y1189431D01*
X7827213Y1189431D01*
X7827213Y1174699D01*
X7838389Y1174699D01*
X7839151Y1189939D01*
X7866329Y1191717D01*
X7866329Y1203655D01*
X7839151Y1203655D01*
X7839151Y1230325D01*
X7827213Y1230325D01*
X7827213Y1203655D01*
X7771587Y1203655D01*
X7763713Y1204417D01*
X7757820Y1206906D01*
X7754061Y1211630D01*
X7752791Y1218895D01*
X7752994Y1221689D01*
X7753603Y1224584D01*
X7755585Y1230071D01*
G37*
G36*
X7884109Y1165555D02*
G01*
X7711643Y1110437D01*
X7711643Y1099769D01*
X7884109Y1154887D01*
G37*
G36*
X7743139Y1082751D02*
G01*
X7743139Y1068019D01*
X7802321Y1068019D01*
X7808772Y1067765D01*
X7814309Y1066952D01*
X7818881Y1065530D01*
X7822590Y1063548D01*
X7825435Y1060958D01*
X7827416Y1057757D01*
X7828584Y1053947D01*
X7828991Y1049477D01*
X7828025Y1043533D01*
X7825130Y1037386D01*
X7820304Y1030935D01*
X7813497Y1024077D01*
X7743139Y1024077D01*
X7743139Y1009853D01*
X7802321Y1009853D01*
X7808772Y1009599D01*
X7814309Y1008735D01*
X7818881Y1007262D01*
X7822590Y1005230D01*
X7825435Y1002537D01*
X7827416Y999286D01*
X7828584Y995375D01*
X7828991Y990803D01*
X7828025Y985062D01*
X7825130Y978966D01*
X7820304Y972515D01*
X7813497Y965911D01*
X7743139Y965911D01*
X7743139Y951433D01*
X7839151Y951433D01*
X7839151Y963117D01*
X7824927Y964641D01*
X7824927Y965149D01*
X7831480Y971803D01*
X7836814Y978966D01*
X7840370Y986688D01*
X7841691Y994867D01*
X7840370Y1004824D01*
X7836611Y1012393D01*
X7830769Y1017879D01*
X7823149Y1021537D01*
X7830667Y1029208D01*
X7833817Y1033068D01*
X7836509Y1036980D01*
X7838694Y1040993D01*
X7840319Y1045057D01*
X7841335Y1049274D01*
X7841691Y1053541D01*
X7841081Y1060450D01*
X7839252Y1066393D01*
X7836306Y1071422D01*
X7832140Y1075486D01*
X7826806Y1078687D01*
X7820355Y1080973D01*
X7812786Y1082344D01*
X7804099Y1082751D01*
G37*
G36*
X7791145Y925271D02*
G01*
X7783474Y924864D01*
X7776362Y923645D01*
X7769859Y921664D01*
X7763967Y919022D01*
X7758734Y915771D01*
X7754061Y911961D01*
X7750098Y907643D01*
X7746847Y902919D01*
X7744256Y897839D01*
X7742377Y892505D01*
X7741208Y886866D01*
X7740853Y881075D01*
X7753045Y881075D01*
X7753756Y887323D01*
X7755788Y892962D01*
X7759039Y897940D01*
X7763509Y902157D01*
X7769047Y905611D01*
X7775549Y908151D01*
X7782915Y909777D01*
X7791145Y910285D01*
X7799324Y909777D01*
X7806791Y908151D01*
X7813294Y905611D01*
X7818881Y902157D01*
X7823403Y897940D01*
X7826705Y892962D01*
X7828788Y887323D01*
X7829499Y881075D01*
X7828788Y874877D01*
X7826705Y869238D01*
X7823403Y864260D01*
X7818881Y859993D01*
X7813294Y856589D01*
X7806791Y853998D01*
X7799324Y852424D01*
X7791145Y851865D01*
X7782915Y852424D01*
X7775549Y853998D01*
X7769047Y856589D01*
X7763509Y859993D01*
X7759039Y864260D01*
X7755788Y869238D01*
X7753756Y874877D01*
X7753045Y881075D01*
X7740853Y881075D01*
X7741208Y875284D01*
X7742377Y869645D01*
X7744256Y864209D01*
X7746847Y859129D01*
X7750098Y854405D01*
X7754061Y850137D01*
X7758734Y846328D01*
X7763967Y843127D01*
X7769859Y840486D01*
X7776362Y838555D01*
X7783474Y837336D01*
X7791145Y836879D01*
X7798866Y837336D01*
X7805978Y838555D01*
X7812531Y840486D01*
X7818475Y843127D01*
X7823758Y846328D01*
X7828432Y850137D01*
X7832394Y854405D01*
X7835696Y859129D01*
X7838287Y864209D01*
X7840167Y869645D01*
X7841284Y875284D01*
X7841691Y881075D01*
X7841284Y886866D01*
X7840167Y892505D01*
X7838287Y897839D01*
X7835696Y902919D01*
X7832394Y907643D01*
X7828432Y911961D01*
X7823758Y915771D01*
X7818475Y919022D01*
X7812531Y921664D01*
X7805978Y923645D01*
X7798866Y924864D01*
G37*
G36*
X7753045Y826719D02*
G01*
X7747914Y819912D01*
X7744104Y812393D01*
X7741666Y804316D01*
X7740853Y795731D01*
X7741208Y789533D01*
X7742377Y783640D01*
X7744256Y778052D01*
X7746847Y772871D01*
X7750098Y768146D01*
X7754061Y763879D01*
X7758734Y760171D01*
X7763967Y756970D01*
X7769859Y754481D01*
X7776362Y752602D01*
X7783474Y751433D01*
X7791145Y751027D01*
X7798866Y751484D01*
X7805978Y752754D01*
X7812531Y754786D01*
X7818475Y757478D01*
X7823758Y760831D01*
X7828432Y764743D01*
X7832394Y769213D01*
X7835696Y774090D01*
X7838287Y779322D01*
X7840167Y784910D01*
X7841284Y790752D01*
X7841691Y796747D01*
X7840776Y805586D01*
X7838236Y813053D01*
X7834630Y819454D01*
X7830261Y824941D01*
X7820863Y817067D01*
X7824368Y812800D01*
X7827060Y808126D01*
X7828838Y802995D01*
X7829499Y797255D01*
X7828788Y790752D01*
X7826705Y784809D01*
X7823403Y779475D01*
X7818881Y774903D01*
X7813294Y771144D01*
X7806791Y768400D01*
X7799324Y766622D01*
X7791145Y766013D01*
X7782915Y766622D01*
X7775549Y768248D01*
X7769047Y770940D01*
X7763509Y774598D01*
X7759039Y779068D01*
X7755788Y784352D01*
X7753756Y790346D01*
X7753045Y797001D01*
X7753807Y803554D01*
X7755839Y809701D01*
X7758938Y815289D01*
X7762697Y820115D01*
G37*
G36*
X7752283Y730707D02*
G01*
X7747609Y729894D01*
X7744002Y727557D01*
X7741666Y724103D01*
X7740853Y719785D01*
X7741666Y715619D01*
X7744002Y712165D01*
X7747609Y709777D01*
X7752283Y708863D01*
X7757109Y709777D01*
X7760766Y712165D01*
X7763154Y715619D01*
X7763967Y719785D01*
X7763154Y724103D01*
X7760766Y727557D01*
X7757109Y729894D01*
G37*
G36*
X7792923Y688543D02*
G01*
X7784947Y688187D01*
X7777581Y687019D01*
X7770825Y685139D01*
X7764729Y682650D01*
X7759293Y679602D01*
X7754518Y675995D01*
X7750403Y671931D01*
X7747000Y667461D01*
X7744358Y662635D01*
X7742428Y657504D01*
X7741259Y652170D01*
X7740853Y646633D01*
X7741094Y644601D01*
X7753045Y644601D01*
X7753756Y650697D01*
X7755788Y656234D01*
X7759141Y661162D01*
X7763713Y665378D01*
X7769402Y668832D01*
X7776159Y671423D01*
X7783931Y672998D01*
X7792669Y673557D01*
X7800441Y673201D01*
X7807502Y672084D01*
X7813802Y670153D01*
X7819186Y667410D01*
X7823504Y663702D01*
X7826756Y659130D01*
X7828788Y653542D01*
X7829499Y646887D01*
X7828584Y640537D01*
X7825943Y633933D01*
X7821574Y627075D01*
X7815529Y619963D01*
X7763713Y619963D01*
X7758734Y626668D01*
X7755432Y633171D01*
X7753603Y639216D01*
X7753045Y644601D01*
X7741094Y644601D01*
X7741666Y639775D01*
X7744104Y632714D01*
X7747914Y625703D01*
X7753045Y618947D01*
X7753045Y618693D01*
X7743139Y616915D01*
X7743139Y605485D01*
X7884871Y605485D01*
X7884871Y619963D01*
X7845501Y619963D01*
X7827721Y619201D01*
X7833207Y626364D01*
X7837627Y634034D01*
X7840624Y642061D01*
X7841691Y650189D01*
X7841284Y656234D01*
X7840116Y661771D01*
X7838186Y666800D01*
X7835595Y671322D01*
X7832293Y675335D01*
X7828330Y678840D01*
X7823809Y681786D01*
X7818628Y684225D01*
X7812938Y686104D01*
X7806740Y687476D01*
X7800086Y688289D01*
G37*
G36*
X7743139Y571957D02*
G01*
X7743139Y560019D01*
X7758379Y558749D01*
X7758379Y558241D01*
X7754620Y554888D01*
X7751216Y551383D01*
X7748270Y547776D01*
X7745679Y543966D01*
X7743647Y539953D01*
X7742123Y535686D01*
X7741158Y531114D01*
X7740853Y526237D01*
X7741462Y519277D01*
X7743240Y513283D01*
X7746238Y508304D01*
X7750352Y504240D01*
X7755636Y501192D01*
X7762036Y499008D01*
X7769555Y497738D01*
X7778191Y497281D01*
X7839151Y497281D01*
X7839151Y511505D01*
X7779969Y511505D01*
X7773568Y511809D01*
X7768132Y512622D01*
X7763560Y513994D01*
X7759903Y516026D01*
X7757058Y518617D01*
X7755077Y521919D01*
X7753908Y525881D01*
X7753553Y530555D01*
X7754518Y537768D01*
X7757566Y544322D01*
X7762748Y550773D01*
X7770317Y557479D01*
X7839151Y557479D01*
X7839151Y571957D01*
G37*
G36*
X7743139Y466801D02*
G01*
X7743139Y452323D01*
X7802321Y452323D01*
X7808772Y452069D01*
X7814309Y451256D01*
X7818881Y449884D01*
X7822590Y447852D01*
X7825435Y445262D01*
X7827416Y441959D01*
X7828584Y437997D01*
X7828991Y433273D01*
X7827975Y426161D01*
X7825028Y419557D01*
X7820202Y413004D01*
X7813497Y405841D01*
X7743139Y405841D01*
X7743139Y391617D01*
X7884871Y391617D01*
X7884871Y405841D01*
X7845501Y405841D01*
X7825435Y405333D01*
X7831734Y412496D01*
X7834477Y416204D01*
X7836865Y420065D01*
X7838897Y424078D01*
X7840370Y428345D01*
X7841335Y432816D01*
X7841691Y437591D01*
X7841081Y444652D01*
X7839252Y450646D01*
X7836306Y455676D01*
X7832140Y459740D01*
X7826806Y462889D01*
X7820355Y465074D01*
X7812786Y466394D01*
X7804099Y466801D01*
G37*
G36*
X7744409Y372059D02*
G01*
X7743088Y367944D01*
X7741970Y363575D01*
X7741158Y359206D01*
X7740853Y355041D01*
X7741412Y348183D01*
X7743139Y342493D01*
X7745831Y337870D01*
X7749489Y334314D01*
X7754061Y331724D01*
X7759395Y329946D01*
X7765440Y328980D01*
X7772095Y328625D01*
X7827213Y328625D01*
X7827213Y314147D01*
X7838389Y314147D01*
X7839151Y329133D01*
X7866329Y330911D01*
X7866329Y343103D01*
X7839151Y343103D01*
X7839151Y369519D01*
X7827213Y369519D01*
X7827213Y343103D01*
X7771587Y343103D01*
X7763713Y343865D01*
X7757820Y346354D01*
X7754061Y350926D01*
X7752791Y358089D01*
X7752994Y360934D01*
X7753603Y363880D01*
X7754518Y366776D01*
X7755585Y369265D01*
G37*
G36*
X7869885Y295351D02*
G01*
X7865719Y294589D01*
X7862519Y292506D01*
X7860436Y289356D01*
X7859725Y285445D01*
X7860436Y281330D01*
X7862519Y278079D01*
X7865719Y276047D01*
X7869885Y275285D01*
X7874000Y276047D01*
X7877098Y278079D01*
X7879080Y281330D01*
X7879791Y285445D01*
X7879080Y289356D01*
X7877098Y292506D01*
X7874000Y294589D01*
G37*
G36*
X7743139Y292557D02*
G01*
X7743139Y278079D01*
X7839151Y278079D01*
X7839151Y292557D01*
G37*
G36*
X7731455Y258775D02*
G01*
X7727137Y258419D01*
X7722920Y257302D01*
X7718907Y255422D01*
X7715148Y252933D01*
X7711643Y249732D01*
X7708493Y245871D01*
X7705699Y241452D01*
X7703261Y236423D01*
X7701330Y230835D01*
X7699908Y224739D01*
X7698994Y218135D01*
X7698776Y213055D01*
X7708595Y213055D01*
X7709052Y219913D01*
X7710373Y226060D01*
X7712405Y231394D01*
X7715097Y235966D01*
X7718247Y239623D01*
X7721752Y242316D01*
X7725511Y243992D01*
X7729423Y244551D01*
X7735316Y243281D01*
X7739176Y239471D01*
X7741259Y233222D01*
X7741869Y224485D01*
X7741970Y204419D01*
X7742936Y198069D01*
X7743647Y194767D01*
X7739532Y190042D01*
X7735214Y186842D01*
X7730794Y184962D01*
X7726375Y184353D01*
X7722514Y184861D01*
X7719110Y186334D01*
X7716062Y188722D01*
X7713472Y191973D01*
X7711389Y196088D01*
X7709865Y200964D01*
X7708900Y206654D01*
X7708595Y213055D01*
X7698776Y213055D01*
X7698689Y211023D01*
X7699095Y202539D01*
X7700416Y194868D01*
X7702499Y188112D01*
X7705445Y182372D01*
X7709153Y177749D01*
X7713573Y174294D01*
X7718755Y172161D01*
X7724597Y171399D01*
X7730642Y172415D01*
X7736484Y175209D01*
X7741920Y179679D01*
X7746695Y185623D01*
X7747203Y185623D01*
X7749895Y182270D01*
X7753502Y179527D01*
X7757922Y177698D01*
X7763205Y176987D01*
X7768793Y178003D01*
X7773720Y180543D01*
X7777784Y183997D01*
X7780985Y187655D01*
X7781493Y187655D01*
X7786065Y183032D01*
X7792110Y179070D01*
X7799324Y176276D01*
X7807655Y175209D01*
X7815021Y175971D01*
X7821625Y178054D01*
X7827467Y181406D01*
X7832394Y185775D01*
X7836357Y191058D01*
X7839252Y197104D01*
X7841081Y203708D01*
X7841691Y210769D01*
X7841488Y214629D01*
X7840878Y218135D01*
X7839151Y223977D01*
X7839151Y257251D01*
X7827975Y257251D01*
X7827975Y236931D01*
X7824012Y240284D01*
X7819186Y242976D01*
X7813497Y244703D01*
X7807147Y245313D01*
X7799882Y244652D01*
X7793329Y242671D01*
X7787589Y239471D01*
X7782763Y235305D01*
X7778851Y230225D01*
X7776006Y224332D01*
X7774228Y217830D01*
X7773619Y210769D01*
X7783525Y210769D01*
X7783931Y214985D01*
X7785201Y218948D01*
X7787284Y222554D01*
X7790078Y225755D01*
X7793532Y228396D01*
X7797647Y230378D01*
X7802372Y231698D01*
X7807655Y232105D01*
X7812735Y231698D01*
X7817256Y230428D01*
X7821218Y228447D01*
X7824520Y225856D01*
X7827213Y222656D01*
X7829143Y219049D01*
X7830362Y215087D01*
X7830769Y210769D01*
X7830362Y206451D01*
X7829194Y202387D01*
X7827264Y198729D01*
X7824622Y195529D01*
X7821320Y192887D01*
X7817358Y190906D01*
X7812786Y189636D01*
X7807655Y189179D01*
X7802372Y189636D01*
X7797647Y190957D01*
X7793532Y192938D01*
X7790078Y195630D01*
X7787284Y198831D01*
X7785201Y202488D01*
X7783931Y206502D01*
X7783525Y210769D01*
X7773619Y210769D01*
X7773822Y207060D01*
X7774533Y203250D01*
X7775651Y199491D01*
X7777175Y196037D01*
X7774787Y193548D01*
X7772095Y191566D01*
X7768894Y190195D01*
X7764983Y189687D01*
X7760716Y190500D01*
X7757363Y193243D01*
X7755128Y198475D01*
X7754315Y206705D01*
X7754315Y225755D01*
X7753959Y233527D01*
X7752943Y240284D01*
X7751216Y245922D01*
X7748778Y250596D01*
X7745577Y254152D01*
X7741666Y256743D01*
X7736941Y258267D01*
G37*
G36*
X7605268Y2052726D02*
G01*
X7597546Y2052269D01*
X7590434Y2051050D01*
X7583931Y2049068D01*
X7577988Y2046427D01*
X7572756Y2043175D01*
X7568133Y2039366D01*
X7564170Y2035098D01*
X7560919Y2030374D01*
X7558328Y2025294D01*
X7556500Y2019909D01*
X7555382Y2014270D01*
X7554975Y2008530D01*
X7566914Y2008530D01*
X7567625Y2014728D01*
X7569708Y2020366D01*
X7573009Y2025345D01*
X7577531Y2029612D01*
X7583119Y2033016D01*
X7589621Y2035606D01*
X7597089Y2037181D01*
X7605268Y2037740D01*
X7613396Y2037181D01*
X7620762Y2035606D01*
X7627264Y2033016D01*
X7632801Y2029612D01*
X7637272Y2025345D01*
X7640624Y2020366D01*
X7642656Y2014728D01*
X7643368Y2008530D01*
X7642656Y2002282D01*
X7640624Y1996643D01*
X7637272Y1991664D01*
X7632801Y1987448D01*
X7627264Y1983993D01*
X7620762Y1981454D01*
X7613396Y1979828D01*
X7605268Y1979320D01*
X7597089Y1979828D01*
X7589621Y1981454D01*
X7583119Y1983993D01*
X7577531Y1987448D01*
X7573009Y1991664D01*
X7569708Y1996643D01*
X7567625Y2002282D01*
X7566914Y2008530D01*
X7554975Y2008530D01*
X7555382Y2002688D01*
X7556500Y1997049D01*
X7558328Y1991664D01*
X7560919Y1986534D01*
X7564170Y1981860D01*
X7568133Y1977542D01*
X7572756Y1973783D01*
X7577988Y1970532D01*
X7583931Y1967890D01*
X7590434Y1965960D01*
X7597546Y1964740D01*
X7605268Y1964334D01*
X7612989Y1964740D01*
X7620152Y1965960D01*
X7626654Y1967890D01*
X7632598Y1970532D01*
X7637881Y1973783D01*
X7642555Y1977542D01*
X7646517Y1981860D01*
X7649819Y1986534D01*
X7652410Y1991664D01*
X7654290Y1997049D01*
X7655458Y2002688D01*
X7655814Y2008530D01*
X7655458Y2014270D01*
X7654290Y2019909D01*
X7652410Y2025294D01*
X7649819Y2030374D01*
X7646517Y2035098D01*
X7642555Y2039366D01*
X7637881Y2043175D01*
X7632598Y2046427D01*
X7626654Y2049068D01*
X7620152Y2051050D01*
X7612989Y2052269D01*
G37*
G36*
X7557262Y1939696D02*
G01*
X7557262Y1924964D01*
X7616444Y1924964D01*
X7622946Y1924659D01*
X7628432Y1923846D01*
X7633055Y1922475D01*
X7636764Y1920493D01*
X7639558Y1917903D01*
X7641539Y1914652D01*
X7642758Y1910740D01*
X7643114Y1906168D01*
X7642148Y1898954D01*
X7639151Y1892350D01*
X7634224Y1885746D01*
X7627366Y1878736D01*
X7557262Y1878736D01*
X7557262Y1864258D01*
X7653274Y1864258D01*
X7653274Y1875942D01*
X7639303Y1877466D01*
X7639303Y1877974D01*
X7645653Y1885035D01*
X7648448Y1888743D01*
X7650886Y1892655D01*
X7652918Y1896719D01*
X7654493Y1900986D01*
X7655458Y1905507D01*
X7655814Y1910232D01*
X7655204Y1917242D01*
X7653375Y1923288D01*
X7650378Y1928368D01*
X7646162Y1932482D01*
X7640828Y1935632D01*
X7634376Y1937918D01*
X7626858Y1939239D01*
X7618222Y1939696D01*
G37*
G36*
X7684008Y1833778D02*
G01*
X7679740Y1833016D01*
X7676540Y1830882D01*
X7674559Y1827631D01*
X7673848Y1823618D01*
X7674559Y1819605D01*
X7676540Y1816455D01*
X7679740Y1814423D01*
X7684008Y1813712D01*
X7687970Y1814423D01*
X7691018Y1816455D01*
X7692999Y1819605D01*
X7693659Y1823618D01*
X7692999Y1827631D01*
X7691018Y1830882D01*
X7687970Y1833016D01*
G37*
G36*
X7557262Y1830730D02*
G01*
X7557262Y1816506D01*
X7653274Y1816506D01*
X7653274Y1830730D01*
G37*
G36*
X7557262Y1782724D02*
G01*
X7557262Y1771040D01*
X7572502Y1769770D01*
X7572502Y1769262D01*
X7568742Y1765807D01*
X7565390Y1762252D01*
X7562392Y1758594D01*
X7559852Y1754784D01*
X7557770Y1750771D01*
X7556246Y1746504D01*
X7555331Y1742033D01*
X7554975Y1737258D01*
X7555585Y1730248D01*
X7557363Y1724202D01*
X7560309Y1719173D01*
X7564424Y1715109D01*
X7569657Y1711960D01*
X7576108Y1709775D01*
X7583627Y1708454D01*
X7592314Y1708048D01*
X7653274Y1708048D01*
X7653274Y1722526D01*
X7594092Y1722526D01*
X7587691Y1722780D01*
X7582204Y1723542D01*
X7577632Y1724914D01*
X7573924Y1726844D01*
X7571028Y1729435D01*
X7569047Y1732686D01*
X7567828Y1736648D01*
X7567422Y1741322D01*
X7568438Y1748485D01*
X7571536Y1755089D01*
X7576870Y1761591D01*
X7584440Y1768500D01*
X7653274Y1768500D01*
X7653274Y1782724D01*
G37*
G36*
X7557262Y1675790D02*
G01*
X7557262Y1663852D01*
X7568692Y1662582D01*
X7568692Y1662074D01*
X7563358Y1655825D01*
X7558989Y1648714D01*
X7556042Y1640839D01*
X7555359Y1635404D01*
X7567168Y1635404D01*
X7568031Y1642211D01*
X7570622Y1648714D01*
X7574889Y1655013D01*
X7580884Y1661312D01*
X7632700Y1661312D01*
X7637576Y1655013D01*
X7640878Y1649018D01*
X7642758Y1643024D01*
X7643368Y1636928D01*
X7642656Y1630933D01*
X7640574Y1625396D01*
X7637221Y1620469D01*
X7632700Y1616252D01*
X7627162Y1612747D01*
X7620660Y1610156D01*
X7613345Y1608531D01*
X7605268Y1607972D01*
X7596835Y1608429D01*
X7589367Y1609801D01*
X7582814Y1612036D01*
X7577378Y1615084D01*
X7573009Y1618996D01*
X7569809Y1623720D01*
X7567828Y1629156D01*
X7567168Y1635404D01*
X7555359Y1635404D01*
X7554975Y1632356D01*
X7555382Y1626514D01*
X7556449Y1621028D01*
X7558328Y1615948D01*
X7560868Y1611325D01*
X7564120Y1607159D01*
X7568031Y1603502D01*
X7572654Y1600301D01*
X7577886Y1597609D01*
X7583830Y1595526D01*
X7590332Y1593951D01*
X7597495Y1593037D01*
X7605268Y1592732D01*
X7612786Y1593138D01*
X7619796Y1594307D01*
X7626248Y1596136D01*
X7632141Y1598676D01*
X7637475Y1601774D01*
X7642148Y1605381D01*
X7646212Y1609445D01*
X7649616Y1613916D01*
X7652258Y1618742D01*
X7654239Y1623822D01*
X7655407Y1629156D01*
X7655814Y1634642D01*
X7655052Y1642414D01*
X7652766Y1649272D01*
X7649159Y1655673D01*
X7644384Y1662074D01*
X7661148Y1661312D01*
X7698740Y1661312D01*
X7698740Y1675790D01*
G37*
G36*
X7653528Y1585620D02*
G01*
X7640828Y1582826D01*
X7642199Y1578406D01*
X7642606Y1573682D01*
X7641386Y1567332D01*
X7637475Y1560779D01*
X7630414Y1554530D01*
X7619746Y1549044D01*
X7557262Y1549044D01*
X7557262Y1534566D01*
X7653274Y1534566D01*
X7653274Y1546250D01*
X7635494Y1547774D01*
X7635494Y1548282D01*
X7643825Y1553819D01*
X7650225Y1560322D01*
X7654340Y1567637D01*
X7655814Y1575460D01*
X7655661Y1578305D01*
X7655255Y1580896D01*
X7654544Y1583283D01*
G37*
G36*
X7557262Y1517040D02*
G01*
X7557262Y1501292D01*
X7598156Y1488338D01*
X7598156Y1484782D01*
X7609840Y1484782D01*
X7647381Y1472539D01*
X7675118Y1464462D01*
X7675118Y1463700D01*
X7652766Y1457147D01*
X7609840Y1443634D01*
X7609840Y1484782D01*
X7598156Y1484782D01*
X7598156Y1439824D01*
X7557262Y1426616D01*
X7557262Y1411884D01*
X7687309Y1456334D01*
X7687309Y1472336D01*
G37*
G36*
X7582916Y1404264D02*
G01*
X7577328Y1403705D01*
X7572146Y1402029D01*
X7567371Y1399286D01*
X7563256Y1395476D01*
X7559802Y1390650D01*
X7557211Y1384757D01*
X7555534Y1377848D01*
X7554975Y1369974D01*
X7555230Y1364843D01*
X7555992Y1359865D01*
X7557160Y1354988D01*
X7558684Y1350314D01*
X7560614Y1345895D01*
X7562799Y1341678D01*
X7565288Y1337767D01*
X7567930Y1334160D01*
X7577836Y1341526D01*
X7573111Y1347876D01*
X7569453Y1354632D01*
X7567015Y1362100D01*
X7566152Y1370482D01*
X7567422Y1379270D01*
X7570876Y1385570D01*
X7576007Y1389278D01*
X7582408Y1390548D01*
X7589062Y1388516D01*
X7594092Y1383334D01*
X7598003Y1376070D01*
X7605268Y1357680D01*
X7607757Y1352905D01*
X7610652Y1348536D01*
X7614158Y1344879D01*
X7618272Y1341983D01*
X7623149Y1340154D01*
X7628890Y1339494D01*
X7634376Y1340053D01*
X7639405Y1341678D01*
X7643977Y1344371D01*
X7647990Y1348028D01*
X7651242Y1352702D01*
X7653731Y1358341D01*
X7655255Y1364843D01*
X7655814Y1372260D01*
X7655001Y1380693D01*
X7652664Y1388465D01*
X7649260Y1395425D01*
X7645146Y1401470D01*
X7635494Y1394358D01*
X7638897Y1389329D01*
X7641640Y1384046D01*
X7643469Y1378407D01*
X7644130Y1372260D01*
X7642961Y1363980D01*
X7639862Y1358188D01*
X7635240Y1354836D01*
X7629652Y1353718D01*
X7623403Y1355394D01*
X7618831Y1360017D01*
X7615326Y1366672D01*
X7610246Y1379880D01*
X7608011Y1385163D01*
X7605420Y1390192D01*
X7602423Y1394714D01*
X7598816Y1398574D01*
X7594447Y1401622D01*
X7589215Y1403553D01*
G37*
G36*
X7557262Y1313840D02*
G01*
X7557262Y1301902D01*
X7568946Y1300632D01*
X7568946Y1300124D01*
X7563459Y1292910D01*
X7559040Y1285036D01*
X7556042Y1276654D01*
X7555438Y1271676D01*
X7566659Y1271676D01*
X7567523Y1278686D01*
X7570012Y1285494D01*
X7574178Y1292301D01*
X7579868Y1299362D01*
X7608062Y1299362D01*
X7606436Y1287627D01*
X7604353Y1277874D01*
X7601864Y1270000D01*
X7598918Y1263853D01*
X7595565Y1259281D01*
X7591806Y1256182D01*
X7587589Y1254455D01*
X7582916Y1253896D01*
X7575448Y1255268D01*
X7570419Y1259078D01*
X7567574Y1264716D01*
X7566659Y1271676D01*
X7555438Y1271676D01*
X7554975Y1267866D01*
X7555433Y1262075D01*
X7556703Y1256741D01*
X7558887Y1251966D01*
X7561884Y1247902D01*
X7565694Y1244549D01*
X7570317Y1242009D01*
X7575702Y1240434D01*
X7581900Y1239926D01*
X7586929Y1240282D01*
X7591552Y1241450D01*
X7595768Y1243431D01*
X7599527Y1246174D01*
X7602981Y1249781D01*
X7606030Y1254201D01*
X7608722Y1259484D01*
X7611109Y1265631D01*
X7613142Y1272692D01*
X7614920Y1280668D01*
X7616444Y1289507D01*
X7617714Y1299362D01*
X7622641Y1299210D01*
X7627366Y1298600D01*
X7631734Y1297381D01*
X7635646Y1295450D01*
X7638897Y1292758D01*
X7641437Y1289202D01*
X7643063Y1284630D01*
X7643622Y1279042D01*
X7642656Y1270558D01*
X7640218Y1262786D01*
X7636764Y1255826D01*
X7632953Y1249832D01*
X7643114Y1243990D01*
X7647482Y1251153D01*
X7649616Y1255369D01*
X7651546Y1259992D01*
X7653274Y1264920D01*
X7654645Y1270101D01*
X7655509Y1275588D01*
X7655814Y1281328D01*
X7655509Y1286814D01*
X7654544Y1291742D01*
X7652969Y1296162D01*
X7650835Y1300022D01*
X7648143Y1303375D01*
X7644942Y1306220D01*
X7641234Y1308608D01*
X7637119Y1310538D01*
X7632547Y1312011D01*
X7627620Y1313027D01*
X7622336Y1313637D01*
X7616698Y1313840D01*
G37*
G36*
X7606792Y1222908D02*
G01*
X7598918Y1222502D01*
X7591602Y1221333D01*
X7584897Y1219454D01*
X7578801Y1216914D01*
X7573365Y1213815D01*
X7568590Y1210208D01*
X7564526Y1206093D01*
X7561122Y1201572D01*
X7558481Y1196746D01*
X7556550Y1191615D01*
X7555382Y1186230D01*
X7554975Y1180744D01*
X7555231Y1178712D01*
X7567168Y1178712D01*
X7567879Y1184757D01*
X7569911Y1190294D01*
X7573264Y1195222D01*
X7577836Y1199438D01*
X7583474Y1202893D01*
X7590231Y1205484D01*
X7597902Y1207109D01*
X7606538Y1207668D01*
X7614412Y1207312D01*
X7621524Y1206195D01*
X7627823Y1204315D01*
X7633157Y1201572D01*
X7637475Y1197914D01*
X7640675Y1193292D01*
X7642707Y1187653D01*
X7643368Y1180998D01*
X7642504Y1174597D01*
X7639862Y1167993D01*
X7635544Y1161135D01*
X7629652Y1154074D01*
X7577581Y1154074D01*
X7572654Y1160729D01*
X7569453Y1167231D01*
X7567675Y1173327D01*
X7567168Y1178712D01*
X7555231Y1178712D01*
X7555839Y1173886D01*
X7558227Y1166774D01*
X7562037Y1159764D01*
X7567168Y1153058D01*
X7567168Y1152804D01*
X7557262Y1151026D01*
X7557262Y1139850D01*
X7698740Y1139850D01*
X7698740Y1154074D01*
X7659370Y1154074D01*
X7641844Y1153312D01*
X7647228Y1160475D01*
X7651699Y1168146D01*
X7654696Y1176121D01*
X7655814Y1184300D01*
X7655407Y1190345D01*
X7654239Y1195882D01*
X7652308Y1200912D01*
X7649667Y1205484D01*
X7646314Y1209497D01*
X7642352Y1213002D01*
X7637780Y1215999D01*
X7632598Y1218488D01*
X7626908Y1220419D01*
X7620660Y1221790D01*
X7613954Y1222603D01*
G37*
G36*
X7605268Y1113688D02*
G01*
X7597546Y1113231D01*
X7590434Y1112012D01*
X7583931Y1110030D01*
X7577988Y1107389D01*
X7572756Y1104138D01*
X7568133Y1100328D01*
X7564170Y1096010D01*
X7560919Y1091234D01*
X7558328Y1086154D01*
X7556500Y1080719D01*
X7555382Y1075080D01*
X7554975Y1069238D01*
X7566914Y1069238D01*
X7567625Y1075436D01*
X7569708Y1081125D01*
X7573009Y1086154D01*
X7577531Y1090422D01*
X7583119Y1093927D01*
X7589621Y1096518D01*
X7597089Y1098143D01*
X7605268Y1098702D01*
X7613396Y1098143D01*
X7620762Y1096518D01*
X7627264Y1093927D01*
X7632801Y1090422D01*
X7637272Y1086154D01*
X7640624Y1081125D01*
X7642656Y1075436D01*
X7643368Y1069238D01*
X7642656Y1063040D01*
X7640624Y1057402D01*
X7637272Y1052474D01*
X7632801Y1048258D01*
X7627264Y1044854D01*
X7620762Y1042365D01*
X7613396Y1040790D01*
X7605268Y1040282D01*
X7597089Y1040790D01*
X7589621Y1042365D01*
X7583119Y1044854D01*
X7577531Y1048258D01*
X7573009Y1052474D01*
X7569708Y1057402D01*
X7567625Y1063040D01*
X7566914Y1069238D01*
X7554975Y1069238D01*
X7555382Y1063447D01*
X7556500Y1057859D01*
X7558328Y1052474D01*
X7560919Y1047445D01*
X7564170Y1042771D01*
X7568133Y1038504D01*
X7572756Y1034694D01*
X7577988Y1031494D01*
X7583931Y1028852D01*
X7590434Y1026921D01*
X7597546Y1025702D01*
X7605268Y1025296D01*
X7612989Y1025702D01*
X7620152Y1026921D01*
X7626654Y1028852D01*
X7632598Y1031494D01*
X7637881Y1034694D01*
X7642555Y1038504D01*
X7646517Y1042771D01*
X7649819Y1047445D01*
X7652410Y1052474D01*
X7654290Y1057859D01*
X7655458Y1063447D01*
X7655814Y1069238D01*
X7655458Y1075080D01*
X7654290Y1080719D01*
X7652410Y1086154D01*
X7649819Y1091234D01*
X7646517Y1096010D01*
X7642555Y1100328D01*
X7637881Y1104138D01*
X7632598Y1107389D01*
X7626654Y1110030D01*
X7620152Y1112012D01*
X7612989Y1113231D01*
G37*
G36*
X7610602Y1008278D02*
G01*
X7606030Y1008176D01*
X7601966Y1007516D01*
X7601966Y995578D01*
X7612634Y995578D01*
X7619898Y995121D01*
X7626197Y993851D01*
X7631582Y991768D01*
X7636002Y988923D01*
X7639405Y985367D01*
X7641894Y981100D01*
X7643368Y976172D01*
X7643875Y970686D01*
X7643368Y965403D01*
X7641793Y960424D01*
X7639202Y955802D01*
X7635697Y951636D01*
X7631226Y948029D01*
X7625892Y945083D01*
X7619695Y942949D01*
X7612634Y941730D01*
X7612634Y995578D01*
X7601966Y995578D01*
X7601966Y941984D01*
X7594295Y942898D01*
X7587437Y944829D01*
X7581341Y947775D01*
X7576210Y951636D01*
X7572044Y956310D01*
X7568946Y961847D01*
X7567066Y968044D01*
X7566406Y975004D01*
X7566964Y981760D01*
X7568539Y988060D01*
X7571028Y993902D01*
X7574280Y999388D01*
X7564628Y1004722D01*
X7560868Y998118D01*
X7557820Y990752D01*
X7555738Y982522D01*
X7554975Y973226D01*
X7555382Y966978D01*
X7556500Y961034D01*
X7558379Y955395D01*
X7560970Y950112D01*
X7564272Y945286D01*
X7568234Y940968D01*
X7572857Y937107D01*
X7578140Y933907D01*
X7584033Y931265D01*
X7590536Y929335D01*
X7597597Y928166D01*
X7605268Y927760D01*
X7612786Y928166D01*
X7619796Y929386D01*
X7626248Y931316D01*
X7632141Y933907D01*
X7637475Y937056D01*
X7642148Y940816D01*
X7646212Y944981D01*
X7649616Y949553D01*
X7652258Y954430D01*
X7654239Y959561D01*
X7655407Y964946D01*
X7655814Y970432D01*
X7655458Y976223D01*
X7654391Y981608D01*
X7652664Y986485D01*
X7650327Y990955D01*
X7647279Y994918D01*
X7643672Y998372D01*
X7639507Y1001369D01*
X7634731Y1003808D01*
X7629448Y1005738D01*
X7623657Y1007110D01*
X7617358Y1007973D01*
G37*
G36*
X7557262Y915060D02*
G01*
X7557262Y898550D01*
X7613396Y866038D01*
X7613396Y841654D01*
X7625588Y841654D01*
X7625588Y864260D01*
X7625994Y871677D01*
X7627162Y878230D01*
X7629093Y883818D01*
X7631836Y888390D01*
X7635443Y892048D01*
X7639862Y894638D01*
X7645095Y896213D01*
X7651242Y896772D01*
X7657388Y896213D01*
X7662519Y894638D01*
X7666685Y892048D01*
X7669987Y888390D01*
X7672425Y883818D01*
X7674102Y878230D01*
X7675067Y871677D01*
X7675372Y864260D01*
X7675372Y841654D01*
X7557262Y841654D01*
X7557262Y826922D01*
X7687309Y826922D01*
X7687309Y866546D01*
X7687106Y872998D01*
X7686497Y879144D01*
X7685430Y884834D01*
X7683906Y890117D01*
X7681874Y894892D01*
X7679283Y899160D01*
X7676184Y902817D01*
X7672476Y905967D01*
X7668158Y908405D01*
X7663180Y910234D01*
X7657541Y911352D01*
X7651242Y911758D01*
X7644028Y911199D01*
X7637576Y909574D01*
X7631887Y906983D01*
X7627010Y903478D01*
X7622844Y899109D01*
X7619441Y893927D01*
X7616799Y888085D01*
X7614920Y881532D01*
G37*
G36*
X7558531Y806094D02*
G01*
X7556093Y797560D01*
X7555280Y793242D01*
X7554975Y789076D01*
X7555534Y782167D01*
X7557211Y776478D01*
X7559903Y771906D01*
X7563561Y768350D01*
X7568082Y765708D01*
X7573416Y763930D01*
X7579461Y762965D01*
X7586218Y762660D01*
X7641336Y762660D01*
X7641336Y748182D01*
X7652258Y748182D01*
X7653274Y763168D01*
X7680452Y764946D01*
X7680452Y777138D01*
X7653274Y777138D01*
X7653274Y803554D01*
X7641336Y803554D01*
X7641336Y777138D01*
X7585709Y777138D01*
X7577836Y777849D01*
X7571943Y780338D01*
X7568234Y784961D01*
X7566914Y792124D01*
X7567117Y794918D01*
X7567625Y797864D01*
X7568438Y800760D01*
X7569453Y803300D01*
G37*
G36*
X7697724Y748436D02*
G01*
X7686548Y745134D01*
X7687767Y742391D01*
X7688630Y739546D01*
X7689138Y736803D01*
X7689342Y734212D01*
X7688072Y728065D01*
X7684312Y723696D01*
X7678216Y721106D01*
X7669784Y720242D01*
X7653274Y720242D01*
X7653274Y741070D01*
X7641336Y741070D01*
X7641336Y720242D01*
X7557262Y720242D01*
X7557262Y705764D01*
X7641336Y705764D01*
X7641336Y692556D01*
X7652258Y692556D01*
X7653274Y705764D01*
X7670038Y705764D01*
X7676896Y706170D01*
X7683042Y707440D01*
X7688325Y709523D01*
X7692796Y712470D01*
X7696301Y716280D01*
X7698892Y720953D01*
X7700518Y726490D01*
X7701025Y732942D01*
X7700822Y737057D01*
X7700162Y741070D01*
X7699095Y744829D01*
G37*
G36*
X7605268Y677570D02*
G01*
X7597546Y677113D01*
X7590434Y675894D01*
X7583931Y673912D01*
X7577988Y671271D01*
X7572756Y668020D01*
X7568133Y664210D01*
X7564170Y659892D01*
X7560919Y655116D01*
X7558328Y650036D01*
X7556500Y644601D01*
X7555382Y638962D01*
X7554975Y633120D01*
X7566914Y633120D01*
X7567625Y639318D01*
X7569708Y645007D01*
X7573009Y650036D01*
X7577531Y654304D01*
X7583119Y657809D01*
X7589621Y660400D01*
X7597089Y662025D01*
X7605268Y662584D01*
X7613396Y662025D01*
X7620762Y660400D01*
X7627264Y657809D01*
X7632801Y654304D01*
X7637272Y650036D01*
X7640624Y645007D01*
X7642656Y639318D01*
X7643368Y633120D01*
X7642656Y626922D01*
X7640624Y621284D01*
X7637272Y616356D01*
X7632801Y612140D01*
X7627264Y608736D01*
X7620762Y606247D01*
X7613396Y604672D01*
X7605268Y604164D01*
X7597089Y604672D01*
X7589621Y606247D01*
X7583119Y608736D01*
X7577531Y612140D01*
X7573009Y616356D01*
X7569708Y621284D01*
X7567625Y626922D01*
X7566914Y633120D01*
X7554975Y633120D01*
X7555382Y627329D01*
X7556500Y621741D01*
X7558328Y616356D01*
X7560919Y611327D01*
X7564170Y606653D01*
X7568133Y602386D01*
X7572756Y598576D01*
X7577988Y595376D01*
X7583931Y592734D01*
X7590434Y590804D01*
X7597546Y589584D01*
X7605268Y589178D01*
X7612989Y589584D01*
X7620152Y590804D01*
X7626654Y592734D01*
X7632598Y595376D01*
X7637881Y598576D01*
X7642555Y602386D01*
X7646517Y606653D01*
X7649819Y611327D01*
X7652410Y616356D01*
X7654290Y621741D01*
X7655458Y627329D01*
X7655814Y633120D01*
X7655458Y638962D01*
X7654290Y644601D01*
X7652410Y650036D01*
X7649819Y655116D01*
X7646517Y659892D01*
X7642555Y664210D01*
X7637881Y668020D01*
X7632598Y671271D01*
X7626654Y673912D01*
X7620152Y675894D01*
X7612989Y677113D01*
G37*
G36*
X7591298Y571906D02*
G01*
X7586319Y571550D01*
X7581544Y570484D01*
X7577074Y568807D01*
X7572857Y566470D01*
X7568996Y563575D01*
X7565542Y560070D01*
X7562494Y555955D01*
X7559903Y551383D01*
X7557820Y546303D01*
X7556246Y540715D01*
X7555331Y534670D01*
X7554975Y528218D01*
X7555331Y521411D01*
X7556296Y514908D01*
X7557922Y508711D01*
X7560157Y502818D01*
X7562951Y497332D01*
X7566253Y492150D01*
X7570012Y487375D01*
X7574280Y483006D01*
X7584440Y491896D01*
X7580833Y495554D01*
X7577581Y499567D01*
X7574737Y503885D01*
X7572400Y508406D01*
X7570470Y513181D01*
X7569098Y518058D01*
X7568234Y523087D01*
X7567930Y528218D01*
X7568336Y534517D01*
X7569555Y540207D01*
X7571435Y545084D01*
X7574076Y549198D01*
X7577277Y552500D01*
X7581138Y554939D01*
X7585456Y556412D01*
X7590281Y556920D01*
X7595108Y556463D01*
X7599172Y555193D01*
X7602575Y553161D01*
X7605471Y550468D01*
X7607960Y547217D01*
X7610144Y543407D01*
X7624724Y511200D01*
X7627315Y506577D01*
X7630414Y502158D01*
X7634020Y498093D01*
X7638338Y494538D01*
X7643317Y491794D01*
X7649159Y489966D01*
X7655814Y489356D01*
X7660589Y489712D01*
X7665110Y490728D01*
X7669326Y492353D01*
X7673289Y494588D01*
X7676845Y497433D01*
X7680045Y500735D01*
X7682839Y504545D01*
X7685176Y508812D01*
X7687056Y513435D01*
X7688478Y518464D01*
X7689291Y523849D01*
X7689596Y529488D01*
X7689291Y535228D01*
X7688427Y540766D01*
X7687005Y545998D01*
X7685125Y550976D01*
X7682788Y555599D01*
X7680045Y559866D01*
X7676997Y563778D01*
X7673594Y567334D01*
X7664196Y559714D01*
X7669377Y553313D01*
X7673289Y546201D01*
X7675778Y538276D01*
X7676642Y529488D01*
X7676286Y524103D01*
X7675270Y519226D01*
X7673594Y514908D01*
X7671308Y511301D01*
X7668463Y508304D01*
X7665059Y506171D01*
X7661198Y504799D01*
X7656830Y504342D01*
X7648244Y506323D01*
X7642098Y511403D01*
X7637678Y518363D01*
X7626096Y544728D01*
X7623505Y550164D01*
X7620609Y555294D01*
X7617256Y559917D01*
X7613446Y563930D01*
X7609078Y567232D01*
X7603947Y569772D01*
X7598054Y571347D01*
G37*
D10*
X10298440Y4208668D02*
G01*
X10298440Y4125541D01*
X10340004Y4167103D02*
G01*
X10256878Y4167103D01*
X10170980Y4222526D02*
G01*
X10217160Y4222526D01*
X10221780Y4180961D01*
X10217160Y4185579D01*
X10203306Y4190194D01*
X10189451Y4190194D01*
X10175598Y4185579D01*
X10166360Y4176341D01*
X10161742Y4162488D01*
X10161742Y4153253D01*
X10166360Y4139394D01*
X10175598Y4130161D01*
X10189451Y4125541D01*
X10203306Y4125541D01*
X10217160Y4130161D01*
X10221780Y4134779D01*
X10226398Y4144015D01*
X10277678Y3982526D02*
G01*
X10277678Y3885544D01*
X10310004Y3982526D02*
G01*
X10245349Y3982526D01*
X10214869Y3982526D02*
G01*
X10150215Y3885544D01*
X10150215Y3982526D02*
G01*
X10214869Y3885544D01*
X10310004Y3742527D02*
G01*
X10310004Y3645545D01*
X10310004Y3742527D02*
G01*
X10268440Y3742527D01*
X10254587Y3737907D01*
X10249969Y3733289D01*
X10245349Y3724054D01*
X10245349Y3714818D01*
X10249969Y3705580D01*
X10254587Y3700962D01*
X10268440Y3696345D01*
X10310004Y3696345D01*
X10277678Y3696345D02*
G01*
X10245349Y3645545D01*
X10214869Y3742527D02*
G01*
X10150215Y3645545D01*
X10150215Y3742527D02*
G01*
X10214869Y3645545D01*
X10400004Y3472527D02*
G01*
X10400004Y3375545D01*
X10400004Y3472527D02*
G01*
X10358440Y3472527D01*
X10344586Y3467907D01*
X10339969Y3463289D01*
X10335348Y3454054D01*
X10335348Y3444819D01*
X10339969Y3435581D01*
X10344586Y3430963D01*
X10358440Y3426345D01*
X10400004Y3426345D01*
X10367678Y3426345D02*
G01*
X10335348Y3375545D01*
X10304868Y3472527D02*
G01*
X10304868Y3375545D01*
X10304868Y3472527D02*
G01*
X10244833Y3472527D01*
X10304868Y3426345D02*
G01*
X10267924Y3426345D01*
X10304868Y3375545D02*
G01*
X10244833Y3375545D01*
X10149700Y3458672D02*
G01*
X10158935Y3467907D01*
X10172788Y3472527D01*
X10191262Y3472527D01*
X10205118Y3467907D01*
X10214353Y3458672D01*
X10214353Y3449436D01*
X10209735Y3440198D01*
X10205118Y3435581D01*
X10195880Y3430963D01*
X10168171Y3421727D01*
X10158935Y3417107D01*
X10154318Y3412489D01*
X10149700Y3403254D01*
X10149700Y3389398D01*
X10158935Y3380163D01*
X10172788Y3375545D01*
X10191262Y3375545D01*
X10205118Y3380163D01*
X10214353Y3389398D01*
X10160731Y3179434D02*
G01*
X10165349Y3188670D01*
X10174587Y3197905D01*
X10183822Y3202525D01*
X10202296Y3202525D01*
X10211531Y3197905D01*
X10220769Y3188670D01*
X10225387Y3179434D01*
X10230004Y3165579D01*
X10230004Y3142487D01*
X10225387Y3128634D01*
X10220769Y3119396D01*
X10211531Y3110161D01*
X10202296Y3105543D01*
X10183822Y3105543D01*
X10174587Y3110161D01*
X10165349Y3119396D01*
X10160731Y3128634D01*
X10160731Y3142487D01*
X10183822Y3142487D02*
G01*
X10160731Y3142487D01*
X11190005Y3651275D02*
G01*
X11139096Y3517638D01*
X11088187Y3651275D02*
G01*
X11139096Y3517638D01*
X11046188Y3651275D02*
G01*
X11039822Y3644912D01*
X11033460Y3651275D01*
X11039822Y3657638D01*
X11046188Y3651275D01*
X11039822Y3606731D02*
G01*
X11039822Y3517638D01*
X10991461Y3606731D02*
G01*
X10991461Y3517638D01*
X10991461Y3581275D02*
G01*
X10972370Y3600366D01*
X10959642Y3606731D01*
X10940552Y3606731D01*
X10927824Y3600366D01*
X10921461Y3581275D01*
X10921461Y3517638D01*
X10834916Y3676731D02*
G01*
X10847641Y3664003D01*
X10860369Y3644912D01*
X10873097Y3619456D01*
X10879460Y3587638D01*
X10879460Y3562184D01*
X10873097Y3530366D01*
X10860369Y3504912D01*
X10847641Y3485822D01*
X10834916Y3473094D01*
X10742005Y3651275D02*
G01*
X10792914Y3517638D01*
X10742005Y3651275D02*
G01*
X10691096Y3517638D01*
X10773824Y3562184D02*
G01*
X10710189Y3562184D01*
X10649097Y3606731D02*
G01*
X10649097Y3517638D01*
X10649097Y3568547D02*
G01*
X10642734Y3587638D01*
X10630006Y3600366D01*
X10617278Y3606731D01*
X10598188Y3606731D01*
X10479824Y3651275D02*
G01*
X10479824Y3517638D01*
X10479824Y3587638D02*
G01*
X10492552Y3600366D01*
X10505279Y3606731D01*
X10524370Y3606731D01*
X10537098Y3600366D01*
X10549823Y3587638D01*
X10556189Y3568547D01*
X10556189Y3555822D01*
X10549823Y3536731D01*
X10537098Y3524003D01*
X10524370Y3517638D01*
X10505279Y3517638D01*
X10492552Y3524003D01*
X10479824Y3536731D01*
X10437825Y3676731D02*
G01*
X10425097Y3664003D01*
X10412371Y3644912D01*
X10399643Y3619456D01*
X10393278Y3587638D01*
X10393278Y3562184D01*
X10399643Y3530366D01*
X10412371Y3504912D01*
X10425097Y3485822D01*
X10437825Y3473094D01*
X10686369Y3630002D02*
G01*
X10686369Y3711821D01*
X10727278Y3741821D02*
G01*
X10686369Y3814549D01*
X10645460Y3741821D01*
D11*
X9926010Y2958251D02*
G01*
X10009068Y2958251D01*
X10024816Y2963585D01*
X10029896Y2968665D01*
X10034976Y2979079D01*
X10034976Y2989493D01*
X10029896Y2999907D01*
X10024816Y3005241D01*
X10009068Y3010321D01*
X9998654Y3010321D01*
X9951918Y2918881D02*
G01*
X9946838Y2918881D01*
X9936424Y2913801D01*
X9931090Y2908467D01*
X9926010Y2898053D01*
X9926010Y2877225D01*
X9931090Y2866811D01*
X9936424Y2861731D01*
X9946838Y2856651D01*
X9957252Y2856651D01*
X9967666Y2861731D01*
X9983160Y2872145D01*
X10034976Y2923961D01*
X10034976Y2851317D01*
X8881905Y2705564D02*
G01*
X8887101Y2715955D01*
X8897493Y2726347D01*
X8907881Y2731541D01*
X8928663Y2731541D01*
X8939055Y2726347D01*
X8949446Y2715955D01*
X8954643Y2705564D01*
X8959837Y2689976D01*
X8959837Y2664000D01*
X8954643Y2648414D01*
X8949446Y2638023D01*
X8939055Y2627632D01*
X8928663Y2622438D01*
X8907881Y2622438D01*
X8897493Y2627632D01*
X8887101Y2638023D01*
X8881905Y2648414D01*
X8847615Y2710759D02*
G01*
X8837223Y2715955D01*
X8821638Y2731541D01*
X8821638Y2622438D01*
D12*
X8519899Y3041401D02*
G01*
X8519899Y3123189D01*
X8479005Y3082295D02*
G01*
X8560793Y3082295D01*
D13*
X9110004Y3032729D02*
G01*
X9100913Y3037273D01*
X9087276Y3050910D01*
X9087276Y2955455D01*
X9030004Y3050910D02*
G01*
X9043642Y3046364D01*
X9052732Y3032729D01*
X9057276Y3010001D01*
X9057276Y2996364D01*
X9052732Y2973638D01*
X9043642Y2960001D01*
X9030004Y2955455D01*
X9020914Y2955455D01*
X9007276Y2960001D01*
X8998186Y2973638D01*
X8993642Y2996364D01*
X8993642Y3010001D01*
X8998186Y3032729D01*
X9007276Y3046364D01*
X9020914Y3050910D01*
X9030004Y3050910D01*
X8936367Y3050910D02*
G01*
X8950004Y3046364D01*
X8959095Y3032729D01*
X8963642Y3010001D01*
X8963642Y2996364D01*
X8959095Y2973638D01*
X8950004Y2960001D01*
X8936367Y2955455D01*
X8927277Y2955455D01*
X8913642Y2960001D01*
X8904551Y2973638D01*
X8900005Y2996364D01*
X8900005Y3010001D01*
X8904551Y3032729D01*
X8913642Y3046364D01*
X8927277Y3050910D01*
X8936367Y3050910D01*
X8842733Y3050910D02*
G01*
X8856367Y3046364D01*
X8865458Y3032729D01*
X8870005Y3010001D01*
X8870005Y2996364D01*
X8865458Y2973638D01*
X8856367Y2960001D01*
X8842733Y2955455D01*
X8833642Y2955455D01*
X8820005Y2960001D01*
X8810914Y2973638D01*
X8806367Y2996364D01*
X8806367Y3010001D01*
X8810914Y3032729D01*
X8820005Y3046364D01*
X8833642Y3050910D01*
X8842733Y3050910D01*
X8776368Y3019092D02*
G01*
X8776368Y2973638D01*
X8771823Y2960001D01*
X8762733Y2955455D01*
X8749096Y2955455D01*
X8740005Y2960001D01*
X8726368Y2973638D01*
X8726368Y3019092D02*
G01*
X8726368Y2955455D01*
X8696368Y3050910D02*
G01*
X8696368Y2955455D01*
X8696368Y3050910D02*
G01*
X8637277Y3050910D01*
X8696368Y3005454D02*
G01*
X8660005Y3005454D01*
D11*
X8941605Y361439D02*
G01*
X8941605Y283507D01*
X8936410Y267921D01*
X8926019Y257530D01*
X8910431Y252336D01*
X8900040Y252336D01*
X8884455Y257530D01*
X8874064Y267921D01*
X8868869Y283507D01*
X8868869Y361439D01*
X8834579Y340657D02*
G01*
X8824188Y345854D01*
X8808600Y361439D01*
X8808600Y252336D01*
D10*
X8490003Y3702527D02*
G01*
X8490003Y3605545D01*
X8490003Y3702527D02*
G01*
X8448438Y3702527D01*
X8434585Y3697907D01*
X8429967Y3693289D01*
X8425347Y3684054D01*
X8425347Y3674818D01*
X8429967Y3665580D01*
X8434585Y3660962D01*
X8448438Y3656345D01*
X8490003Y3656345D01*
X8457676Y3656345D02*
G01*
X8425347Y3605545D01*
X8394867Y3702527D02*
G01*
X8394867Y3605545D01*
X8394867Y3702527D02*
G01*
X8334832Y3702527D01*
X8394867Y3656345D02*
G01*
X8357923Y3656345D01*
X8394867Y3605545D02*
G01*
X8334832Y3605545D01*
X8239699Y3688671D02*
G01*
X8248934Y3697907D01*
X8262787Y3702527D01*
X8281261Y3702527D01*
X8295116Y3697907D01*
X8304352Y3688671D01*
X8304352Y3679436D01*
X8299734Y3670198D01*
X8295116Y3665580D01*
X8285878Y3660962D01*
X8258169Y3651727D01*
X8248934Y3647107D01*
X8244316Y3642489D01*
X8239699Y3633254D01*
X8239699Y3619398D01*
X8248934Y3610162D01*
X8262787Y3605545D01*
X8281261Y3605545D01*
X8295116Y3610162D01*
X8304352Y3619398D01*
X8353178Y3055373D02*
G01*
X8390008Y2958345D01*
X8353178Y3055373D02*
G01*
X8316094Y2958345D01*
X8376038Y2990857D02*
G01*
X8330064Y2990857D01*
X8221098Y3055373D02*
G01*
X8267072Y2958345D01*
X8285614Y3055373D02*
G01*
X8221098Y3055373D01*
X8353173Y2785374D02*
G01*
X8390003Y2688346D01*
X8353173Y2785374D02*
G01*
X8316089Y2688346D01*
X8376033Y2720858D02*
G01*
X8330059Y2720858D01*
X8230237Y2771658D02*
G01*
X8234809Y2780802D01*
X8248779Y2785374D01*
X8257923Y2785374D01*
X8271893Y2780802D01*
X8281037Y2766832D01*
X8285609Y2743972D01*
X8285609Y2720858D01*
X8281037Y2702316D01*
X8271893Y2693172D01*
X8257923Y2688346D01*
X8253351Y2688346D01*
X8239381Y2693172D01*
X8230237Y2702316D01*
X8225665Y2716032D01*
X8225665Y2720858D01*
X8230237Y2734574D01*
X8239381Y2743972D01*
X8253351Y2748544D01*
X8257923Y2748544D01*
X8271893Y2743972D01*
X8281037Y2734574D01*
X8285609Y2720858D01*
X8353173Y2525372D02*
G01*
X8390003Y2428344D01*
X8353173Y2525372D02*
G01*
X8316089Y2428344D01*
X8376033Y2460856D02*
G01*
X8330059Y2460856D01*
X8230237Y2525372D02*
G01*
X8276465Y2525372D01*
X8281037Y2483970D01*
X8276465Y2488542D01*
X8262495Y2493114D01*
X8248779Y2493114D01*
X8234809Y2488542D01*
X8225665Y2479144D01*
X8221093Y2465428D01*
X8221093Y2456030D01*
X8225665Y2442314D01*
X8234809Y2433170D01*
X8248779Y2428344D01*
X8262495Y2428344D01*
X8276465Y2433170D01*
X8281037Y2437742D01*
X8285609Y2446886D01*
X8363173Y2265372D02*
G01*
X8400003Y2168344D01*
X8363173Y2265372D02*
G01*
X8326089Y2168344D01*
X8386033Y2200856D02*
G01*
X8340059Y2200856D01*
X8249381Y2265372D02*
G01*
X8295609Y2200856D01*
X8226267Y2200856D01*
X8249381Y2265372D02*
G01*
X8249381Y2168344D01*
X8373173Y2015373D02*
G01*
X8410003Y1918345D01*
X8373173Y2015373D02*
G01*
X8336089Y1918345D01*
X8396033Y1950857D02*
G01*
X8350059Y1950857D01*
X8296465Y2015373D02*
G01*
X8245665Y2015373D01*
X8273351Y1978543D01*
X8259381Y1978543D01*
X8250237Y1973971D01*
X8245665Y1969145D01*
X8241093Y1955429D01*
X8241093Y1946031D01*
X8245665Y1932315D01*
X8254809Y1923171D01*
X8268779Y1918345D01*
X8282495Y1918345D01*
X8296465Y1923171D01*
X8301037Y1927743D01*
X8305609Y1936887D01*
X8373173Y1775373D02*
G01*
X8410003Y1678345D01*
X8373173Y1775373D02*
G01*
X8336089Y1678345D01*
X8396033Y1710857D02*
G01*
X8350059Y1710857D01*
X8301037Y1752259D02*
G01*
X8301037Y1756831D01*
X8296465Y1766229D01*
X8291893Y1770801D01*
X8282495Y1775373D01*
X8263953Y1775373D01*
X8254809Y1770801D01*
X8250237Y1766229D01*
X8245665Y1756831D01*
X8245665Y1747687D01*
X8250237Y1738543D01*
X8259381Y1724573D01*
X8305609Y1678345D01*
X8241093Y1678345D01*
X8333173Y1515371D02*
G01*
X8370003Y1418343D01*
X8333173Y1515371D02*
G01*
X8296089Y1418343D01*
X8356033Y1450855D02*
G01*
X8310059Y1450855D01*
X8265609Y1496829D02*
G01*
X8256465Y1501655D01*
X8242495Y1515371D01*
X8242495Y1418343D01*
X8363173Y1265372D02*
G01*
X8400003Y1168344D01*
X8363173Y1265372D02*
G01*
X8326089Y1168344D01*
X8386033Y1200856D02*
G01*
X8340059Y1200856D01*
X8267923Y1265372D02*
G01*
X8281893Y1260800D01*
X8291037Y1246830D01*
X8295609Y1223970D01*
X8295609Y1210000D01*
X8291037Y1186886D01*
X8281893Y1173170D01*
X8267923Y1168344D01*
X8258779Y1168344D01*
X8244809Y1173170D01*
X8235665Y1186886D01*
X8231093Y1210000D01*
X8231093Y1223970D01*
X8235665Y1246830D01*
X8244809Y1260800D01*
X8258779Y1265372D01*
X8267923Y1265372D01*
X8553175Y1015372D02*
G01*
X8590005Y918344D01*
X8553175Y1015372D02*
G01*
X8516091Y918344D01*
X8576035Y950856D02*
G01*
X8530061Y950856D01*
X8485611Y1015372D02*
G01*
X8485611Y918344D01*
X8485611Y1015372D02*
G01*
X8443955Y1015372D01*
X8430239Y1010800D01*
X8425667Y1006228D01*
X8421095Y996830D01*
X8421095Y987686D01*
X8425667Y978542D01*
X8430239Y973970D01*
X8443955Y969144D01*
X8485611Y969144D01*
X8453353Y969144D02*
G01*
X8421095Y918344D01*
X8390615Y1015372D02*
G01*
X8390615Y918344D01*
X8390615Y1015372D02*
G01*
X8330417Y1015372D01*
X8390615Y969144D02*
G01*
X8353531Y969144D01*
X8390615Y918344D02*
G01*
X8330417Y918344D01*
X8299937Y1015372D02*
G01*
X8299937Y918344D01*
X8299937Y1015372D02*
G01*
X8239993Y1015372D01*
X8299937Y969144D02*
G01*
X8263107Y969144D01*
X8490861Y765373D02*
G01*
X8440061Y765373D01*
X8467747Y728543D01*
X8453777Y728543D01*
X8444633Y723971D01*
X8440061Y719145D01*
X8435235Y705429D01*
X8435235Y696031D01*
X8440061Y682315D01*
X8449205Y673171D01*
X8463175Y668345D01*
X8476891Y668345D01*
X8490861Y673171D01*
X8495433Y677743D01*
X8500005Y686887D01*
X8404755Y765373D02*
G01*
X8367925Y668345D01*
X8331095Y765373D02*
G01*
X8367925Y668345D01*
X8291217Y765373D02*
G01*
X8240417Y765373D01*
X8268103Y728543D01*
X8254387Y728543D01*
X8244989Y723971D01*
X8240417Y719145D01*
X8235845Y705429D01*
X8235845Y696031D01*
X8240417Y682315D01*
X8249815Y673171D01*
X8263531Y668345D01*
X8277501Y668345D01*
X8291217Y673171D01*
X8295789Y677743D01*
X8300615Y686887D01*
X9438109Y767326D02*
G01*
X9438109Y670344D01*
X9438109Y767326D02*
G01*
X9405782Y767326D01*
X9391926Y762706D01*
X9382691Y753470D01*
X9378073Y744235D01*
X9373453Y730379D01*
X9373453Y707288D01*
X9378073Y693435D01*
X9382691Y684197D01*
X9391926Y674961D01*
X9405782Y670344D01*
X9438109Y670344D01*
X9342973Y748852D02*
G01*
X9333738Y753470D01*
X9319884Y767326D01*
X9319884Y670344D01*
X9289404Y748852D02*
G01*
X9280166Y753470D01*
X9266313Y767326D01*
X9266313Y670344D01*
X9438109Y1010173D02*
G01*
X9438109Y913145D01*
X9438109Y1010173D02*
G01*
X9405851Y1010173D01*
X9391881Y1005601D01*
X9382737Y996457D01*
X9378165Y987059D01*
X9373339Y973343D01*
X9373339Y950229D01*
X9378165Y936259D01*
X9382737Y927115D01*
X9391881Y917971D01*
X9405851Y913145D01*
X9438109Y913145D01*
X9342859Y991631D02*
G01*
X9333715Y996457D01*
X9319999Y1010173D01*
X9319999Y913145D01*
X9261579Y1010173D02*
G01*
X9275549Y1005601D01*
X9284693Y991631D01*
X9289519Y968771D01*
X9289519Y954801D01*
X9284693Y931687D01*
X9275549Y917971D01*
X9261579Y913145D01*
X9252435Y913145D01*
X9238719Y917971D01*
X9229321Y931687D01*
X9224749Y954801D01*
X9224749Y968771D01*
X9229321Y991631D01*
X9238719Y1005601D01*
X9252435Y1010173D01*
X9261579Y1010173D01*
X9438109Y1280172D02*
G01*
X9438109Y1183144D01*
X9438109Y1280172D02*
G01*
X9405851Y1280172D01*
X9391881Y1275600D01*
X9382737Y1266456D01*
X9378165Y1257058D01*
X9373339Y1243342D01*
X9373339Y1220228D01*
X9378165Y1206258D01*
X9382737Y1197114D01*
X9391881Y1187970D01*
X9405851Y1183144D01*
X9438109Y1183144D01*
X9282915Y1247914D02*
G01*
X9287487Y1233944D01*
X9296885Y1224800D01*
X9310601Y1220228D01*
X9315173Y1220228D01*
X9329143Y1224800D01*
X9338287Y1233944D01*
X9342859Y1247914D01*
X9342859Y1252486D01*
X9338287Y1266456D01*
X9329143Y1275600D01*
X9315173Y1280172D01*
X9310601Y1280172D01*
X9296885Y1275600D01*
X9287487Y1266456D01*
X9282915Y1247914D01*
X9282915Y1224800D01*
X9287487Y1201686D01*
X9296885Y1187970D01*
X9310601Y1183144D01*
X9319999Y1183144D01*
X9333715Y1187970D01*
X9338287Y1197114D01*
X9438109Y1530172D02*
G01*
X9438109Y1433144D01*
X9438109Y1530172D02*
G01*
X9405851Y1530172D01*
X9391881Y1525600D01*
X9382737Y1516456D01*
X9378165Y1507058D01*
X9373339Y1493342D01*
X9373339Y1470228D01*
X9378165Y1456258D01*
X9382737Y1447114D01*
X9391881Y1437970D01*
X9405851Y1433144D01*
X9438109Y1433144D01*
X9319999Y1530172D02*
G01*
X9333715Y1525600D01*
X9338287Y1516456D01*
X9338287Y1507058D01*
X9333715Y1497914D01*
X9324571Y1493342D01*
X9306029Y1488770D01*
X9292059Y1483944D01*
X9282915Y1474800D01*
X9278343Y1465656D01*
X9278343Y1451686D01*
X9282915Y1442542D01*
X9287487Y1437970D01*
X9301457Y1433144D01*
X9319999Y1433144D01*
X9333715Y1437970D01*
X9338287Y1442542D01*
X9342859Y1451686D01*
X9342859Y1465656D01*
X9338287Y1474800D01*
X9329143Y1483944D01*
X9315173Y1488770D01*
X9296885Y1493342D01*
X9287487Y1497914D01*
X9282915Y1507058D01*
X9282915Y1516456D01*
X9287487Y1525600D01*
X9301457Y1530172D01*
X9319999Y1530172D01*
X9438109Y1780174D02*
G01*
X9438109Y1683146D01*
X9438109Y1780174D02*
G01*
X9405851Y1780174D01*
X9391881Y1775602D01*
X9382737Y1766458D01*
X9378165Y1757060D01*
X9373339Y1743344D01*
X9373339Y1720230D01*
X9378165Y1706260D01*
X9382737Y1697116D01*
X9391881Y1687972D01*
X9405851Y1683146D01*
X9438109Y1683146D01*
X9278343Y1780174D02*
G01*
X9324571Y1683146D01*
X9342859Y1780174D02*
G01*
X9278343Y1780174D01*
X9438109Y2040173D02*
G01*
X9438109Y1943145D01*
X9438109Y2040173D02*
G01*
X9405851Y2040173D01*
X9391881Y2035601D01*
X9382737Y2026457D01*
X9378165Y2017059D01*
X9373339Y2003343D01*
X9373339Y1980229D01*
X9378165Y1966259D01*
X9382737Y1957115D01*
X9391881Y1947971D01*
X9405851Y1943145D01*
X9438109Y1943145D01*
X9287487Y2026457D02*
G01*
X9292059Y2035601D01*
X9306029Y2040173D01*
X9315173Y2040173D01*
X9329143Y2035601D01*
X9338287Y2021631D01*
X9342859Y1998771D01*
X9342859Y1975657D01*
X9338287Y1957115D01*
X9329143Y1947971D01*
X9315173Y1943145D01*
X9310601Y1943145D01*
X9296885Y1947971D01*
X9287487Y1957115D01*
X9282915Y1970831D01*
X9282915Y1975657D01*
X9287487Y1989373D01*
X9296885Y1998771D01*
X9310601Y2003343D01*
X9315173Y2003343D01*
X9329143Y1998771D01*
X9338287Y1989373D01*
X9342859Y1975657D01*
X9438109Y2310173D02*
G01*
X9438109Y2213145D01*
X9438109Y2310173D02*
G01*
X9405851Y2310173D01*
X9391881Y2305601D01*
X9382737Y2296457D01*
X9378165Y2287059D01*
X9373339Y2273343D01*
X9373339Y2250229D01*
X9378165Y2236259D01*
X9382737Y2227115D01*
X9391881Y2217971D01*
X9405851Y2213145D01*
X9438109Y2213145D01*
X9287487Y2310173D02*
G01*
X9333715Y2310173D01*
X9338287Y2268771D01*
X9333715Y2273343D01*
X9319999Y2277915D01*
X9306029Y2277915D01*
X9292059Y2273343D01*
X9282915Y2263945D01*
X9278343Y2250229D01*
X9278343Y2240831D01*
X9282915Y2227115D01*
X9292059Y2217971D01*
X9306029Y2213145D01*
X9319999Y2213145D01*
X9333715Y2217971D01*
X9338287Y2222543D01*
X9342859Y2231687D01*
X9438109Y2550172D02*
G01*
X9438109Y2453144D01*
X9438109Y2550172D02*
G01*
X9405851Y2550172D01*
X9391881Y2545600D01*
X9382737Y2536456D01*
X9378165Y2527058D01*
X9373339Y2513342D01*
X9373339Y2490228D01*
X9378165Y2476258D01*
X9382737Y2467114D01*
X9391881Y2457970D01*
X9405851Y2453144D01*
X9438109Y2453144D01*
X9296885Y2550172D02*
G01*
X9342859Y2485656D01*
X9273771Y2485656D01*
X9296885Y2550172D02*
G01*
X9296885Y2453144D01*
X9438106Y2800174D02*
G01*
X9438106Y2703146D01*
X9438106Y2800174D02*
G01*
X9405848Y2800174D01*
X9391878Y2795602D01*
X9382734Y2786458D01*
X9378162Y2777060D01*
X9373336Y2763344D01*
X9373336Y2740230D01*
X9378162Y2726260D01*
X9382734Y2717116D01*
X9391878Y2707972D01*
X9405848Y2703146D01*
X9438106Y2703146D01*
X9333712Y2800174D02*
G01*
X9282912Y2800174D01*
X9310598Y2763344D01*
X9296882Y2763344D01*
X9287484Y2758772D01*
X9282912Y2753946D01*
X9278340Y2740230D01*
X9278340Y2730832D01*
X9282912Y2717116D01*
X9292056Y2707972D01*
X9306026Y2703146D01*
X9319996Y2703146D01*
X9333712Y2707972D01*
X9338284Y2712544D01*
X9342856Y2721688D01*
X9440003Y2985373D02*
G01*
X9440003Y2888345D01*
X9440003Y2985373D02*
G01*
X9407745Y2985373D01*
X9393775Y2980801D01*
X9384631Y2971657D01*
X9380059Y2962259D01*
X9375233Y2948543D01*
X9375233Y2925429D01*
X9380059Y2911459D01*
X9384631Y2902315D01*
X9393775Y2893171D01*
X9407745Y2888345D01*
X9440003Y2888345D01*
X9340181Y2962259D02*
G01*
X9340181Y2966831D01*
X9335609Y2976229D01*
X9331037Y2980801D01*
X9321893Y2985373D01*
X9303351Y2985373D01*
X9293953Y2980801D01*
X9289381Y2976229D01*
X9284809Y2966831D01*
X9284809Y2957687D01*
X9289381Y2948543D01*
X9298779Y2934573D01*
X9344753Y2888345D01*
X9280237Y2888345D01*
X9440003Y3712527D02*
G01*
X9440003Y3615545D01*
X9440003Y3712527D02*
G01*
X9398439Y3712527D01*
X9384586Y3707907D01*
X9379968Y3703289D01*
X9375348Y3694054D01*
X9375348Y3684818D01*
X9379968Y3675580D01*
X9384586Y3670962D01*
X9398439Y3666345D01*
X9440003Y3666345D01*
X9407677Y3666345D02*
G01*
X9375348Y3615545D01*
X9344868Y3712527D02*
G01*
X9344868Y3615545D01*
X9344868Y3712527D02*
G01*
X9284832Y3712527D01*
X9344868Y3666345D02*
G01*
X9307923Y3666345D01*
X9344868Y3615545D02*
G01*
X9284832Y3615545D01*
X9189699Y3698671D02*
G01*
X9198935Y3707907D01*
X9212788Y3712527D01*
X9231261Y3712527D01*
X9245117Y3707907D01*
X9254352Y3698671D01*
X9254352Y3689436D01*
X9249735Y3680198D01*
X9245117Y3675580D01*
X9235879Y3670962D01*
X9208170Y3661727D01*
X9198935Y3657107D01*
X9194317Y3652489D01*
X9189699Y3643254D01*
X9189699Y3629398D01*
X9198935Y3620162D01*
X9212788Y3615545D01*
X9231261Y3615545D01*
X9245117Y3620162D01*
X9254352Y3629398D01*
X9410004Y3892527D02*
G01*
X9410004Y3795544D01*
X9410004Y3892527D02*
G01*
X9368439Y3892527D01*
X9354586Y3887906D01*
X9349968Y3883289D01*
X9345348Y3874053D01*
X9345348Y3864818D01*
X9349968Y3855580D01*
X9354586Y3850962D01*
X9368439Y3846344D01*
X9410004Y3846344D01*
X9377677Y3846344D02*
G01*
X9345348Y3795544D01*
X9314868Y3892527D02*
G01*
X9250215Y3795544D01*
X9250215Y3892527D02*
G01*
X9314868Y3795544D01*
X9408835Y3284235D02*
G01*
X9413453Y3293470D01*
X9422691Y3302706D01*
X9431926Y3307326D01*
X9450400Y3307326D01*
X9459635Y3302706D01*
X9468873Y3293470D01*
X9473491Y3284235D01*
X9478109Y3270379D01*
X9478109Y3247288D01*
X9473491Y3233435D01*
X9468873Y3224197D01*
X9459635Y3214961D01*
X9450400Y3210344D01*
X9431926Y3210344D01*
X9422691Y3214961D01*
X9413453Y3224197D01*
X9408835Y3233435D01*
X9408835Y3247288D01*
X9431926Y3247288D02*
G01*
X9408835Y3247288D01*
X8450003Y532523D02*
G01*
X8450003Y435541D01*
X8450003Y532523D02*
G01*
X8417676Y532523D01*
X8403821Y527903D01*
X8394585Y518668D01*
X8389967Y509432D01*
X8385347Y495576D01*
X8385347Y472485D01*
X8389967Y458632D01*
X8394585Y449394D01*
X8403821Y440159D01*
X8417676Y435541D01*
X8450003Y435541D01*
X8354867Y514050D02*
G01*
X8345632Y518668D01*
X8331779Y532523D01*
X8331779Y435541D01*
X8292061Y532523D02*
G01*
X8241261Y532523D01*
X8268970Y495576D01*
X8255116Y495576D01*
X8245878Y490959D01*
X8241261Y486341D01*
X8236643Y472485D01*
X8236643Y463250D01*
X8241261Y449394D01*
X8250499Y440159D01*
X8264352Y435541D01*
X8278207Y435541D01*
X8292061Y440159D01*
X8296678Y444776D01*
X8301299Y454014D01*
X8440003Y4085374D02*
G01*
X8403173Y3988346D01*
X8366089Y4085374D02*
G01*
X8403173Y3988346D01*
X8335609Y4085374D02*
G01*
X8335609Y3988346D01*
X8305129Y4085374D02*
G01*
X8305129Y3988346D01*
X8305129Y4085374D02*
G01*
X8240613Y3988346D01*
X8240613Y4085374D02*
G01*
X8240613Y3988346D01*
X9438109Y527324D02*
G01*
X9438109Y430342D01*
X9438109Y527324D02*
G01*
X9405782Y527324D01*
X9391926Y522704D01*
X9382691Y513468D01*
X9378073Y504233D01*
X9373453Y490377D01*
X9373453Y467286D01*
X9378073Y453433D01*
X9382691Y444195D01*
X9391926Y434959D01*
X9405782Y430342D01*
X9438109Y430342D01*
X9342973Y508850D02*
G01*
X9333738Y513468D01*
X9319884Y527324D01*
X9319884Y430342D01*
X9284784Y504233D02*
G01*
X9284784Y508850D01*
X9280166Y518086D01*
X9275549Y522704D01*
X9266313Y527324D01*
X9247840Y527324D01*
X9238604Y522704D01*
X9233984Y518086D01*
X9229366Y508850D01*
X9229366Y499615D01*
X9233984Y490377D01*
X9243222Y476524D01*
X9289404Y430342D01*
X9224749Y430342D01*
X8348428Y3468679D02*
G01*
X8348428Y3385553D01*
X8389993Y3427115D02*
G01*
X8306866Y3427115D01*
X8220969Y3482535D02*
G01*
X8267148Y3482535D01*
X8271769Y3440971D01*
X8267148Y3445588D01*
X8253295Y3450206D01*
X8239439Y3450206D01*
X8225586Y3445588D01*
X8216348Y3436353D01*
X8211731Y3422497D01*
X8211731Y3413262D01*
X8216348Y3399406D01*
X8225586Y3390171D01*
X8239439Y3385553D01*
X8253295Y3385553D01*
X8267148Y3390171D01*
X8271769Y3394788D01*
X8276386Y3404026D01*
X8430663Y3872260D02*
G01*
X8435235Y3881658D01*
X8444633Y3890802D01*
X8453777Y3895374D01*
X8472319Y3895374D01*
X8481463Y3890802D01*
X8490861Y3881658D01*
X8495433Y3872260D01*
X8500005Y3858544D01*
X8500005Y3835430D01*
X8495433Y3821460D01*
X8490861Y3812316D01*
X8481463Y3803172D01*
X8472319Y3798346D01*
X8453777Y3798346D01*
X8444633Y3803172D01*
X8435235Y3812316D01*
X8430663Y3821460D01*
X8430663Y3835430D01*
X8453777Y3835430D02*
G01*
X8430663Y3835430D01*
X8400183Y3895374D02*
G01*
X8400183Y3798346D01*
X8400183Y3895374D02*
G01*
X8335667Y3798346D01*
X8335667Y3895374D02*
G01*
X8335667Y3798346D01*
X8305187Y3895374D02*
G01*
X8305187Y3798346D01*
X8305187Y3895374D02*
G01*
X8272675Y3895374D01*
X8258959Y3890802D01*
X8249815Y3881658D01*
X8244989Y3872260D01*
X8240417Y3858544D01*
X8240417Y3835430D01*
X8244989Y3821460D01*
X8249815Y3812316D01*
X8258959Y3803172D01*
X8272675Y3798346D01*
X8305187Y3798346D01*
X9387677Y4062526D02*
G01*
X9387677Y3965544D01*
X9420004Y4062526D02*
G01*
X9355348Y4062526D01*
X9324868Y4062526D02*
G01*
X9260215Y3965544D01*
X9260215Y4062526D02*
G01*
X9324868Y3965544D01*
D11*
X11350005Y595337D02*
G01*
X11350005Y486234D01*
X11350005Y595337D02*
G01*
X11313637Y595337D01*
X11298049Y590143D01*
X11287660Y579752D01*
X11282464Y569361D01*
X11277269Y553773D01*
X11277269Y527796D01*
X11282464Y512211D01*
X11287660Y501820D01*
X11298049Y491429D01*
X11313637Y486234D01*
X11350005Y486234D01*
X11242979Y574555D02*
G01*
X11232588Y579752D01*
X11217000Y595337D01*
X11217000Y486234D01*
X11027935Y4025318D02*
G01*
X11027935Y3942260D01*
X11033269Y3926512D01*
X11038349Y3921432D01*
X11048763Y3916352D01*
X11059177Y3916352D01*
X11069591Y3921432D01*
X11074925Y3926512D01*
X11080005Y3942260D01*
X11080005Y3952674D01*
X10993645Y4004490D02*
G01*
X10983485Y4009824D01*
X10967737Y4025318D01*
X10967737Y3916352D01*
X10750006Y1235339D02*
G01*
X10750006Y1157406D01*
X10744812Y1141821D01*
X10734420Y1131430D01*
X10718833Y1126236D01*
X10708441Y1126236D01*
X10692856Y1131430D01*
X10682465Y1141821D01*
X10677270Y1157406D01*
X10677270Y1235339D01*
X10632589Y1235339D02*
G01*
X10575439Y1235339D01*
X10606610Y1193774D01*
X10591025Y1193774D01*
X10580634Y1188580D01*
X10575439Y1183386D01*
X10570243Y1167798D01*
X10570243Y1157406D01*
X10575439Y1141821D01*
X10585831Y1131430D01*
X10601416Y1126236D01*
X10617001Y1126236D01*
X10632589Y1131430D01*
X10637784Y1136624D01*
X10642981Y1147015D01*
X11460005Y3485316D02*
G01*
X11460005Y3376350D01*
X11460005Y3485316D02*
G01*
X11413269Y3485316D01*
X11397775Y3480236D01*
X11392441Y3474902D01*
X11387361Y3464488D01*
X11387361Y3448994D01*
X11392441Y3438580D01*
X11397775Y3433500D01*
X11413269Y3428166D01*
X11460005Y3428166D01*
X11353071Y3464488D02*
G01*
X11342657Y3469822D01*
X11326909Y3485316D01*
X11326909Y3376350D01*
X12032035Y3359414D02*
G01*
X12037369Y3369828D01*
X12047783Y3380242D01*
X12057943Y3385322D01*
X12078771Y3385322D01*
X12089185Y3380242D01*
X12099599Y3369828D01*
X12104933Y3359414D01*
X12110013Y3343666D01*
X12110013Y3317758D01*
X12104933Y3302264D01*
X12099599Y3291850D01*
X12089185Y3281436D01*
X12078771Y3276356D01*
X12057943Y3276356D01*
X12047783Y3281436D01*
X12037369Y3291850D01*
X12032035Y3302264D01*
X11997745Y3385322D02*
G01*
X11997745Y3276356D01*
X11997745Y3385322D02*
G01*
X11925101Y3276356D01*
X11925101Y3385322D02*
G01*
X11925101Y3276356D01*
X11890811Y3364494D02*
G01*
X11880397Y3369828D01*
X11864903Y3385322D01*
X11864903Y3276356D01*
X11482029Y2329418D02*
G01*
X11487363Y2339832D01*
X11497777Y2350246D01*
X11507937Y2355326D01*
X11528765Y2355326D01*
X11539179Y2350246D01*
X11549593Y2339832D01*
X11554927Y2329418D01*
X11560007Y2313670D01*
X11560007Y2287762D01*
X11554927Y2272268D01*
X11549593Y2261854D01*
X11539179Y2251440D01*
X11528765Y2246360D01*
X11507937Y2246360D01*
X11497777Y2251440D01*
X11487363Y2261854D01*
X11482029Y2272268D01*
X11447739Y2355326D02*
G01*
X11447739Y2246360D01*
X11447739Y2355326D02*
G01*
X11375095Y2246360D01*
X11375095Y2355326D02*
G01*
X11375095Y2246360D01*
X11335471Y2329418D02*
G01*
X11335471Y2334498D01*
X11330391Y2344912D01*
X11325057Y2350246D01*
X11314897Y2355326D01*
X11294069Y2355326D01*
X11283655Y2350246D01*
X11278321Y2344912D01*
X11273241Y2334498D01*
X11273241Y2324084D01*
X11278321Y2313670D01*
X11288735Y2298176D01*
X11340805Y2246360D01*
X11267907Y2246360D01*
X12042035Y1229405D02*
G01*
X12047369Y1239819D01*
X12057783Y1250233D01*
X12067943Y1255313D01*
X12088771Y1255313D01*
X12099185Y1250233D01*
X12109599Y1239819D01*
X12114933Y1229405D01*
X12120013Y1213657D01*
X12120013Y1187749D01*
X12114933Y1172255D01*
X12109599Y1161841D01*
X12099185Y1151427D01*
X12088771Y1146347D01*
X12067943Y1146347D01*
X12057783Y1151427D01*
X12047369Y1161841D01*
X12042035Y1172255D01*
X12007745Y1255313D02*
G01*
X12007745Y1146347D01*
X12007745Y1255313D02*
G01*
X11935101Y1146347D01*
X11935101Y1255313D02*
G01*
X11935101Y1146347D01*
X11890397Y1255313D02*
G01*
X11833247Y1255313D01*
X11864489Y1213657D01*
X11848741Y1213657D01*
X11838327Y1208577D01*
X11833247Y1203497D01*
X11827913Y1187749D01*
X11827913Y1177335D01*
X11833247Y1161841D01*
X11843661Y1151427D01*
X11859155Y1146347D01*
X11874903Y1146347D01*
X11890397Y1151427D01*
X11895477Y1156507D01*
X11900811Y1166921D01*
D10*
X10107005Y3225502D02*
G01*
X10107005Y3035002D01*
X9853005Y3035002D01*
X9853005Y4305002D01*
X10107005Y4305002D01*
D14*
X10107005Y4305002D02*
G01*
X10107005Y3225502D01*
D15*
X8809205Y3270001D02*
G01*
X8733005Y3270001D01*
X8910805Y3270001D02*
G01*
X8987005Y3270001D01*
D16*
X8910805Y3168401D02*
G01*
X8910805Y3371601D01*
D17*
X8809205Y3143001D02*
G01*
X8809205Y3397001D01*
X9729005Y81000D02*
G01*
X7951005Y81000D01*
X7951005Y81000D02*
G01*
X7951005Y4399000D01*
X7951005Y4399000D02*
G01*
X9729005Y4399000D01*
X9729005Y4399000D02*
G01*
X9729005Y81000D01*
X9221005Y462000D02*
G01*
X9221005Y-299999D01*
X8459005Y-299999D01*
X8459005Y462000D01*
X9221005Y462000D01*
X11782945Y1158999D02*
G01*
X10822947Y1158999D01*
X10822947Y1158999D02*
G01*
X10822947Y619000D01*
X10822947Y619000D02*
G01*
X11782945Y619000D01*
X11782945Y1158999D02*
G01*
X11782945Y619000D01*
X11593177Y1158999D02*
G01*
X11593177Y619000D01*
X11552537Y1158999D02*
G01*
X11552537Y635000D01*
D10*
X10924006Y3853002D02*
G01*
X10924006Y4104462D01*
X10416006Y4104462D01*
X10416006Y3853002D01*
X10924006Y3853002D01*
D17*
X10477698Y3308700D02*
G01*
X11137699Y3308700D01*
X10477698Y1288696D02*
G01*
X10731500Y1288696D01*
X11137701Y1288696D02*
G01*
X10883900Y1288696D01*
X11137701Y1288696D02*
G01*
X11137701Y1315102D01*
X11137701Y1504297D02*
G01*
X11137701Y1569102D01*
X11137701Y1758297D02*
G01*
X11137701Y1823102D01*
X11137701Y2012297D02*
G01*
X11137701Y2077102D01*
X11137701Y2266297D02*
G01*
X11137701Y2331102D01*
X11137701Y2520297D02*
G01*
X11137701Y2585102D01*
X11137701Y2774297D02*
G01*
X11137701Y2839102D01*
X11137701Y3028297D02*
G01*
X11137701Y3093102D01*
X11137701Y3282297D02*
G01*
X11137701Y3308700D01*
X10477698Y3308700D02*
G01*
X10477698Y3282297D01*
X10477698Y3093102D02*
G01*
X10477698Y3028297D01*
X10477698Y2839102D02*
G01*
X10477698Y2774297D01*
X10477698Y2585102D02*
G01*
X10477698Y2520297D01*
X10477698Y2331102D02*
G01*
X10477698Y2266297D01*
X10477698Y2077102D02*
G01*
X10477698Y2012297D01*
X10477698Y1823102D02*
G01*
X10477698Y1758297D01*
X10477698Y1569102D02*
G01*
X10477698Y1507815D01*
X10477698Y1311584D02*
G01*
X10477698Y1288696D01*
X11201577Y4448962D02*
G01*
X11201577Y3548964D01*
X12251563Y4445965D02*
G01*
X12251563Y3545967D01*
X12251563Y4448962D02*
G01*
X11201577Y4448962D01*
X12254560Y4265980D02*
G01*
X11204575Y4265980D01*
X12251563Y4388967D02*
G01*
X11201577Y4388967D01*
X12251563Y3545967D02*
G01*
X11201577Y3545967D01*
X12350973Y2630048D02*
G01*
X12350973Y3210046D01*
X11588973Y2630048D02*
G01*
X11588973Y3210046D01*
X11588973Y2630048D02*
G01*
X12350973Y2630048D01*
X12350973Y3210046D02*
G01*
X11588973Y3210046D01*
X12223973Y3090047D02*
G01*
X11715973Y3090047D01*
X12223973Y3090047D02*
G01*
X12223973Y3210046D01*
X11715973Y3090047D02*
G01*
X11715973Y3210046D01*
X12350973Y1970046D02*
G01*
X12350973Y2550045D01*
X11588973Y1970046D02*
G01*
X11588973Y2550045D01*
X11588973Y1970046D02*
G01*
X12350973Y1970046D01*
X12350973Y2550045D02*
G01*
X11588973Y2550045D01*
X12223973Y2430045D02*
G01*
X11715973Y2430045D01*
X12223973Y2430045D02*
G01*
X12223973Y2550045D01*
X11715973Y2430045D02*
G01*
X11715973Y2550045D01*
X12350973Y1310048D02*
G01*
X12350973Y1890047D01*
X11588973Y1310048D02*
G01*
X11588973Y1890047D01*
X11588973Y1310048D02*
G01*
X12350973Y1310048D01*
X12350973Y1890047D02*
G01*
X11588973Y1890047D01*
X12223973Y1770047D02*
G01*
X11715973Y1770047D01*
X12223973Y1770047D02*
G01*
X12223973Y1890047D01*
X11715973Y1770047D02*
G01*
X11715973Y1890047D01*
D18*
G75*
G01*
X10426700Y1267206D02*
G02*
X10426954Y1267206I127J12499D01*
D17*
G75*
G01*
X10883900Y1288697D02*
G03*
X10731500Y1288796I-76200J49D01*
G75*
G01
X9360002Y3269996D02*
G03X9360002Y3269996I-499999J0D01*
M02*
