G04 Layer: BottomSolderMaskLayer*
G04 EasyEDA v6.5.34, 2023-08-04 19:03:51*
G04 bd8073a519a84a03b3240daa2bee514a,ed70181f279245e6aff80281ee7dc86a,10*
G04 Gerber Generator version 0.2*
G04 Scale: 100 percent, Rotated: No, Reflected: No *
G04 Dimensions in millimeters *
G04 leading zeros omitted , absolute positions ,4 integer and 5 decimal *
%FSLAX45Y45*%
%MOMM*%

%AMMACRO1*1,1,$1,$2,$3*1,1,$1,$4,$5*1,1,$1,0-$2,0-$3*1,1,$1,0-$4,0-$5*20,1,$1,$2,$3,$4,$5,0*20,1,$1,$4,$5,0-$2,0-$3,0*20,1,$1,0-$2,0-$3,0-$4,0-$5,0*20,1,$1,0-$4,0-$5,$2,$3,0*4,1,4,$2,$3,$4,$5,0-$2,0-$3,0-$4,0-$5,$2,$3,0*%
%ADD10C,1.6764*%
%ADD11MACRO1,0.1016X0.7874X-0.7874X0.7874X0.7874*%
%ADD12C,2.7032*%
%ADD13C,1.8796*%
%ADD14MACRO1,0.1016X-0.889X0.889X-0.889X-0.889*%
%ADD15C,2.5016*%
%ADD16O,2.1015960000000002X1.6015970000000002*%
%ADD17MACRO1,0.1016X-1X-0.75X1X-0.75*%
%ADD18C,2.2032*%
%ADD19MACRO1,0.2032X0.9X0.9X-0.9X0.9*%
%ADD20C,2.0032*%
%ADD21C,3.4032*%

%LPD*%
D10*
G01*
X9980015Y4177995D03*
G01*
X9980015Y3923995D03*
G01*
X9980015Y3669995D03*
G01*
X9980015Y3415995D03*
D11*
G01*
X9980005Y3162002D03*
D12*
G01*
X8606002Y3269995D03*
G01*
X9114002Y3269995D03*
D13*
G01*
X8078012Y462000D03*
G01*
X8078012Y716000D03*
G01*
X8078012Y970000D03*
G01*
X8078012Y1224000D03*
G01*
X8078012Y1478000D03*
G01*
X8078012Y1732000D03*
G01*
X8078012Y1986000D03*
G01*
X8078012Y2240000D03*
G01*
X8078012Y2494000D03*
G01*
X8078012Y2748000D03*
G01*
X8078012Y3002000D03*
G01*
X8078012Y3256000D03*
G01*
X8078012Y3510000D03*
G01*
X8078012Y3764000D03*
G01*
X8078012Y4018000D03*
G01*
X9602012Y462000D03*
G01*
X9602012Y716000D03*
G01*
X9602012Y970000D03*
G01*
X9602012Y1224000D03*
G01*
X9602012Y1478000D03*
G01*
X9602012Y1732000D03*
G01*
X9602012Y1986000D03*
G01*
X9602012Y2240000D03*
G01*
X9602012Y2494000D03*
G01*
X9602012Y2748000D03*
G01*
X9602012Y3002000D03*
G01*
X9602012Y3256000D03*
G01*
X9602012Y3510000D03*
G01*
X9602012Y3764000D03*
D14*
G01*
X9602005Y4018000D03*
D15*
G01*
X10622940Y889000D03*
G01*
X11982958Y889000D03*
D11*
G01*
X10543006Y3980002D03*
D10*
G01*
X10797006Y3980002D03*
D16*
G01*
X11188700Y3187700D03*
G01*
X11188700Y2933700D03*
G01*
X11188700Y2679700D03*
G01*
X11188700Y2425700D03*
G01*
X11188700Y2171700D03*
G01*
X11188700Y1917700D03*
G01*
X11188700Y1663700D03*
G01*
X11188700Y1409700D03*
G01*
X10426700Y3187700D03*
G01*
X10426700Y2933700D03*
G01*
X10426700Y2679700D03*
G01*
X10426700Y2425700D03*
G01*
X10426700Y2171700D03*
G01*
X10426700Y1917700D03*
G01*
X10426700Y1663700D03*
D17*
G01*
X10426700Y1409700D03*
D18*
G01*
X11972543Y4025900D03*
G01*
X11471656Y4025900D03*
D19*
G01*
X11716006Y2950001D03*
D20*
G01*
X11970004Y2950006D03*
G01*
X12224004Y2950006D03*
D19*
G01*
X11716006Y2290000D03*
D20*
G01*
X11970004Y2289987D03*
G01*
X12224004Y2289987D03*
D19*
G01*
X11716006Y1630001D03*
D20*
G01*
X11970004Y1629994D03*
G01*
X12224004Y1629994D03*
D21*
G01*
X7420000Y4150004D03*
G01*
X12110008Y380009D03*
M02*
